<svg xmlns="http://www.w3.org/2000/svg" xmlns:xlink="http://www.w3.org/1999/xlink" width="500" zoomAndPan="magnify" viewBox="0 0 375 374.999991" height="500" preserveAspectRatio="xMidYMid meet" version="1.0"><defs><clipPath id="559a7bc8af"><path d="M 103 19.597656 L 235 19.597656 L 235 163 L 103 163 Z M 103 19.597656 " clip-rule="nonzero"/></clipPath><clipPath id="1f9fd18101"><path d="M 41 108 L 308 108 L 308 337.597656 L 41 337.597656 Z M 41 108 " clip-rule="nonzero"/></clipPath><clipPath id="255f166b51"><path d="M 71 108 L 337.230469 108 L 337.230469 337.597656 L 71 337.597656 Z M 71 108 " clip-rule="nonzero"/></clipPath><clipPath id="a7f0cf7dac"><path d="M 136 19.597656 L 268 19.597656 L 268 163 L 136 163 Z M 136 19.597656 " clip-rule="nonzero"/></clipPath><clipPath id="4c80a48cf7"><path d="M 136.082031 178.546875 L 304.359375 178.546875 L 304.359375 328.398438 L 136.082031 328.398438 Z M 136.082031 178.546875 " clip-rule="nonzero"/></clipPath><clipPath id="a4568ef5dc"><path d="M 222 173.296875 L 237.203125 173.296875 L 237.203125 189 L 222 189 Z M 222 173.296875 " clip-rule="nonzero"/></clipPath></defs><g clip-path="url(#559a7bc8af)"><path fill="#545454" d="M 226.734375 162.976562 C 222.601562 162.976562 219.246094 159.621094 219.246094 155.488281 L 219.246094 84.90625 C 219.246094 57.125 196.644531 34.523438 168.878906 34.523438 C 141.097656 34.523438 118.496094 57.125 118.496094 84.90625 L 118.496094 155.488281 C 118.496094 159.621094 115.144531 162.976562 111.027344 162.976562 C 106.875 162.976562 103.539062 159.621094 103.539062 155.488281 L 103.539062 84.90625 C 103.539062 48.875 132.847656 19.566406 168.878906 19.566406 C 204.914062 19.566406 234.222656 48.875 234.222656 84.90625 L 234.222656 155.488281 C 234.222656 159.621094 230.882812 162.976562 226.734375 162.976562 " fill-opacity="1" fill-rule="nonzero"/></g><g clip-path="url(#1f9fd18101)"><path fill="#222121" d="M 307.378906 319.347656 C 307.378906 329.347656 299.1875 337.523438 289.191406 337.523438 L 59.675781 337.523438 C 49.675781 337.523438 41.503906 329.347656 41.503906 319.347656 L 41.707031 126.585938 C 41.707031 116.585938 49.894531 108.398438 59.894531 108.398438 L 284.855469 108.398438 C 294.851562 108.398438 303.042969 116.585938 303.042969 126.585938 L 307.378906 319.347656 " fill-opacity="1" fill-rule="nonzero"/></g><g clip-path="url(#255f166b51)"><path fill="#8fff00" d="M 337.125 319.347656 C 337.125 329.347656 328.949219 337.523438 318.953125 337.523438 L 89.4375 337.523438 C 79.4375 337.523438 71.25 329.347656 71.25 319.347656 L 71.46875 126.585938 C 71.46875 116.585938 79.640625 108.398438 89.640625 108.398438 L 314.617188 108.398438 C 324.613281 108.398438 332.804688 116.585938 332.804688 126.585938 L 337.125 319.347656 " fill-opacity="1" fill-rule="nonzero"/></g><path fill="#222121" d="M 160.597656 155.488281 C 160.597656 165.082031 152.8125 172.867188 143.222656 172.867188 C 133.613281 172.867188 125.828125 165.082031 125.828125 155.488281 C 125.828125 145.878906 133.613281 138.113281 143.222656 138.113281 C 152.8125 138.113281 160.597656 145.878906 160.597656 155.488281 " fill-opacity="1" fill-rule="nonzero"/><path fill="#222121" d="M 278.425781 155.488281 C 278.425781 165.082031 270.644531 172.867188 261.050781 172.867188 C 251.441406 172.867188 243.660156 165.082031 243.660156 155.488281 C 243.660156 145.878906 251.441406 138.113281 261.050781 138.113281 C 270.644531 138.113281 278.425781 145.878906 278.425781 155.488281 " fill-opacity="1" fill-rule="nonzero"/><g clip-path="url(#a7f0cf7dac)"><path fill="#000000" d="M 259.992188 162.976562 C 255.855469 162.976562 252.503906 159.621094 252.503906 155.488281 L 252.503906 84.90625 C 252.503906 57.125 229.902344 34.523438 202.136719 34.523438 C 174.355469 34.523438 151.753906 57.125 151.753906 84.90625 L 151.753906 155.488281 C 151.753906 159.621094 148.398438 162.976562 144.265625 162.976562 C 140.132812 162.976562 136.777344 159.621094 136.777344 155.488281 L 136.777344 84.90625 C 136.777344 48.875 166.089844 19.566406 202.136719 19.566406 C 238.167969 19.566406 267.476562 48.875 267.476562 84.90625 L 267.476562 155.488281 C 267.476562 159.621094 264.125 162.976562 259.992188 162.976562 " fill-opacity="1" fill-rule="nonzero"/></g><path fill="#ffffff" d="M 274.871094 214.261719 L 272 214.125 C 267.226562 213.90625 263.203125 217.195312 263 221.5 L 261.863281 245.757812 L 261.847656 245.726562 L 258.679688 240.109375 L 230.074219 189.445312 C 228.074219 185.90625 223.582031 184.65625 220.042969 186.65625 L 217.90625 187.855469 C 214.363281 189.867188 213.117188 194.34375 215.113281 197.886719 L 228.808594 222.15625 C 227.09375 221.78125 225.253906 222 223.613281 222.921875 L 221.460938 224.121094 C 217.9375 226.132812 216.671875 230.609375 218.6875 234.152344 C 216.671875 230.609375 212.195312 229.363281 208.65625 231.359375 L 206.503906 232.574219 C 202.976562 234.574219 201.714844 239.066406 203.710938 242.605469 C 201.714844 239.066406 197.238281 237.816406 193.683594 239.8125 L 191.558594 241.015625 C 188.019531 243.011719 186.757812 247.503906 188.753906 251.042969 L 200.964844 272.679688 C 200.964844 272.679688 217.09375 302.175781 223.863281 310.316406 C 230.136719 317.914062 231.492188 316.011719 234.253906 318.757812 C 238.324219 322.8125 242.222656 326.199219 245.765625 324.199219 L 279.425781 305.203125 C 282.980469 303.207031 282.84375 297.855469 280.734375 292.519531 C 279.972656 290.585938 278.941406 285.15625 279.457031 284.269531 C 279.457031 284.269531 280.457031 280.664062 280.410156 280.027344 L 283.121094 222.453125 C 283.324219 218.148438 279.628906 214.480469 274.871094 214.261719 " fill-opacity="1" fill-rule="nonzero"/><g clip-path="url(#4c80a48cf7)"><path fill="#8fff00" d="M 136.082031 178.546875 L 304.078125 178.546875 L 304.078125 328.398438 L 136.082031 328.398438 Z M 136.082031 178.546875 " fill-opacity="1" fill-rule="nonzero"/></g><g clip-path="url(#a4568ef5dc)"><path fill="#000000" d="M 237.203125 180.851562 C 237.203125 181.339844 237.15625 181.824219 237.0625 182.300781 C 236.964844 182.777344 236.824219 183.242188 236.636719 183.691406 C 236.449219 184.144531 236.222656 184.570312 235.949219 184.976562 C 235.675781 185.382812 235.367188 185.757812 235.023438 186.101562 C 234.675781 186.445312 234.300781 186.753906 233.894531 187.023438 C 233.488281 187.296875 233.058594 187.523438 232.605469 187.710938 C 232.152344 187.898438 231.6875 188.039062 231.207031 188.132812 C 230.730469 188.226562 230.246094 188.277344 229.753906 188.277344 C 229.265625 188.277344 228.78125 188.226562 228.300781 188.132812 C 227.824219 188.039062 227.355469 187.898438 226.90625 187.710938 C 226.453125 187.523438 226.023438 187.296875 225.617188 187.023438 C 225.210938 186.753906 224.835938 186.445312 224.488281 186.101562 C 224.144531 185.757812 223.832031 185.382812 223.5625 184.976562 C 223.289062 184.570312 223.0625 184.144531 222.875 183.691406 C 222.6875 183.242188 222.546875 182.777344 222.449219 182.300781 C 222.355469 181.824219 222.308594 181.339844 222.308594 180.851562 C 222.308594 180.367188 222.355469 179.882812 222.449219 179.40625 C 222.546875 178.925781 222.6875 178.460938 222.875 178.011719 C 223.0625 177.5625 223.289062 177.132812 223.5625 176.730469 C 223.832031 176.324219 224.144531 175.949219 224.488281 175.605469 C 224.835938 175.257812 225.210938 174.953125 225.617188 174.679688 C 226.023438 174.410156 226.453125 174.183594 226.90625 173.996094 C 227.355469 173.808594 227.824219 173.667969 228.300781 173.574219 C 228.78125 173.476562 229.265625 173.429688 229.753906 173.429688 C 230.246094 173.429688 230.730469 173.476562 231.207031 173.574219 C 231.6875 173.667969 232.152344 173.808594 232.605469 173.996094 C 233.058594 174.183594 233.488281 174.410156 233.894531 174.679688 C 234.300781 174.953125 234.675781 175.257812 235.023438 175.605469 C 235.367188 175.949219 235.675781 176.324219 235.949219 176.730469 C 236.222656 177.132812 236.449219 177.5625 236.636719 178.011719 C 236.824219 178.460938 236.964844 178.925781 237.0625 179.40625 C 237.15625 179.882812 237.203125 180.367188 237.203125 180.851562 Z M 237.203125 180.851562 " fill-opacity="1" fill-rule="nonzero"/></g><path fill="#000000" d="M 229.828125 211.96875 C 229.828125 212.988281 229.777344 214.007812 229.675781 215.023438 C 229.578125 216.039062 229.425781 217.050781 229.226562 218.050781 C 229.027344 219.054688 228.777344 220.042969 228.480469 221.019531 C 228.183594 221.996094 227.839844 222.957031 227.445312 223.902344 C 227.054688 224.84375 226.617188 225.765625 226.132812 226.667969 C 225.648438 227.566406 225.125 228.441406 224.554688 229.292969 C 223.984375 230.140625 223.375 230.960938 222.726562 231.75 C 222.074219 232.539062 221.386719 233.292969 220.664062 234.015625 C 219.9375 234.738281 219.179688 235.425781 218.386719 236.070312 C 217.59375 236.71875 216.773438 237.328125 215.921875 237.894531 C 215.070312 238.460938 214.191406 238.984375 213.289062 239.46875 C 212.382812 239.949219 211.457031 240.386719 210.511719 240.777344 C 209.5625 241.167969 208.601562 241.511719 207.621094 241.808594 C 206.640625 242.101562 205.644531 242.351562 204.640625 242.550781 C 203.636719 242.75 202.625 242.898438 201.601562 243 C 200.582031 243.097656 199.5625 243.148438 198.535156 243.148438 C 197.511719 243.148438 196.488281 243.097656 195.46875 243 C 194.449219 242.898438 193.4375 242.75 192.429688 242.550781 C 191.425781 242.351562 190.433594 242.101562 189.453125 241.808594 C 188.472656 241.511719 187.507812 241.167969 186.5625 240.777344 C 185.613281 240.386719 184.6875 239.949219 183.785156 239.46875 C 182.882812 238.984375 182.003906 238.460938 181.152344 237.894531 C 180.300781 237.328125 179.476562 236.71875 178.683594 236.070312 C 177.894531 235.425781 177.132812 234.738281 176.410156 234.015625 C 175.683594 233.292969 174.996094 232.539062 174.347656 231.75 C 173.695312 230.960938 173.085938 230.140625 172.519531 229.292969 C 171.949219 228.441406 171.421875 227.566406 170.9375 226.667969 C 170.457031 225.765625 170.019531 224.84375 169.625 223.902344 C 169.234375 222.957031 168.890625 221.996094 168.589844 221.019531 C 168.292969 220.042969 168.046875 219.054688 167.84375 218.050781 C 167.644531 217.050781 167.496094 216.039062 167.394531 215.023438 C 167.292969 214.007812 167.246094 212.988281 167.246094 211.96875 C 167.246094 210.945312 167.292969 209.929688 167.394531 208.910156 C 167.496094 207.894531 167.644531 206.886719 167.84375 205.886719 C 168.046875 204.882812 168.292969 203.894531 168.589844 202.917969 C 168.890625 201.941406 169.234375 200.980469 169.625 200.035156 C 170.019531 199.09375 170.457031 198.171875 170.9375 197.269531 C 171.421875 196.367188 171.949219 195.496094 172.519531 194.644531 C 173.085938 193.796875 173.695312 192.976562 174.347656 192.1875 C 174.996094 191.398438 175.683594 190.640625 176.410156 189.921875 C 177.132812 189.199219 177.894531 188.511719 178.683594 187.863281 C 179.476562 187.21875 180.300781 186.609375 181.152344 186.042969 C 182.003906 185.476562 182.882812 184.949219 183.785156 184.46875 C 184.6875 183.988281 185.613281 183.550781 186.5625 183.160156 C 187.507812 182.769531 188.472656 182.425781 189.453125 182.128906 C 190.433594 181.832031 191.425781 181.585938 192.429688 181.386719 C 193.4375 181.1875 194.449219 181.039062 195.46875 180.9375 C 196.488281 180.835938 197.511719 180.789062 198.535156 180.789062 C 199.5625 180.789062 200.582031 180.835938 201.601562 180.9375 C 202.625 181.039062 203.636719 181.1875 204.640625 181.386719 C 205.644531 181.585938 206.640625 181.832031 207.621094 182.128906 C 208.601562 182.425781 209.5625 182.769531 210.511719 183.160156 C 211.457031 183.550781 212.382812 183.988281 213.289062 184.46875 C 214.191406 184.949219 215.070312 185.476562 215.921875 186.042969 C 216.773438 186.609375 217.59375 187.21875 218.386719 187.863281 C 219.179688 188.511719 219.9375 189.199219 220.664062 189.921875 C 221.386719 190.640625 222.074219 191.398438 222.726562 192.1875 C 223.375 192.976562 223.984375 193.796875 224.554688 194.644531 C 225.125 195.496094 225.648438 196.367188 226.132812 197.269531 C 226.617188 198.171875 227.054688 199.09375 227.445312 200.035156 C 227.839844 200.980469 228.183594 201.941406 228.480469 202.917969 C 228.777344 203.894531 229.027344 204.882812 229.226562 205.886719 C 229.425781 206.886719 229.578125 207.894531 229.675781 208.910156 C 229.777344 209.929688 229.828125 210.945312 229.828125 211.96875 Z M 218.726562 211.96875 C 218.726562 211.308594 218.695312 210.652344 218.628906 209.996094 C 218.566406 209.339844 218.46875 208.691406 218.339844 208.042969 C 218.210938 207.398438 218.050781 206.757812 217.859375 206.128906 C 217.664062 205.496094 217.445312 204.878906 217.191406 204.269531 C 216.9375 203.660156 216.65625 203.066406 216.34375 202.484375 C 216.03125 201.902344 215.691406 201.339844 215.324219 200.789062 C 214.957031 200.242188 214.5625 199.714844 214.144531 199.203125 C 213.726562 198.695312 213.28125 198.207031 212.8125 197.742188 C 212.347656 197.277344 211.855469 196.832031 211.34375 196.414062 C 210.835938 195.996094 210.304688 195.605469 209.753906 195.238281 C 209.203125 194.875 208.636719 194.535156 208.054688 194.222656 C 207.472656 193.914062 206.875 193.632812 206.261719 193.378906 C 205.652344 193.128906 205.03125 192.90625 204.398438 192.714844 C 203.765625 192.523438 203.125 192.363281 202.476562 192.234375 C 201.828125 192.105469 201.171875 192.011719 200.515625 191.945312 C 199.855469 191.882812 199.199219 191.847656 198.535156 191.847656 C 197.875 191.847656 197.214844 191.882812 196.558594 191.945312 C 195.898438 192.011719 195.246094 192.105469 194.597656 192.234375 C 193.949219 192.363281 193.308594 192.523438 192.675781 192.714844 C 192.042969 192.90625 191.421875 193.128906 190.808594 193.378906 C 190.199219 193.632812 189.601562 193.914062 189.019531 194.222656 C 188.433594 194.535156 187.867188 194.875 187.320312 195.238281 C 186.769531 195.605469 186.238281 195.996094 185.726562 196.414062 C 185.214844 196.832031 184.726562 197.277344 184.257812 197.742188 C 183.792969 198.207031 183.347656 198.695312 182.929688 199.203125 C 182.507812 199.714844 182.117188 200.242188 181.746094 200.789062 C 181.378906 201.339844 181.042969 201.902344 180.730469 202.484375 C 180.417969 203.066406 180.136719 203.660156 179.882812 204.269531 C 179.628906 204.878906 179.40625 205.496094 179.214844 206.128906 C 179.023438 206.757812 178.863281 207.398438 178.734375 208.042969 C 178.605469 208.691406 178.507812 209.339844 178.441406 209.996094 C 178.378906 210.652344 178.34375 211.308594 178.34375 211.96875 C 178.34375 212.628906 178.378906 213.285156 178.441406 213.941406 C 178.507812 214.597656 178.605469 215.246094 178.734375 215.894531 C 178.863281 216.539062 179.023438 217.179688 179.214844 217.808594 C 179.40625 218.4375 179.628906 219.058594 179.882812 219.667969 C 180.136719 220.277344 180.417969 220.871094 180.730469 221.453125 C 181.042969 222.035156 181.378906 222.597656 181.746094 223.144531 C 182.117188 223.695312 182.507812 224.222656 182.929688 224.730469 C 183.347656 225.242188 183.792969 225.730469 184.257812 226.195312 C 184.726562 226.660156 185.214844 227.101562 185.726562 227.519531 C 186.238281 227.9375 186.769531 228.332031 187.320312 228.695312 C 187.867188 229.0625 188.433594 229.402344 189.019531 229.710938 C 189.601562 230.023438 190.199219 230.304688 190.808594 230.554688 C 191.421875 230.808594 192.042969 231.03125 192.675781 231.222656 C 193.308594 231.414062 193.949219 231.574219 194.597656 231.703125 C 195.246094 231.828125 195.898438 231.925781 196.558594 231.992188 C 197.214844 232.054688 197.875 232.089844 198.535156 232.089844 C 199.199219 232.089844 199.855469 232.054688 200.515625 231.992188 C 201.171875 231.925781 201.828125 231.828125 202.476562 231.703125 C 203.125 231.574219 203.765625 231.414062 204.398438 231.222656 C 205.03125 231.03125 205.652344 230.808594 206.261719 230.554688 C 206.875 230.304688 207.472656 230.023438 208.054688 229.710938 C 208.636719 229.402344 209.203125 229.0625 209.753906 228.695312 C 210.304688 228.332031 210.835938 227.9375 211.34375 227.519531 C 211.855469 227.101562 212.347656 226.660156 212.8125 226.195312 C 213.28125 225.730469 213.726562 225.242188 214.144531 224.730469 C 214.5625 224.222656 214.957031 223.695312 215.324219 223.144531 C 215.691406 222.597656 216.03125 222.035156 216.34375 221.453125 C 216.65625 220.871094 216.9375 220.277344 217.191406 219.667969 C 217.445312 219.058594 217.664062 218.4375 217.859375 217.808594 C 218.050781 217.179688 218.210938 216.539062 218.339844 215.894531 C 218.46875 215.246094 218.566406 214.597656 218.628906 213.941406 C 218.695312 213.285156 218.726562 212.628906 218.726562 211.96875 Z M 218.726562 211.96875 " fill-opacity="1" fill-rule="nonzero"/><path fill="#000000" d="M 215.035156 263.792969 L 199.25 263.800781 C 199.140625 263.800781 199.050781 263.761719 198.972656 263.6875 C 198.898438 263.609375 198.859375 263.515625 198.859375 263.40625 L 198.871094 254.539062 C 198.871094 254.445312 198.90625 254.359375 198.976562 254.292969 C 199.042969 254.226562 199.125 254.191406 199.222656 254.191406 L 222.109375 254.183594 C 222.363281 254.183594 222.578125 254.277344 222.753906 254.46875 C 232.484375 264.636719 231.613281 280.398438 223.683594 291.207031 C 212.992188 305.753906 191.785156 308.238281 178.140625 296.335938 C 165.578125 285.378906 163.710938 267.460938 173.558594 254.019531 C 173.617188 253.941406 173.695312 253.902344 173.792969 253.902344 C 173.890625 253.902344 173.96875 253.941406 174.027344 254.019531 L 180.808594 263.425781 C 180.917969 263.578125 180.972656 263.75 180.976562 263.933594 C 180.976562 264.121094 180.921875 264.292969 180.816406 264.445312 C 176.136719 271.21875 178.484375 280.90625 183.890625 286.523438 C 194 297.039062 210.96875 293.839844 216.972656 280.867188 C 218.535156 277.488281 219.320312 272.601562 218.320312 269.121094 C 217.871094 267.566406 216.96875 265.890625 215.617188 264.089844 C 215.472656 263.894531 215.277344 263.792969 215.035156 263.792969 Z M 215.035156 263.792969 " fill-opacity="1" fill-rule="nonzero"/></svg>