<svg xmlns="http://www.w3.org/2000/svg" xmlns:xlink="http://www.w3.org/1999/xlink" width="500" zoomAndPan="magnify" viewBox="0 0 375 374.999991" height="500" preserveAspectRatio="xMidYMid meet" version="1.0"><defs><clipPath id="24ab3bdf23"><path d="M 103 19.597656 L 235 19.597656 L 235 163 L 103 163 Z M 103 19.597656 " clip-rule="nonzero"/></clipPath><clipPath id="65edbe3870"><path d="M 41 108 L 308 108 L 308 337.597656 L 41 337.597656 Z M 41 108 " clip-rule="nonzero"/></clipPath><clipPath id="5a7d5a2388"><path d="M 71 108 L 337.230469 108 L 337.230469 337.597656 L 71 337.597656 Z M 71 108 " clip-rule="nonzero"/></clipPath><clipPath id="969c57bf2e"><path d="M 136 19.597656 L 268 19.597656 L 268 163 L 136 163 Z M 136 19.597656 " clip-rule="nonzero"/></clipPath><clipPath id="2d4e763e67"><path d="M 136.082031 169.445312 L 304.359375 169.445312 L 304.359375 328.398438 L 136.082031 328.398438 Z M 136.082031 169.445312 " clip-rule="nonzero"/></clipPath><clipPath id="adfea0ae91"><path d="M 214 171.046875 L 229.703125 171.046875 L 229.703125 187 L 214 187 Z M 214 171.046875 " clip-rule="nonzero"/></clipPath></defs><g clip-path="url(#24ab3bdf23)"><path fill="#100f0f" d="M 226.734375 162.976562 C 222.601562 162.976562 219.246094 159.621094 219.246094 155.488281 L 219.246094 84.90625 C 219.246094 57.125 196.644531 34.523438 168.878906 34.523438 C 141.097656 34.523438 118.496094 57.125 118.496094 84.90625 L 118.496094 155.488281 C 118.496094 159.621094 115.144531 162.976562 111.027344 162.976562 C 106.875 162.976562 103.539062 159.621094 103.539062 155.488281 L 103.539062 84.90625 C 103.539062 48.875 132.847656 19.566406 168.878906 19.566406 C 204.914062 19.566406 234.222656 48.875 234.222656 84.90625 L 234.222656 155.488281 C 234.222656 159.621094 230.882812 162.976562 226.734375 162.976562 " fill-opacity="1" fill-rule="nonzero"/></g><g clip-path="url(#65edbe3870)"><path fill="#8fff00" d="M 307.378906 319.347656 C 307.378906 329.347656 299.1875 337.523438 289.191406 337.523438 L 59.675781 337.523438 C 49.675781 337.523438 41.503906 329.347656 41.503906 319.347656 L 41.707031 126.585938 C 41.707031 116.585938 49.894531 108.398438 59.894531 108.398438 L 284.855469 108.398438 C 294.851562 108.398438 303.042969 116.585938 303.042969 126.585938 L 307.378906 319.347656 " fill-opacity="1" fill-rule="nonzero"/></g><g clip-path="url(#5a7d5a2388)"><path fill="#8fff00" d="M 337.125 319.347656 C 337.125 329.347656 328.949219 337.523438 318.953125 337.523438 L 89.4375 337.523438 C 79.4375 337.523438 71.25 329.347656 71.25 319.347656 L 71.46875 126.585938 C 71.46875 116.585938 79.640625 108.398438 89.640625 108.398438 L 314.617188 108.398438 C 324.613281 108.398438 332.804688 116.585938 332.804688 126.585938 L 337.125 319.347656 " fill-opacity="1" fill-rule="nonzero"/></g><path fill="#8fff00" d="M 160.597656 155.488281 C 160.597656 165.082031 152.8125 172.867188 143.222656 172.867188 C 133.613281 172.867188 125.828125 165.082031 125.828125 155.488281 C 125.828125 145.878906 133.613281 138.113281 143.222656 138.113281 C 152.8125 138.113281 160.597656 145.878906 160.597656 155.488281 " fill-opacity="1" fill-rule="nonzero"/><path fill="#8fff00" d="M 278.425781 155.488281 C 278.425781 165.082031 270.644531 172.867188 261.050781 172.867188 C 251.441406 172.867188 243.660156 165.082031 243.660156 155.488281 C 243.660156 145.878906 251.441406 138.113281 261.050781 138.113281 C 270.644531 138.113281 278.425781 145.878906 278.425781 155.488281 " fill-opacity="1" fill-rule="nonzero"/><g clip-path="url(#969c57bf2e)"><path fill="#141515" d="M 259.992188 162.976562 C 255.855469 162.976562 252.503906 159.621094 252.503906 155.488281 L 252.503906 84.90625 C 252.503906 57.125 229.902344 34.523438 202.136719 34.523438 C 174.355469 34.523438 151.753906 57.125 151.753906 84.90625 L 151.753906 155.488281 C 151.753906 159.621094 148.398438 162.976562 144.265625 162.976562 C 140.132812 162.976562 136.777344 159.621094 136.777344 155.488281 L 136.777344 84.90625 C 136.777344 48.875 166.089844 19.566406 202.136719 19.566406 C 238.167969 19.566406 267.476562 48.875 267.476562 84.90625 L 267.476562 155.488281 C 267.476562 159.621094 264.125 162.976562 259.992188 162.976562 " fill-opacity="1" fill-rule="nonzero"/></g><path fill="#ffffff" d="M 274.871094 214.261719 L 272 214.125 C 267.226562 213.90625 263.203125 217.195312 263 221.5 L 261.863281 245.757812 L 261.847656 245.726562 L 258.679688 240.109375 L 230.074219 189.445312 C 228.074219 185.90625 223.582031 184.65625 220.042969 186.65625 L 217.90625 187.855469 C 214.363281 189.867188 213.117188 194.34375 215.113281 197.886719 L 228.808594 222.15625 C 227.09375 221.78125 225.253906 222 223.613281 222.921875 L 221.460938 224.121094 C 217.9375 226.132812 216.671875 230.609375 218.6875 234.152344 C 216.671875 230.609375 212.195312 229.363281 208.65625 231.359375 L 206.503906 232.574219 C 202.976562 234.574219 201.714844 239.066406 203.710938 242.605469 C 201.714844 239.066406 197.238281 237.816406 193.683594 239.8125 L 191.558594 241.015625 C 188.019531 243.011719 186.757812 247.503906 188.753906 251.042969 L 200.964844 272.679688 C 200.964844 272.679688 217.09375 302.175781 223.863281 310.316406 C 230.136719 317.914062 231.492188 316.011719 234.253906 318.757812 C 238.324219 322.8125 242.222656 326.199219 245.765625 324.199219 L 279.425781 305.203125 C 282.980469 303.207031 282.84375 297.855469 280.734375 292.519531 C 279.972656 290.585938 278.941406 285.15625 279.457031 284.269531 C 279.457031 284.269531 280.457031 280.664062 280.410156 280.027344 L 283.121094 222.453125 C 283.324219 218.148438 279.628906 214.480469 274.871094 214.261719 " fill-opacity="1" fill-rule="nonzero"/><g clip-path="url(#2d4e763e67)"><path fill="#8fff00" d="M 136.082031 169.445312 L 304.347656 169.445312 L 304.347656 328.398438 L 136.082031 328.398438 Z M 136.082031 169.445312 " fill-opacity="1" fill-rule="nonzero"/></g><g clip-path="url(#adfea0ae91)"><path fill="#000000" d="M 229.703125 178.601562 C 229.703125 179.089844 229.65625 179.574219 229.5625 180.050781 C 229.464844 180.527344 229.324219 180.992188 229.136719 181.441406 C 228.949219 181.894531 228.722656 182.320312 228.449219 182.726562 C 228.175781 183.132812 227.867188 183.507812 227.523438 183.851562 C 227.175781 184.195312 226.800781 184.503906 226.394531 184.773438 C 225.988281 185.046875 225.558594 185.273438 225.105469 185.460938 C 224.652344 185.648438 224.1875 185.789062 223.707031 185.882812 C 223.230469 185.976562 222.746094 186.027344 222.253906 186.027344 C 221.765625 186.027344 221.28125 185.976562 220.800781 185.882812 C 220.324219 185.789062 219.855469 185.648438 219.40625 185.460938 C 218.953125 185.273438 218.523438 185.046875 218.117188 184.773438 C 217.710938 184.503906 217.335938 184.195312 216.988281 183.851562 C 216.644531 183.507812 216.332031 183.132812 216.0625 182.726562 C 215.789062 182.320312 215.5625 181.894531 215.375 181.441406 C 215.1875 180.992188 215.046875 180.527344 214.949219 180.050781 C 214.855469 179.574219 214.808594 179.089844 214.808594 178.601562 C 214.808594 178.117188 214.855469 177.632812 214.949219 177.15625 C 215.046875 176.675781 215.1875 176.210938 215.375 175.761719 C 215.5625 175.3125 215.789062 174.882812 216.0625 174.480469 C 216.332031 174.074219 216.644531 173.699219 216.988281 173.355469 C 217.335938 173.007812 217.710938 172.703125 218.117188 172.429688 C 218.523438 172.160156 218.953125 171.933594 219.40625 171.746094 C 219.855469 171.558594 220.324219 171.417969 220.800781 171.324219 C 221.28125 171.226562 221.765625 171.179688 222.253906 171.179688 C 222.746094 171.179688 223.230469 171.226562 223.707031 171.324219 C 224.1875 171.417969 224.652344 171.558594 225.105469 171.746094 C 225.558594 171.933594 225.988281 172.160156 226.394531 172.429688 C 226.800781 172.703125 227.175781 173.007812 227.523438 173.355469 C 227.867188 173.699219 228.175781 174.074219 228.449219 174.480469 C 228.722656 174.882812 228.949219 175.3125 229.136719 175.761719 C 229.324219 176.210938 229.464844 176.675781 229.5625 177.15625 C 229.65625 177.632812 229.703125 178.117188 229.703125 178.601562 Z M 229.703125 178.601562 " fill-opacity="1" fill-rule="nonzero"/></g><path fill="#000000" d="M 222.328125 209.71875 C 222.328125 210.738281 222.277344 211.757812 222.175781 212.773438 C 222.078125 213.789062 221.925781 214.800781 221.726562 215.800781 C 221.527344 216.804688 221.277344 217.792969 220.980469 218.769531 C 220.683594 219.746094 220.339844 220.707031 219.945312 221.652344 C 219.554688 222.59375 219.117188 223.515625 218.632812 224.417969 C 218.148438 225.316406 217.625 226.191406 217.054688 227.042969 C 216.484375 227.890625 215.875 228.710938 215.226562 229.5 C 214.574219 230.289062 213.886719 231.042969 213.164062 231.765625 C 212.4375 232.488281 211.679688 233.175781 210.886719 233.820312 C 210.09375 234.46875 209.273438 235.078125 208.421875 235.644531 C 207.570312 236.210938 206.691406 236.734375 205.789062 237.21875 C 204.882812 237.699219 203.957031 238.136719 203.011719 238.527344 C 202.0625 238.917969 201.101562 239.261719 200.121094 239.558594 C 199.140625 239.851562 198.144531 240.101562 197.140625 240.300781 C 196.136719 240.5 195.125 240.648438 194.101562 240.75 C 193.082031 240.847656 192.0625 240.898438 191.035156 240.898438 C 190.011719 240.898438 188.988281 240.847656 187.96875 240.75 C 186.949219 240.648438 185.9375 240.5 184.929688 240.300781 C 183.925781 240.101562 182.933594 239.851562 181.953125 239.558594 C 180.972656 239.261719 180.007812 238.917969 179.0625 238.527344 C 178.113281 238.136719 177.1875 237.699219 176.285156 237.21875 C 175.382812 236.734375 174.503906 236.210938 173.652344 235.644531 C 172.800781 235.078125 171.976562 234.46875 171.183594 233.820312 C 170.394531 233.175781 169.632812 232.488281 168.910156 231.765625 C 168.183594 231.042969 167.496094 230.289062 166.847656 229.5 C 166.195312 228.710938 165.585938 227.890625 165.019531 227.042969 C 164.449219 226.191406 163.921875 225.316406 163.4375 224.417969 C 162.957031 223.515625 162.519531 222.59375 162.125 221.652344 C 161.734375 220.707031 161.390625 219.746094 161.089844 218.769531 C 160.792969 217.792969 160.546875 216.804688 160.34375 215.800781 C 160.144531 214.800781 159.996094 213.789062 159.894531 212.773438 C 159.792969 211.757812 159.746094 210.738281 159.746094 209.71875 C 159.746094 208.695312 159.792969 207.679688 159.894531 206.660156 C 159.996094 205.644531 160.144531 204.636719 160.34375 203.636719 C 160.546875 202.632812 160.792969 201.644531 161.089844 200.667969 C 161.390625 199.691406 161.734375 198.730469 162.125 197.785156 C 162.519531 196.84375 162.957031 195.921875 163.4375 195.019531 C 163.921875 194.117188 164.449219 193.246094 165.019531 192.394531 C 165.585938 191.546875 166.195312 190.726562 166.847656 189.9375 C 167.496094 189.148438 168.183594 188.390625 168.910156 187.671875 C 169.632812 186.949219 170.394531 186.261719 171.183594 185.613281 C 171.976562 184.96875 172.800781 184.359375 173.652344 183.792969 C 174.503906 183.226562 175.382812 182.699219 176.285156 182.21875 C 177.1875 181.738281 178.113281 181.300781 179.0625 180.910156 C 180.007812 180.519531 180.972656 180.175781 181.953125 179.878906 C 182.933594 179.582031 183.925781 179.335938 184.929688 179.136719 C 185.9375 178.9375 186.949219 178.789062 187.96875 178.6875 C 188.988281 178.585938 190.011719 178.539062 191.035156 178.539062 C 192.0625 178.539062 193.082031 178.585938 194.101562 178.6875 C 195.125 178.789062 196.136719 178.9375 197.140625 179.136719 C 198.144531 179.335938 199.140625 179.582031 200.121094 179.878906 C 201.101562 180.175781 202.0625 180.519531 203.011719 180.910156 C 203.957031 181.300781 204.882812 181.738281 205.789062 182.21875 C 206.691406 182.699219 207.570312 183.226562 208.421875 183.792969 C 209.273438 184.359375 210.09375 184.96875 210.886719 185.613281 C 211.679688 186.261719 212.4375 186.949219 213.164062 187.671875 C 213.886719 188.390625 214.574219 189.148438 215.226562 189.9375 C 215.875 190.726562 216.484375 191.546875 217.054688 192.394531 C 217.625 193.246094 218.148438 194.117188 218.632812 195.019531 C 219.117188 195.921875 219.554688 196.84375 219.945312 197.785156 C 220.339844 198.730469 220.683594 199.691406 220.980469 200.667969 C 221.277344 201.644531 221.527344 202.632812 221.726562 203.636719 C 221.925781 204.636719 222.078125 205.644531 222.175781 206.660156 C 222.277344 207.679688 222.328125 208.695312 222.328125 209.71875 Z M 211.226562 209.71875 C 211.226562 209.058594 211.195312 208.402344 211.128906 207.746094 C 211.066406 207.089844 210.96875 206.441406 210.839844 205.792969 C 210.710938 205.148438 210.550781 204.507812 210.359375 203.878906 C 210.164062 203.246094 209.945312 202.628906 209.691406 202.019531 C 209.4375 201.410156 209.15625 200.816406 208.84375 200.234375 C 208.53125 199.652344 208.191406 199.089844 207.824219 198.539062 C 207.457031 197.992188 207.0625 197.464844 206.644531 196.953125 C 206.226562 196.445312 205.78125 195.957031 205.3125 195.492188 C 204.847656 195.027344 204.355469 194.582031 203.84375 194.164062 C 203.335938 193.746094 202.804688 193.355469 202.253906 192.988281 C 201.703125 192.625 201.136719 192.285156 200.554688 191.972656 C 199.972656 191.664062 199.375 191.382812 198.761719 191.128906 C 198.152344 190.878906 197.53125 190.65625 196.898438 190.464844 C 196.265625 190.273438 195.625 190.113281 194.976562 189.984375 C 194.328125 189.855469 193.671875 189.761719 193.015625 189.695312 C 192.355469 189.632812 191.699219 189.597656 191.035156 189.597656 C 190.375 189.597656 189.714844 189.632812 189.058594 189.695312 C 188.398438 189.761719 187.746094 189.855469 187.097656 189.984375 C 186.449219 190.113281 185.808594 190.273438 185.175781 190.464844 C 184.542969 190.65625 183.921875 190.878906 183.308594 191.128906 C 182.699219 191.382812 182.101562 191.664062 181.519531 191.972656 C 180.933594 192.285156 180.367188 192.625 179.820312 192.988281 C 179.269531 193.355469 178.738281 193.746094 178.226562 194.164062 C 177.714844 194.582031 177.226562 195.027344 176.757812 195.492188 C 176.292969 195.957031 175.847656 196.445312 175.429688 196.953125 C 175.007812 197.464844 174.617188 197.992188 174.246094 198.539062 C 173.878906 199.089844 173.542969 199.652344 173.230469 200.234375 C 172.917969 200.816406 172.636719 201.410156 172.382812 202.019531 C 172.128906 202.628906 171.90625 203.246094 171.714844 203.878906 C 171.523438 204.507812 171.363281 205.148438 171.234375 205.792969 C 171.105469 206.441406 171.007812 207.089844 170.941406 207.746094 C 170.878906 208.402344 170.84375 209.058594 170.84375 209.71875 C 170.84375 210.378906 170.878906 211.035156 170.941406 211.691406 C 171.007812 212.347656 171.105469 212.996094 171.234375 213.644531 C 171.363281 214.289062 171.523438 214.929688 171.714844 215.558594 C 171.90625 216.1875 172.128906 216.808594 172.382812 217.417969 C 172.636719 218.027344 172.917969 218.621094 173.230469 219.203125 C 173.542969 219.785156 173.878906 220.347656 174.246094 220.894531 C 174.617188 221.445312 175.007812 221.972656 175.429688 222.480469 C 175.847656 222.992188 176.292969 223.480469 176.757812 223.945312 C 177.226562 224.410156 177.714844 224.851562 178.226562 225.269531 C 178.738281 225.6875 179.269531 226.082031 179.820312 226.445312 C 180.367188 226.8125 180.933594 227.152344 181.519531 227.460938 C 182.101562 227.773438 182.699219 228.054688 183.308594 228.304688 C 183.921875 228.558594 184.542969 228.78125 185.175781 228.972656 C 185.808594 229.164062 186.449219 229.324219 187.097656 229.453125 C 187.746094 229.578125 188.398438 229.675781 189.058594 229.742188 C 189.714844 229.804688 190.375 229.839844 191.035156 229.839844 C 191.699219 229.839844 192.355469 229.804688 193.015625 229.742188 C 193.671875 229.675781 194.328125 229.578125 194.976562 229.453125 C 195.625 229.324219 196.265625 229.164062 196.898438 228.972656 C 197.53125 228.78125 198.152344 228.558594 198.761719 228.304688 C 199.375 228.054688 199.972656 227.773438 200.554688 227.460938 C 201.136719 227.152344 201.703125 226.8125 202.253906 226.445312 C 202.804688 226.082031 203.335938 225.6875 203.84375 225.269531 C 204.355469 224.851562 204.847656 224.410156 205.3125 223.945312 C 205.78125 223.480469 206.226562 222.992188 206.644531 222.480469 C 207.0625 221.972656 207.457031 221.445312 207.824219 220.894531 C 208.191406 220.347656 208.53125 219.785156 208.84375 219.203125 C 209.15625 218.621094 209.4375 218.027344 209.691406 217.417969 C 209.945312 216.808594 210.164062 216.1875 210.359375 215.558594 C 210.550781 214.929688 210.710938 214.289062 210.839844 213.644531 C 210.96875 212.996094 211.066406 212.347656 211.128906 211.691406 C 211.195312 211.035156 211.226562 210.378906 211.226562 209.71875 Z M 211.226562 209.71875 " fill-opacity="1" fill-rule="nonzero"/><path fill="#000000" d="M 207.535156 261.542969 L 191.75 261.550781 C 191.640625 261.550781 191.550781 261.511719 191.472656 261.4375 C 191.398438 261.359375 191.359375 261.265625 191.359375 261.15625 L 191.371094 252.289062 C 191.371094 252.195312 191.40625 252.109375 191.476562 252.042969 C 191.542969 251.976562 191.625 251.941406 191.722656 251.941406 L 214.609375 251.933594 C 214.863281 251.933594 215.078125 252.027344 215.253906 252.21875 C 224.984375 262.386719 224.113281 278.148438 216.183594 288.957031 C 205.492188 303.503906 184.285156 305.988281 170.640625 294.085938 C 158.078125 283.128906 156.210938 265.210938 166.058594 251.769531 C 166.117188 251.691406 166.195312 251.652344 166.292969 251.652344 C 166.390625 251.652344 166.46875 251.691406 166.527344 251.769531 L 173.308594 261.175781 C 173.417969 261.328125 173.472656 261.5 173.476562 261.683594 C 173.476562 261.871094 173.421875 262.042969 173.316406 262.195312 C 168.636719 268.96875 170.984375 278.65625 176.390625 284.273438 C 186.5 294.789062 203.46875 291.589844 209.472656 278.617188 C 211.035156 275.238281 211.820312 270.351562 210.820312 266.871094 C 210.371094 265.316406 209.46875 263.640625 208.117188 261.839844 C 207.972656 261.644531 207.777344 261.542969 207.535156 261.542969 Z M 207.535156 261.542969 " fill-opacity="1" fill-rule="nonzero"/></svg>