<svg xmlns="http://www.w3.org/2000/svg" xmlns:xlink="http://www.w3.org/1999/xlink" width="500" zoomAndPan="magnify" viewBox="0 0 375 374.999991" height="500" preserveAspectRatio="xMidYMid meet" version="1.0"><defs><clipPath id="4802829b91"><path d="M 103 19.597656 L 235 19.597656 L 235 163 L 103 163 Z M 103 19.597656 " clip-rule="nonzero"/></clipPath><clipPath id="f4670c7bb9"><path d="M 41 108 L 308 108 L 308 337.597656 L 41 337.597656 Z M 41 108 " clip-rule="nonzero"/></clipPath><clipPath id="2ff9ad76c7"><path d="M 71 108 L 337.230469 108 L 337.230469 337.597656 L 71 337.597656 Z M 71 108 " clip-rule="nonzero"/></clipPath><clipPath id="5b5a70d918"><path d="M 136 19.597656 L 268 19.597656 L 268 163 L 136 163 Z M 136 19.597656 " clip-rule="nonzero"/></clipPath><clipPath id="40d35e8efb"><path d="M 136.082031 169.445312 L 304.359375 169.445312 L 304.359375 328.398438 L 136.082031 328.398438 Z M 136.082031 169.445312 " clip-rule="nonzero"/></clipPath><clipPath id="36a7748d27"><path d="M 214 178.546875 L 229.703125 178.546875 L 229.703125 194 L 214 194 Z M 214 178.546875 " clip-rule="nonzero"/></clipPath></defs><g clip-path="url(#4802829b91)"><path fill="#100f0f" d="M 226.734375 162.976562 C 222.601562 162.976562 219.246094 159.621094 219.246094 155.488281 L 219.246094 84.90625 C 219.246094 57.125 196.644531 34.523438 168.878906 34.523438 C 141.097656 34.523438 118.496094 57.125 118.496094 84.90625 L 118.496094 155.488281 C 118.496094 159.621094 115.144531 162.976562 111.027344 162.976562 C 106.875 162.976562 103.539062 159.621094 103.539062 155.488281 L 103.539062 84.90625 C 103.539062 48.875 132.847656 19.566406 168.878906 19.566406 C 204.914062 19.566406 234.222656 48.875 234.222656 84.90625 L 234.222656 155.488281 C 234.222656 159.621094 230.882812 162.976562 226.734375 162.976562 " fill-opacity="1" fill-rule="nonzero"/></g><g clip-path="url(#f4670c7bb9)"><path fill="#8fff00" d="M 307.378906 319.347656 C 307.378906 329.347656 299.1875 337.523438 289.191406 337.523438 L 59.675781 337.523438 C 49.675781 337.523438 41.503906 329.347656 41.503906 319.347656 L 41.707031 126.585938 C 41.707031 116.585938 49.894531 108.398438 59.894531 108.398438 L 284.855469 108.398438 C 294.851562 108.398438 303.042969 116.585938 303.042969 126.585938 L 307.378906 319.347656 " fill-opacity="1" fill-rule="nonzero"/></g><g clip-path="url(#2ff9ad76c7)"><path fill="#8fff00" d="M 337.125 319.347656 C 337.125 329.347656 328.949219 337.523438 318.953125 337.523438 L 89.4375 337.523438 C 79.4375 337.523438 71.25 329.347656 71.25 319.347656 L 71.46875 126.585938 C 71.46875 116.585938 79.640625 108.398438 89.640625 108.398438 L 314.617188 108.398438 C 324.613281 108.398438 332.804688 116.585938 332.804688 126.585938 L 337.125 319.347656 " fill-opacity="1" fill-rule="nonzero"/></g><path fill="#8fff00" d="M 160.597656 155.488281 C 160.597656 165.082031 152.8125 172.867188 143.222656 172.867188 C 133.613281 172.867188 125.828125 165.082031 125.828125 155.488281 C 125.828125 145.878906 133.613281 138.113281 143.222656 138.113281 C 152.8125 138.113281 160.597656 145.878906 160.597656 155.488281 " fill-opacity="1" fill-rule="nonzero"/><path fill="#8fff00" d="M 278.425781 155.488281 C 278.425781 165.082031 270.644531 172.867188 261.050781 172.867188 C 251.441406 172.867188 243.660156 165.082031 243.660156 155.488281 C 243.660156 145.878906 251.441406 138.113281 261.050781 138.113281 C 270.644531 138.113281 278.425781 145.878906 278.425781 155.488281 " fill-opacity="1" fill-rule="nonzero"/><g clip-path="url(#5b5a70d918)"><path fill="#141515" d="M 259.992188 162.976562 C 255.855469 162.976562 252.503906 159.621094 252.503906 155.488281 L 252.503906 84.90625 C 252.503906 57.125 229.902344 34.523438 202.136719 34.523438 C 174.355469 34.523438 151.753906 57.125 151.753906 84.90625 L 151.753906 155.488281 C 151.753906 159.621094 148.398438 162.976562 144.265625 162.976562 C 140.132812 162.976562 136.777344 159.621094 136.777344 155.488281 L 136.777344 84.90625 C 136.777344 48.875 166.089844 19.566406 202.136719 19.566406 C 238.167969 19.566406 267.476562 48.875 267.476562 84.90625 L 267.476562 155.488281 C 267.476562 159.621094 264.125 162.976562 259.992188 162.976562 " fill-opacity="1" fill-rule="nonzero"/></g><path fill="#ffffff" d="M 274.871094 214.261719 L 272 214.125 C 267.226562 213.90625 263.203125 217.195312 263 221.5 L 261.863281 245.757812 L 261.847656 245.726562 L 258.679688 240.109375 L 230.074219 189.445312 C 228.074219 185.90625 223.582031 184.65625 220.042969 186.65625 L 217.90625 187.855469 C 214.363281 189.867188 213.117188 194.34375 215.113281 197.886719 L 228.808594 222.15625 C 227.09375 221.78125 225.253906 222 223.613281 222.921875 L 221.460938 224.121094 C 217.9375 226.132812 216.671875 230.609375 218.6875 234.152344 C 216.671875 230.609375 212.195312 229.363281 208.65625 231.359375 L 206.503906 232.574219 C 202.976562 234.574219 201.714844 239.066406 203.710938 242.605469 C 201.714844 239.066406 197.238281 237.816406 193.683594 239.8125 L 191.558594 241.015625 C 188.019531 243.011719 186.757812 247.503906 188.753906 251.042969 L 200.964844 272.679688 C 200.964844 272.679688 217.09375 302.175781 223.863281 310.316406 C 230.136719 317.914062 231.492188 316.011719 234.253906 318.757812 C 238.324219 322.8125 242.222656 326.199219 245.765625 324.199219 L 279.425781 305.203125 C 282.980469 303.207031 282.84375 297.855469 280.734375 292.519531 C 279.972656 290.585938 278.941406 285.15625 279.457031 284.269531 C 279.457031 284.269531 280.457031 280.664062 280.410156 280.027344 L 283.121094 222.453125 C 283.324219 218.148438 279.628906 214.480469 274.871094 214.261719 " fill-opacity="1" fill-rule="nonzero"/><g clip-path="url(#40d35e8efb)"><path fill="#8fff00" d="M 136.082031 169.445312 L 304.347656 169.445312 L 304.347656 328.398438 L 136.082031 328.398438 Z M 136.082031 169.445312 " fill-opacity="1" fill-rule="nonzero"/></g><g clip-path="url(#36a7748d27)"><path fill="#000000" d="M 229.703125 186.101562 C 229.703125 186.589844 229.65625 187.074219 229.5625 187.550781 C 229.464844 188.027344 229.324219 188.492188 229.136719 188.941406 C 228.949219 189.394531 228.722656 189.820312 228.449219 190.226562 C 228.175781 190.632812 227.867188 191.007812 227.523438 191.351562 C 227.175781 191.695312 226.800781 192.003906 226.394531 192.273438 C 225.988281 192.546875 225.558594 192.773438 225.105469 192.960938 C 224.652344 193.148438 224.1875 193.289062 223.707031 193.382812 C 223.230469 193.476562 222.746094 193.527344 222.253906 193.527344 C 221.765625 193.527344 221.28125 193.476562 220.800781 193.382812 C 220.324219 193.289062 219.855469 193.148438 219.40625 192.960938 C 218.953125 192.773438 218.523438 192.546875 218.117188 192.273438 C 217.710938 192.003906 217.335938 191.695312 216.988281 191.351562 C 216.644531 191.007812 216.332031 190.632812 216.0625 190.226562 C 215.789062 189.820312 215.5625 189.394531 215.375 188.941406 C 215.1875 188.492188 215.046875 188.027344 214.949219 187.550781 C 214.855469 187.074219 214.808594 186.589844 214.808594 186.101562 C 214.808594 185.617188 214.855469 185.132812 214.949219 184.65625 C 215.046875 184.175781 215.1875 183.710938 215.375 183.261719 C 215.5625 182.8125 215.789062 182.382812 216.0625 181.980469 C 216.332031 181.574219 216.644531 181.199219 216.988281 180.855469 C 217.335938 180.507812 217.710938 180.203125 218.117188 179.929688 C 218.523438 179.660156 218.953125 179.433594 219.40625 179.246094 C 219.855469 179.058594 220.324219 178.917969 220.800781 178.824219 C 221.28125 178.726562 221.765625 178.679688 222.253906 178.679688 C 222.746094 178.679688 223.230469 178.726562 223.707031 178.824219 C 224.1875 178.917969 224.652344 179.058594 225.105469 179.246094 C 225.558594 179.433594 225.988281 179.660156 226.394531 179.929688 C 226.800781 180.203125 227.175781 180.507812 227.523438 180.855469 C 227.867188 181.199219 228.175781 181.574219 228.449219 181.980469 C 228.722656 182.382812 228.949219 182.8125 229.136719 183.261719 C 229.324219 183.710938 229.464844 184.175781 229.5625 184.65625 C 229.65625 185.132812 229.703125 185.617188 229.703125 186.101562 Z M 229.703125 186.101562 " fill-opacity="1" fill-rule="nonzero"/></g><path fill="#000000" d="M 222.328125 217.21875 C 222.328125 218.238281 222.277344 219.257812 222.175781 220.273438 C 222.078125 221.289062 221.925781 222.300781 221.726562 223.300781 C 221.527344 224.304688 221.277344 225.292969 220.980469 226.269531 C 220.683594 227.246094 220.339844 228.207031 219.945312 229.152344 C 219.554688 230.09375 219.117188 231.015625 218.632812 231.917969 C 218.148438 232.816406 217.625 233.691406 217.054688 234.542969 C 216.484375 235.390625 215.875 236.210938 215.226562 237 C 214.574219 237.789062 213.886719 238.542969 213.164062 239.265625 C 212.4375 239.988281 211.679688 240.675781 210.886719 241.320312 C 210.09375 241.96875 209.273438 242.578125 208.421875 243.144531 C 207.570312 243.710938 206.691406 244.234375 205.789062 244.71875 C 204.882812 245.199219 203.957031 245.636719 203.011719 246.027344 C 202.0625 246.417969 201.101562 246.761719 200.121094 247.058594 C 199.140625 247.351562 198.144531 247.601562 197.140625 247.800781 C 196.136719 248 195.125 248.148438 194.101562 248.25 C 193.082031 248.347656 192.0625 248.398438 191.035156 248.398438 C 190.011719 248.398438 188.988281 248.347656 187.96875 248.25 C 186.949219 248.148438 185.9375 248 184.929688 247.800781 C 183.925781 247.601562 182.933594 247.351562 181.953125 247.058594 C 180.972656 246.761719 180.007812 246.417969 179.0625 246.027344 C 178.113281 245.636719 177.1875 245.199219 176.285156 244.71875 C 175.382812 244.234375 174.503906 243.710938 173.652344 243.144531 C 172.800781 242.578125 171.976562 241.96875 171.183594 241.320312 C 170.394531 240.675781 169.632812 239.988281 168.910156 239.265625 C 168.183594 238.542969 167.496094 237.789062 166.847656 237 C 166.195312 236.210938 165.585938 235.390625 165.019531 234.542969 C 164.449219 233.691406 163.921875 232.816406 163.4375 231.917969 C 162.957031 231.015625 162.519531 230.09375 162.125 229.152344 C 161.734375 228.207031 161.390625 227.246094 161.089844 226.269531 C 160.792969 225.292969 160.546875 224.304688 160.34375 223.300781 C 160.144531 222.300781 159.996094 221.289062 159.894531 220.273438 C 159.792969 219.257812 159.746094 218.238281 159.746094 217.21875 C 159.746094 216.195312 159.792969 215.179688 159.894531 214.160156 C 159.996094 213.144531 160.144531 212.136719 160.34375 211.136719 C 160.546875 210.132812 160.792969 209.144531 161.089844 208.167969 C 161.390625 207.191406 161.734375 206.230469 162.125 205.285156 C 162.519531 204.34375 162.957031 203.421875 163.4375 202.519531 C 163.921875 201.617188 164.449219 200.746094 165.019531 199.894531 C 165.585938 199.046875 166.195312 198.226562 166.847656 197.4375 C 167.496094 196.648438 168.183594 195.890625 168.910156 195.171875 C 169.632812 194.449219 170.394531 193.761719 171.183594 193.113281 C 171.976562 192.46875 172.800781 191.859375 173.652344 191.292969 C 174.503906 190.726562 175.382812 190.199219 176.285156 189.71875 C 177.1875 189.238281 178.113281 188.800781 179.0625 188.410156 C 180.007812 188.019531 180.972656 187.675781 181.953125 187.378906 C 182.933594 187.082031 183.925781 186.835938 184.929688 186.636719 C 185.9375 186.4375 186.949219 186.289062 187.96875 186.1875 C 188.988281 186.085938 190.011719 186.039062 191.035156 186.039062 C 192.0625 186.039062 193.082031 186.085938 194.101562 186.1875 C 195.125 186.289062 196.136719 186.4375 197.140625 186.636719 C 198.144531 186.835938 199.140625 187.082031 200.121094 187.378906 C 201.101562 187.675781 202.0625 188.019531 203.011719 188.410156 C 203.957031 188.800781 204.882812 189.238281 205.789062 189.71875 C 206.691406 190.199219 207.570312 190.726562 208.421875 191.292969 C 209.273438 191.859375 210.09375 192.46875 210.886719 193.113281 C 211.679688 193.761719 212.4375 194.449219 213.164062 195.171875 C 213.886719 195.890625 214.574219 196.648438 215.226562 197.4375 C 215.875 198.226562 216.484375 199.046875 217.054688 199.894531 C 217.625 200.746094 218.148438 201.617188 218.632812 202.519531 C 219.117188 203.421875 219.554688 204.34375 219.945312 205.285156 C 220.339844 206.230469 220.683594 207.191406 220.980469 208.167969 C 221.277344 209.144531 221.527344 210.132812 221.726562 211.136719 C 221.925781 212.136719 222.078125 213.144531 222.175781 214.160156 C 222.277344 215.179688 222.328125 216.195312 222.328125 217.21875 Z M 211.226562 217.21875 C 211.226562 216.558594 211.195312 215.902344 211.128906 215.246094 C 211.066406 214.589844 210.96875 213.941406 210.839844 213.292969 C 210.710938 212.648438 210.550781 212.007812 210.359375 211.378906 C 210.164062 210.746094 209.945312 210.128906 209.691406 209.519531 C 209.4375 208.910156 209.15625 208.316406 208.84375 207.734375 C 208.53125 207.152344 208.191406 206.589844 207.824219 206.039062 C 207.457031 205.492188 207.0625 204.964844 206.644531 204.453125 C 206.226562 203.945312 205.78125 203.457031 205.3125 202.992188 C 204.847656 202.527344 204.355469 202.082031 203.84375 201.664062 C 203.335938 201.246094 202.804688 200.855469 202.253906 200.488281 C 201.703125 200.125 201.136719 199.785156 200.554688 199.472656 C 199.972656 199.164062 199.375 198.882812 198.761719 198.628906 C 198.152344 198.378906 197.53125 198.15625 196.898438 197.964844 C 196.265625 197.773438 195.625 197.613281 194.976562 197.484375 C 194.328125 197.355469 193.671875 197.261719 193.015625 197.195312 C 192.355469 197.132812 191.699219 197.097656 191.035156 197.097656 C 190.375 197.097656 189.714844 197.132812 189.058594 197.195312 C 188.398438 197.261719 187.746094 197.355469 187.097656 197.484375 C 186.449219 197.613281 185.808594 197.773438 185.175781 197.964844 C 184.542969 198.15625 183.921875 198.378906 183.308594 198.628906 C 182.699219 198.882812 182.101562 199.164062 181.519531 199.472656 C 180.933594 199.785156 180.367188 200.125 179.820312 200.488281 C 179.269531 200.855469 178.738281 201.246094 178.226562 201.664062 C 177.714844 202.082031 177.226562 202.527344 176.757812 202.992188 C 176.292969 203.457031 175.847656 203.945312 175.429688 204.453125 C 175.007812 204.964844 174.617188 205.492188 174.246094 206.039062 C 173.878906 206.589844 173.542969 207.152344 173.230469 207.734375 C 172.917969 208.316406 172.636719 208.910156 172.382812 209.519531 C 172.128906 210.128906 171.90625 210.746094 171.714844 211.378906 C 171.523438 212.007812 171.363281 212.648438 171.234375 213.292969 C 171.105469 213.941406 171.007812 214.589844 170.941406 215.246094 C 170.878906 215.902344 170.84375 216.558594 170.84375 217.21875 C 170.84375 217.878906 170.878906 218.535156 170.941406 219.191406 C 171.007812 219.847656 171.105469 220.496094 171.234375 221.144531 C 171.363281 221.789062 171.523438 222.429688 171.714844 223.058594 C 171.90625 223.6875 172.128906 224.308594 172.382812 224.917969 C 172.636719 225.527344 172.917969 226.121094 173.230469 226.703125 C 173.542969 227.285156 173.878906 227.847656 174.246094 228.394531 C 174.617188 228.945312 175.007812 229.472656 175.429688 229.980469 C 175.847656 230.492188 176.292969 230.980469 176.757812 231.445312 C 177.226562 231.910156 177.714844 232.351562 178.226562 232.769531 C 178.738281 233.1875 179.269531 233.582031 179.820312 233.945312 C 180.367188 234.3125 180.933594 234.652344 181.519531 234.960938 C 182.101562 235.273438 182.699219 235.554688 183.308594 235.804688 C 183.921875 236.058594 184.542969 236.28125 185.175781 236.472656 C 185.808594 236.664062 186.449219 236.824219 187.097656 236.953125 C 187.746094 237.078125 188.398438 237.175781 189.058594 237.242188 C 189.714844 237.304688 190.375 237.339844 191.035156 237.339844 C 191.699219 237.339844 192.355469 237.304688 193.015625 237.242188 C 193.671875 237.175781 194.328125 237.078125 194.976562 236.953125 C 195.625 236.824219 196.265625 236.664062 196.898438 236.472656 C 197.53125 236.28125 198.152344 236.058594 198.761719 235.804688 C 199.375 235.554688 199.972656 235.273438 200.554688 234.960938 C 201.136719 234.652344 201.703125 234.3125 202.253906 233.945312 C 202.804688 233.582031 203.335938 233.1875 203.84375 232.769531 C 204.355469 232.351562 204.847656 231.910156 205.3125 231.445312 C 205.78125 230.980469 206.226562 230.492188 206.644531 229.980469 C 207.0625 229.472656 207.457031 228.945312 207.824219 228.394531 C 208.191406 227.847656 208.53125 227.285156 208.84375 226.703125 C 209.15625 226.121094 209.4375 225.527344 209.691406 224.917969 C 209.945312 224.308594 210.164062 223.6875 210.359375 223.058594 C 210.550781 222.429688 210.710938 221.789062 210.839844 221.144531 C 210.96875 220.496094 211.066406 219.847656 211.128906 219.191406 C 211.195312 218.535156 211.226562 217.878906 211.226562 217.21875 Z M 211.226562 217.21875 " fill-opacity="1" fill-rule="nonzero"/><path fill="#000000" d="M 207.535156 269.042969 L 191.75 269.050781 C 191.640625 269.050781 191.550781 269.011719 191.472656 268.9375 C 191.398438 268.859375 191.359375 268.765625 191.359375 268.65625 L 191.371094 259.789062 C 191.371094 259.695312 191.40625 259.609375 191.476562 259.542969 C 191.542969 259.476562 191.625 259.441406 191.722656 259.441406 L 214.609375 259.433594 C 214.863281 259.433594 215.078125 259.527344 215.253906 259.71875 C 224.984375 269.886719 224.113281 285.648438 216.183594 296.457031 C 205.492188 311.003906 184.285156 313.488281 170.640625 301.585938 C 158.078125 290.628906 156.210938 272.710938 166.058594 259.269531 C 166.117188 259.191406 166.195312 259.152344 166.292969 259.152344 C 166.390625 259.152344 166.46875 259.191406 166.527344 259.269531 L 173.308594 268.675781 C 173.417969 268.828125 173.472656 269 173.476562 269.183594 C 173.476562 269.371094 173.421875 269.542969 173.316406 269.695312 C 168.636719 276.46875 170.984375 286.15625 176.390625 291.773438 C 186.5 302.289062 203.46875 299.089844 209.472656 286.117188 C 211.035156 282.738281 211.820312 277.851562 210.820312 274.371094 C 210.371094 272.816406 209.46875 271.140625 208.117188 269.339844 C 207.972656 269.144531 207.777344 269.042969 207.535156 269.042969 Z M 207.535156 269.042969 " fill-opacity="1" fill-rule="nonzero"/></svg>