<svg xmlns="http://www.w3.org/2000/svg" xmlns:xlink="http://www.w3.org/1999/xlink" width="500" zoomAndPan="magnify" viewBox="0 0 375 374.999991" height="500" preserveAspectRatio="xMidYMid meet" version="1.0"><defs><clipPath id="0aa1ac135f"><path d="M 103 19.597656 L 235 19.597656 L 235 163 L 103 163 Z M 103 19.597656 " clip-rule="nonzero"/></clipPath><clipPath id="474f3397df"><path d="M 41 108 L 308 108 L 308 337.597656 L 41 337.597656 Z M 41 108 " clip-rule="nonzero"/></clipPath><clipPath id="f4a743f815"><path d="M 71 108 L 337.230469 108 L 337.230469 337.597656 L 71 337.597656 Z M 71 108 " clip-rule="nonzero"/></clipPath><clipPath id="be03bbe95a"><path d="M 136 19.597656 L 268 19.597656 L 268 163 L 136 163 Z M 136 19.597656 " clip-rule="nonzero"/></clipPath><clipPath id="77851b9976"><path d="M 136.082031 173.296875 L 304.359375 173.296875 L 304.359375 330.648438 L 136.082031 330.648438 Z M 136.082031 173.296875 " clip-rule="nonzero"/></clipPath><clipPath id="f5771e9d14"><path d="M 221 174.046875 L 236.453125 174.046875 L 236.453125 190 L 221 190 Z M 221 174.046875 " clip-rule="nonzero"/></clipPath></defs><g clip-path="url(#0aa1ac135f)"><path fill="#000000" d="M 226.734375 162.976562 C 222.601562 162.976562 219.246094 159.621094 219.246094 155.488281 L 219.246094 84.90625 C 219.246094 57.125 196.644531 34.523438 168.878906 34.523438 C 141.097656 34.523438 118.496094 57.125 118.496094 84.90625 L 118.496094 155.488281 C 118.496094 159.621094 115.144531 162.976562 111.027344 162.976562 C 106.875 162.976562 103.539062 159.621094 103.539062 155.488281 L 103.539062 84.90625 C 103.539062 48.875 132.847656 19.566406 168.878906 19.566406 C 204.914062 19.566406 234.222656 48.875 234.222656 84.90625 L 234.222656 155.488281 C 234.222656 159.621094 230.882812 162.976562 226.734375 162.976562 " fill-opacity="1" fill-rule="nonzero"/></g><g clip-path="url(#474f3397df)"><path fill="#577d27" d="M 307.378906 319.347656 C 307.378906 329.347656 299.1875 337.523438 289.191406 337.523438 L 59.675781 337.523438 C 49.675781 337.523438 41.503906 329.347656 41.503906 319.347656 L 41.707031 126.585938 C 41.707031 116.585938 49.894531 108.398438 59.894531 108.398438 L 284.855469 108.398438 C 294.851562 108.398438 303.042969 116.585938 303.042969 126.585938 L 307.378906 319.347656 " fill-opacity="1" fill-rule="nonzero"/></g><g clip-path="url(#f4a743f815)"><path fill="#8fff00" d="M 337.125 319.347656 C 337.125 329.347656 328.949219 337.523438 318.953125 337.523438 L 89.4375 337.523438 C 79.4375 337.523438 71.25 329.347656 71.25 319.347656 L 71.46875 126.585938 C 71.46875 116.585938 79.640625 108.398438 89.640625 108.398438 L 314.617188 108.398438 C 324.613281 108.398438 332.804688 116.585938 332.804688 126.585938 L 337.125 319.347656 " fill-opacity="1" fill-rule="nonzero"/></g><path fill="#577d27" d="M 160.597656 155.488281 C 160.597656 165.082031 152.8125 172.867188 143.222656 172.867188 C 133.613281 172.867188 125.828125 165.082031 125.828125 155.488281 C 125.828125 145.878906 133.613281 138.113281 143.222656 138.113281 C 152.8125 138.113281 160.597656 145.878906 160.597656 155.488281 " fill-opacity="1" fill-rule="nonzero"/><path fill="#577d27" d="M 278.425781 155.488281 C 278.425781 165.082031 270.644531 172.867188 261.050781 172.867188 C 251.441406 172.867188 243.660156 165.082031 243.660156 155.488281 C 243.660156 145.878906 251.441406 138.113281 261.050781 138.113281 C 270.644531 138.113281 278.425781 145.878906 278.425781 155.488281 " fill-opacity="1" fill-rule="nonzero"/><g clip-path="url(#be03bbe95a)"><path fill="#141515" d="M 259.992188 162.976562 C 255.855469 162.976562 252.503906 159.621094 252.503906 155.488281 L 252.503906 84.90625 C 252.503906 57.125 229.902344 34.523438 202.136719 34.523438 C 174.355469 34.523438 151.753906 57.125 151.753906 84.90625 L 151.753906 155.488281 C 151.753906 159.621094 148.398438 162.976562 144.265625 162.976562 C 140.132812 162.976562 136.777344 159.621094 136.777344 155.488281 L 136.777344 84.90625 C 136.777344 48.875 166.089844 19.566406 202.136719 19.566406 C 238.167969 19.566406 267.476562 48.875 267.476562 84.90625 L 267.476562 155.488281 C 267.476562 159.621094 264.125 162.976562 259.992188 162.976562 " fill-opacity="1" fill-rule="nonzero"/></g><path fill="#ffffff" d="M 274.871094 214.261719 L 272 214.125 C 267.226562 213.90625 263.203125 217.195312 263 221.5 L 261.863281 245.757812 L 261.847656 245.726562 L 258.679688 240.109375 L 230.074219 189.445312 C 228.074219 185.90625 223.582031 184.65625 220.042969 186.65625 L 217.90625 187.855469 C 214.363281 189.867188 213.117188 194.34375 215.113281 197.886719 L 228.808594 222.15625 C 227.09375 221.78125 225.253906 222 223.613281 222.921875 L 221.460938 224.121094 C 217.9375 226.132812 216.671875 230.609375 218.6875 234.152344 C 216.671875 230.609375 212.195312 229.363281 208.65625 231.359375 L 206.503906 232.574219 C 202.976562 234.574219 201.714844 239.066406 203.710938 242.605469 C 201.714844 239.066406 197.238281 237.816406 193.683594 239.8125 L 191.558594 241.015625 C 188.019531 243.011719 186.757812 247.503906 188.753906 251.042969 L 200.964844 272.679688 C 200.964844 272.679688 217.09375 302.175781 223.863281 310.316406 C 230.136719 317.914062 231.492188 316.011719 234.253906 318.757812 C 238.324219 322.8125 242.222656 326.199219 245.765625 324.199219 L 279.425781 305.203125 C 282.980469 303.207031 282.84375 297.855469 280.734375 292.519531 C 279.972656 290.585938 278.941406 285.15625 279.457031 284.269531 C 279.457031 284.269531 280.457031 280.664062 280.410156 280.027344 L 283.121094 222.453125 C 283.324219 218.148438 279.628906 214.480469 274.871094 214.261719 " fill-opacity="1" fill-rule="nonzero"/><g clip-path="url(#77851b9976)"><path fill="#8fff00" d="M 136.082031 173.296875 L 304.496094 173.296875 L 304.496094 330.648438 L 136.082031 330.648438 Z M 136.082031 173.296875 " fill-opacity="1" fill-rule="nonzero"/></g><g clip-path="url(#f5771e9d14)"><path fill="#000000" d="M 236.453125 181.601562 C 236.453125 182.089844 236.40625 182.574219 236.3125 183.050781 C 236.214844 183.527344 236.074219 183.992188 235.886719 184.441406 C 235.699219 184.894531 235.472656 185.320312 235.199219 185.726562 C 234.925781 186.132812 234.617188 186.507812 234.273438 186.851562 C 233.925781 187.195312 233.550781 187.503906 233.144531 187.773438 C 232.738281 188.046875 232.308594 188.273438 231.855469 188.460938 C 231.402344 188.648438 230.9375 188.789062 230.457031 188.882812 C 229.980469 188.976562 229.496094 189.027344 229.003906 189.027344 C 228.515625 189.027344 228.03125 188.976562 227.550781 188.882812 C 227.074219 188.789062 226.605469 188.648438 226.15625 188.460938 C 225.703125 188.273438 225.273438 188.046875 224.867188 187.773438 C 224.460938 187.503906 224.085938 187.195312 223.738281 186.851562 C 223.394531 186.507812 223.082031 186.132812 222.8125 185.726562 C 222.539062 185.320312 222.3125 184.894531 222.125 184.441406 C 221.9375 183.992188 221.796875 183.527344 221.699219 183.050781 C 221.605469 182.574219 221.558594 182.089844 221.558594 181.601562 C 221.558594 181.117188 221.605469 180.632812 221.699219 180.15625 C 221.796875 179.675781 221.9375 179.210938 222.125 178.761719 C 222.3125 178.3125 222.539062 177.882812 222.8125 177.480469 C 223.082031 177.074219 223.394531 176.699219 223.738281 176.355469 C 224.085938 176.007812 224.460938 175.703125 224.867188 175.429688 C 225.273438 175.160156 225.703125 174.933594 226.15625 174.746094 C 226.605469 174.558594 227.074219 174.417969 227.550781 174.324219 C 228.03125 174.226562 228.515625 174.179688 229.003906 174.179688 C 229.496094 174.179688 229.980469 174.226562 230.457031 174.324219 C 230.9375 174.417969 231.402344 174.558594 231.855469 174.746094 C 232.308594 174.933594 232.738281 175.160156 233.144531 175.429688 C 233.550781 175.703125 233.925781 176.007812 234.273438 176.355469 C 234.617188 176.699219 234.925781 177.074219 235.199219 177.480469 C 235.472656 177.882812 235.699219 178.3125 235.886719 178.761719 C 236.074219 179.210938 236.214844 179.675781 236.3125 180.15625 C 236.40625 180.632812 236.453125 181.117188 236.453125 181.601562 Z M 236.453125 181.601562 " fill-opacity="1" fill-rule="nonzero"/></g><path fill="#000000" d="M 229.078125 212.71875 C 229.078125 213.738281 229.027344 214.757812 228.925781 215.773438 C 228.828125 216.789062 228.675781 217.800781 228.476562 218.800781 C 228.277344 219.804688 228.027344 220.792969 227.730469 221.769531 C 227.433594 222.746094 227.089844 223.707031 226.695312 224.652344 C 226.304688 225.59375 225.867188 226.515625 225.382812 227.417969 C 224.898438 228.316406 224.375 229.191406 223.804688 230.042969 C 223.234375 230.890625 222.625 231.710938 221.976562 232.5 C 221.324219 233.289062 220.636719 234.042969 219.914062 234.765625 C 219.1875 235.488281 218.429688 236.175781 217.636719 236.820312 C 216.84375 237.46875 216.023438 238.078125 215.171875 238.644531 C 214.320312 239.210938 213.441406 239.734375 212.539062 240.21875 C 211.632812 240.699219 210.707031 241.136719 209.761719 241.527344 C 208.8125 241.917969 207.851562 242.261719 206.871094 242.558594 C 205.890625 242.851562 204.894531 243.101562 203.890625 243.300781 C 202.886719 243.5 201.875 243.648438 200.851562 243.75 C 199.832031 243.847656 198.8125 243.898438 197.785156 243.898438 C 196.761719 243.898438 195.738281 243.847656 194.71875 243.75 C 193.699219 243.648438 192.6875 243.5 191.679688 243.300781 C 190.675781 243.101562 189.683594 242.851562 188.703125 242.558594 C 187.722656 242.261719 186.757812 241.917969 185.8125 241.527344 C 184.863281 241.136719 183.9375 240.699219 183.035156 240.21875 C 182.132812 239.734375 181.253906 239.210938 180.402344 238.644531 C 179.550781 238.078125 178.726562 237.46875 177.933594 236.820312 C 177.144531 236.175781 176.382812 235.488281 175.660156 234.765625 C 174.933594 234.042969 174.246094 233.289062 173.597656 232.5 C 172.945312 231.710938 172.335938 230.890625 171.769531 230.042969 C 171.199219 229.191406 170.671875 228.316406 170.1875 227.417969 C 169.707031 226.515625 169.269531 225.59375 168.875 224.652344 C 168.484375 223.707031 168.140625 222.746094 167.839844 221.769531 C 167.542969 220.792969 167.296875 219.804688 167.09375 218.800781 C 166.894531 217.800781 166.746094 216.789062 166.644531 215.773438 C 166.542969 214.757812 166.496094 213.738281 166.496094 212.71875 C 166.496094 211.695312 166.542969 210.679688 166.644531 209.660156 C 166.746094 208.644531 166.894531 207.636719 167.09375 206.636719 C 167.296875 205.632812 167.542969 204.644531 167.839844 203.667969 C 168.140625 202.691406 168.484375 201.730469 168.875 200.785156 C 169.269531 199.84375 169.707031 198.921875 170.1875 198.019531 C 170.671875 197.117188 171.199219 196.246094 171.769531 195.394531 C 172.335938 194.546875 172.945312 193.726562 173.597656 192.9375 C 174.246094 192.148438 174.933594 191.390625 175.660156 190.671875 C 176.382812 189.949219 177.144531 189.261719 177.933594 188.613281 C 178.726562 187.96875 179.550781 187.359375 180.402344 186.792969 C 181.253906 186.226562 182.132812 185.699219 183.035156 185.21875 C 183.9375 184.738281 184.863281 184.300781 185.8125 183.910156 C 186.757812 183.519531 187.722656 183.175781 188.703125 182.878906 C 189.683594 182.582031 190.675781 182.335938 191.679688 182.136719 C 192.6875 181.9375 193.699219 181.789062 194.71875 181.6875 C 195.738281 181.585938 196.761719 181.539062 197.785156 181.539062 C 198.8125 181.539062 199.832031 181.585938 200.851562 181.6875 C 201.875 181.789062 202.886719 181.9375 203.890625 182.136719 C 204.894531 182.335938 205.890625 182.582031 206.871094 182.878906 C 207.851562 183.175781 208.8125 183.519531 209.761719 183.910156 C 210.707031 184.300781 211.632812 184.738281 212.539062 185.21875 C 213.441406 185.699219 214.320312 186.226562 215.171875 186.792969 C 216.023438 187.359375 216.84375 187.96875 217.636719 188.613281 C 218.429688 189.261719 219.1875 189.949219 219.914062 190.671875 C 220.636719 191.390625 221.324219 192.148438 221.976562 192.9375 C 222.625 193.726562 223.234375 194.546875 223.804688 195.394531 C 224.375 196.246094 224.898438 197.117188 225.382812 198.019531 C 225.867188 198.921875 226.304688 199.84375 226.695312 200.785156 C 227.089844 201.730469 227.433594 202.691406 227.730469 203.667969 C 228.027344 204.644531 228.277344 205.632812 228.476562 206.636719 C 228.675781 207.636719 228.828125 208.644531 228.925781 209.660156 C 229.027344 210.679688 229.078125 211.695312 229.078125 212.71875 Z M 217.976562 212.71875 C 217.976562 212.058594 217.945312 211.402344 217.878906 210.746094 C 217.816406 210.089844 217.71875 209.441406 217.589844 208.792969 C 217.460938 208.148438 217.300781 207.507812 217.109375 206.878906 C 216.914062 206.246094 216.695312 205.628906 216.441406 205.019531 C 216.1875 204.410156 215.90625 203.816406 215.59375 203.234375 C 215.28125 202.652344 214.941406 202.089844 214.574219 201.539062 C 214.207031 200.992188 213.8125 200.464844 213.394531 199.953125 C 212.976562 199.445312 212.53125 198.957031 212.0625 198.492188 C 211.597656 198.027344 211.105469 197.582031 210.59375 197.164062 C 210.085938 196.746094 209.554688 196.355469 209.003906 195.988281 C 208.453125 195.625 207.886719 195.285156 207.304688 194.972656 C 206.722656 194.664062 206.125 194.382812 205.511719 194.128906 C 204.902344 193.878906 204.28125 193.65625 203.648438 193.464844 C 203.015625 193.273438 202.375 193.113281 201.726562 192.984375 C 201.078125 192.855469 200.421875 192.761719 199.765625 192.695312 C 199.105469 192.632812 198.449219 192.597656 197.785156 192.597656 C 197.125 192.597656 196.464844 192.632812 195.808594 192.695312 C 195.148438 192.761719 194.496094 192.855469 193.847656 192.984375 C 193.199219 193.113281 192.558594 193.273438 191.925781 193.464844 C 191.292969 193.65625 190.671875 193.878906 190.058594 194.128906 C 189.449219 194.382812 188.851562 194.664062 188.269531 194.972656 C 187.683594 195.285156 187.117188 195.625 186.570312 195.988281 C 186.019531 196.355469 185.488281 196.746094 184.976562 197.164062 C 184.464844 197.582031 183.976562 198.027344 183.507812 198.492188 C 183.042969 198.957031 182.597656 199.445312 182.179688 199.953125 C 181.757812 200.464844 181.367188 200.992188 180.996094 201.539062 C 180.628906 202.089844 180.292969 202.652344 179.980469 203.234375 C 179.667969 203.816406 179.386719 204.410156 179.132812 205.019531 C 178.878906 205.628906 178.65625 206.246094 178.464844 206.878906 C 178.273438 207.507812 178.113281 208.148438 177.984375 208.792969 C 177.855469 209.441406 177.757812 210.089844 177.691406 210.746094 C 177.628906 211.402344 177.59375 212.058594 177.59375 212.71875 C 177.59375 213.378906 177.628906 214.035156 177.691406 214.691406 C 177.757812 215.347656 177.855469 215.996094 177.984375 216.644531 C 178.113281 217.289062 178.273438 217.929688 178.464844 218.558594 C 178.65625 219.1875 178.878906 219.808594 179.132812 220.417969 C 179.386719 221.027344 179.667969 221.621094 179.980469 222.203125 C 180.292969 222.785156 180.628906 223.347656 180.996094 223.894531 C 181.367188 224.445312 181.757812 224.972656 182.179688 225.480469 C 182.597656 225.992188 183.042969 226.480469 183.507812 226.945312 C 183.976562 227.410156 184.464844 227.851562 184.976562 228.269531 C 185.488281 228.6875 186.019531 229.082031 186.570312 229.445312 C 187.117188 229.8125 187.683594 230.152344 188.269531 230.460938 C 188.851562 230.773438 189.449219 231.054688 190.058594 231.304688 C 190.671875 231.558594 191.292969 231.78125 191.925781 231.972656 C 192.558594 232.164062 193.199219 232.324219 193.847656 232.453125 C 194.496094 232.578125 195.148438 232.675781 195.808594 232.742188 C 196.464844 232.804688 197.125 232.839844 197.785156 232.839844 C 198.449219 232.839844 199.105469 232.804688 199.765625 232.742188 C 200.421875 232.675781 201.078125 232.578125 201.726562 232.453125 C 202.375 232.324219 203.015625 232.164062 203.648438 231.972656 C 204.28125 231.78125 204.902344 231.558594 205.511719 231.304688 C 206.125 231.054688 206.722656 230.773438 207.304688 230.460938 C 207.886719 230.152344 208.453125 229.8125 209.003906 229.445312 C 209.554688 229.082031 210.085938 228.6875 210.59375 228.269531 C 211.105469 227.851562 211.597656 227.410156 212.0625 226.945312 C 212.53125 226.480469 212.976562 225.992188 213.394531 225.480469 C 213.8125 224.972656 214.207031 224.445312 214.574219 223.894531 C 214.941406 223.347656 215.28125 222.785156 215.59375 222.203125 C 215.90625 221.621094 216.1875 221.027344 216.441406 220.417969 C 216.695312 219.808594 216.914062 219.1875 217.109375 218.558594 C 217.300781 217.929688 217.460938 217.289062 217.589844 216.644531 C 217.71875 215.996094 217.816406 215.347656 217.878906 214.691406 C 217.945312 214.035156 217.976562 213.378906 217.976562 212.71875 Z M 217.976562 212.71875 " fill-opacity="1" fill-rule="nonzero"/><path fill="#000000" d="M 214.285156 264.542969 L 198.5 264.550781 C 198.390625 264.550781 198.300781 264.511719 198.222656 264.4375 C 198.148438 264.359375 198.109375 264.265625 198.109375 264.15625 L 198.121094 255.289062 C 198.121094 255.195312 198.15625 255.109375 198.226562 255.042969 C 198.292969 254.976562 198.375 254.941406 198.472656 254.941406 L 221.359375 254.933594 C 221.613281 254.933594 221.828125 255.027344 222.003906 255.21875 C 231.734375 265.386719 230.863281 281.148438 222.933594 291.957031 C 212.242188 306.503906 191.035156 308.988281 177.390625 297.085938 C 164.828125 286.128906 162.960938 268.210938 172.808594 254.769531 C 172.867188 254.691406 172.945312 254.652344 173.042969 254.652344 C 173.140625 254.652344 173.21875 254.691406 173.277344 254.769531 L 180.058594 264.175781 C 180.167969 264.328125 180.222656 264.5 180.226562 264.683594 C 180.226562 264.871094 180.171875 265.042969 180.066406 265.195312 C 175.386719 271.96875 177.734375 281.65625 183.140625 287.273438 C 193.25 297.789062 210.21875 294.589844 216.222656 281.617188 C 217.785156 278.238281 218.570312 273.351562 217.570312 269.871094 C 217.121094 268.316406 216.21875 266.640625 214.867188 264.839844 C 214.722656 264.644531 214.527344 264.542969 214.285156 264.542969 Z M 214.285156 264.542969 " fill-opacity="1" fill-rule="nonzero"/></svg>