<svg xmlns="http://www.w3.org/2000/svg" xmlns:xlink="http://www.w3.org/1999/xlink" width="500" zoomAndPan="magnify" viewBox="0 0 375 374.999991" height="500" preserveAspectRatio="xMidYMid meet" version="1.0"><defs><clipPath id="690586df8a"><path d="M 103 19.597656 L 235 19.597656 L 235 163 L 103 163 Z M 103 19.597656 " clip-rule="nonzero"/></clipPath><clipPath id="dd1894d0f0"><path d="M 41 108 L 308 108 L 308 337.597656 L 41 337.597656 Z M 41 108 " clip-rule="nonzero"/></clipPath><clipPath id="ffa1ec3c18"><path d="M 71 108 L 337.230469 108 L 337.230469 337.597656 L 71 337.597656 Z M 71 108 " clip-rule="nonzero"/></clipPath><clipPath id="e2ef86aa86"><path d="M 136 19.597656 L 268 19.597656 L 268 163 L 136 163 Z M 136 19.597656 " clip-rule="nonzero"/></clipPath><clipPath id="c6c0061304"><path d="M 136.082031 173.296875 L 304.359375 173.296875 L 304.359375 330.648438 L 136.082031 330.648438 Z M 136.082031 173.296875 " clip-rule="nonzero"/></clipPath><clipPath id="c88626312d"><path d="M 223 174.046875 L 238.703125 174.046875 L 238.703125 190 L 223 190 Z M 223 174.046875 " clip-rule="nonzero"/></clipPath></defs><g clip-path="url(#690586df8a)"><path fill="#000000" d="M 226.734375 162.976562 C 222.601562 162.976562 219.246094 159.621094 219.246094 155.488281 L 219.246094 84.90625 C 219.246094 57.125 196.644531 34.523438 168.878906 34.523438 C 141.097656 34.523438 118.496094 57.125 118.496094 84.90625 L 118.496094 155.488281 C 118.496094 159.621094 115.144531 162.976562 111.027344 162.976562 C 106.875 162.976562 103.539062 159.621094 103.539062 155.488281 L 103.539062 84.90625 C 103.539062 48.875 132.847656 19.566406 168.878906 19.566406 C 204.914062 19.566406 234.222656 48.875 234.222656 84.90625 L 234.222656 155.488281 C 234.222656 159.621094 230.882812 162.976562 226.734375 162.976562 " fill-opacity="1" fill-rule="nonzero"/></g><g clip-path="url(#dd1894d0f0)"><path fill="#577d27" d="M 307.378906 319.347656 C 307.378906 329.347656 299.1875 337.523438 289.191406 337.523438 L 59.675781 337.523438 C 49.675781 337.523438 41.503906 329.347656 41.503906 319.347656 L 41.707031 126.585938 C 41.707031 116.585938 49.894531 108.398438 59.894531 108.398438 L 284.855469 108.398438 C 294.851562 108.398438 303.042969 116.585938 303.042969 126.585938 L 307.378906 319.347656 " fill-opacity="1" fill-rule="nonzero"/></g><g clip-path="url(#ffa1ec3c18)"><path fill="#8fff00" d="M 337.125 319.347656 C 337.125 329.347656 328.949219 337.523438 318.953125 337.523438 L 89.4375 337.523438 C 79.4375 337.523438 71.25 329.347656 71.25 319.347656 L 71.46875 126.585938 C 71.46875 116.585938 79.640625 108.398438 89.640625 108.398438 L 314.617188 108.398438 C 324.613281 108.398438 332.804688 116.585938 332.804688 126.585938 L 337.125 319.347656 " fill-opacity="1" fill-rule="nonzero"/></g><path fill="#577d27" d="M 160.597656 155.488281 C 160.597656 165.082031 152.8125 172.867188 143.222656 172.867188 C 133.613281 172.867188 125.828125 165.082031 125.828125 155.488281 C 125.828125 145.878906 133.613281 138.113281 143.222656 138.113281 C 152.8125 138.113281 160.597656 145.878906 160.597656 155.488281 " fill-opacity="1" fill-rule="nonzero"/><path fill="#577d27" d="M 278.425781 155.488281 C 278.425781 165.082031 270.644531 172.867188 261.050781 172.867188 C 251.441406 172.867188 243.660156 165.082031 243.660156 155.488281 C 243.660156 145.878906 251.441406 138.113281 261.050781 138.113281 C 270.644531 138.113281 278.425781 145.878906 278.425781 155.488281 " fill-opacity="1" fill-rule="nonzero"/><g clip-path="url(#e2ef86aa86)"><path fill="#141515" d="M 259.992188 162.976562 C 255.855469 162.976562 252.503906 159.621094 252.503906 155.488281 L 252.503906 84.90625 C 252.503906 57.125 229.902344 34.523438 202.136719 34.523438 C 174.355469 34.523438 151.753906 57.125 151.753906 84.90625 L 151.753906 155.488281 C 151.753906 159.621094 148.398438 162.976562 144.265625 162.976562 C 140.132812 162.976562 136.777344 159.621094 136.777344 155.488281 L 136.777344 84.90625 C 136.777344 48.875 166.089844 19.566406 202.136719 19.566406 C 238.167969 19.566406 267.476562 48.875 267.476562 84.90625 L 267.476562 155.488281 C 267.476562 159.621094 264.125 162.976562 259.992188 162.976562 " fill-opacity="1" fill-rule="nonzero"/></g><path fill="#ffffff" d="M 274.871094 214.261719 L 272 214.125 C 267.226562 213.90625 263.203125 217.195312 263 221.5 L 261.863281 245.757812 L 261.847656 245.726562 L 258.679688 240.109375 L 230.074219 189.445312 C 228.074219 185.90625 223.582031 184.65625 220.042969 186.65625 L 217.90625 187.855469 C 214.363281 189.867188 213.117188 194.34375 215.113281 197.886719 L 228.808594 222.15625 C 227.09375 221.78125 225.253906 222 223.613281 222.921875 L 221.460938 224.121094 C 217.9375 226.132812 216.671875 230.609375 218.6875 234.152344 C 216.671875 230.609375 212.195312 229.363281 208.65625 231.359375 L 206.503906 232.574219 C 202.976562 234.574219 201.714844 239.066406 203.710938 242.605469 C 201.714844 239.066406 197.238281 237.816406 193.683594 239.8125 L 191.558594 241.015625 C 188.019531 243.011719 186.757812 247.503906 188.753906 251.042969 L 200.964844 272.679688 C 200.964844 272.679688 217.09375 302.175781 223.863281 310.316406 C 230.136719 317.914062 231.492188 316.011719 234.253906 318.757812 C 238.324219 322.8125 242.222656 326.199219 245.765625 324.199219 L 279.425781 305.203125 C 282.980469 303.207031 282.84375 297.855469 280.734375 292.519531 C 279.972656 290.585938 278.941406 285.15625 279.457031 284.269531 C 279.457031 284.269531 280.457031 280.664062 280.410156 280.027344 L 283.121094 222.453125 C 283.324219 218.148438 279.628906 214.480469 274.871094 214.261719 " fill-opacity="1" fill-rule="nonzero"/><g clip-path="url(#c6c0061304)"><path fill="#8fff00" d="M 136.082031 173.296875 L 304.496094 173.296875 L 304.496094 330.648438 L 136.082031 330.648438 Z M 136.082031 173.296875 " fill-opacity="1" fill-rule="nonzero"/></g><g clip-path="url(#c88626312d)"><path fill="#000000" d="M 238.703125 181.601562 C 238.703125 182.089844 238.65625 182.574219 238.5625 183.050781 C 238.464844 183.527344 238.324219 183.992188 238.136719 184.441406 C 237.949219 184.894531 237.722656 185.320312 237.449219 185.726562 C 237.175781 186.132812 236.867188 186.507812 236.523438 186.851562 C 236.175781 187.195312 235.800781 187.503906 235.394531 187.773438 C 234.988281 188.046875 234.558594 188.273438 234.105469 188.460938 C 233.652344 188.648438 233.1875 188.789062 232.707031 188.882812 C 232.230469 188.976562 231.746094 189.027344 231.253906 189.027344 C 230.765625 189.027344 230.28125 188.976562 229.800781 188.882812 C 229.324219 188.789062 228.855469 188.648438 228.40625 188.460938 C 227.953125 188.273438 227.523438 188.046875 227.117188 187.773438 C 226.710938 187.503906 226.335938 187.195312 225.988281 186.851562 C 225.644531 186.507812 225.332031 186.132812 225.0625 185.726562 C 224.789062 185.320312 224.5625 184.894531 224.375 184.441406 C 224.1875 183.992188 224.046875 183.527344 223.949219 183.050781 C 223.855469 182.574219 223.808594 182.089844 223.808594 181.601562 C 223.808594 181.117188 223.855469 180.632812 223.949219 180.15625 C 224.046875 179.675781 224.1875 179.210938 224.375 178.761719 C 224.5625 178.3125 224.789062 177.882812 225.0625 177.480469 C 225.332031 177.074219 225.644531 176.699219 225.988281 176.355469 C 226.335938 176.007812 226.710938 175.703125 227.117188 175.429688 C 227.523438 175.160156 227.953125 174.933594 228.40625 174.746094 C 228.855469 174.558594 229.324219 174.417969 229.800781 174.324219 C 230.28125 174.226562 230.765625 174.179688 231.253906 174.179688 C 231.746094 174.179688 232.230469 174.226562 232.707031 174.324219 C 233.1875 174.417969 233.652344 174.558594 234.105469 174.746094 C 234.558594 174.933594 234.988281 175.160156 235.394531 175.429688 C 235.800781 175.703125 236.175781 176.007812 236.523438 176.355469 C 236.867188 176.699219 237.175781 177.074219 237.449219 177.480469 C 237.722656 177.882812 237.949219 178.3125 238.136719 178.761719 C 238.324219 179.210938 238.464844 179.675781 238.5625 180.15625 C 238.65625 180.632812 238.703125 181.117188 238.703125 181.601562 Z M 238.703125 181.601562 " fill-opacity="1" fill-rule="nonzero"/></g><path fill="#000000" d="M 231.328125 212.71875 C 231.328125 213.738281 231.277344 214.757812 231.175781 215.773438 C 231.078125 216.789062 230.925781 217.800781 230.726562 218.800781 C 230.527344 219.804688 230.277344 220.792969 229.980469 221.769531 C 229.683594 222.746094 229.339844 223.707031 228.945312 224.652344 C 228.554688 225.59375 228.117188 226.515625 227.632812 227.417969 C 227.148438 228.316406 226.625 229.191406 226.054688 230.042969 C 225.484375 230.890625 224.875 231.710938 224.226562 232.5 C 223.574219 233.289062 222.886719 234.042969 222.164062 234.765625 C 221.4375 235.488281 220.679688 236.175781 219.886719 236.820312 C 219.09375 237.46875 218.273438 238.078125 217.421875 238.644531 C 216.570312 239.210938 215.691406 239.734375 214.789062 240.21875 C 213.882812 240.699219 212.957031 241.136719 212.011719 241.527344 C 211.0625 241.917969 210.101562 242.261719 209.121094 242.558594 C 208.140625 242.851562 207.144531 243.101562 206.140625 243.300781 C 205.136719 243.5 204.125 243.648438 203.101562 243.75 C 202.082031 243.847656 201.0625 243.898438 200.035156 243.898438 C 199.011719 243.898438 197.988281 243.847656 196.96875 243.75 C 195.949219 243.648438 194.9375 243.5 193.929688 243.300781 C 192.925781 243.101562 191.933594 242.851562 190.953125 242.558594 C 189.972656 242.261719 189.007812 241.917969 188.0625 241.527344 C 187.113281 241.136719 186.1875 240.699219 185.285156 240.21875 C 184.382812 239.734375 183.503906 239.210938 182.652344 238.644531 C 181.800781 238.078125 180.976562 237.46875 180.183594 236.820312 C 179.394531 236.175781 178.632812 235.488281 177.910156 234.765625 C 177.183594 234.042969 176.496094 233.289062 175.847656 232.5 C 175.195312 231.710938 174.585938 230.890625 174.019531 230.042969 C 173.449219 229.191406 172.921875 228.316406 172.4375 227.417969 C 171.957031 226.515625 171.519531 225.59375 171.125 224.652344 C 170.734375 223.707031 170.390625 222.746094 170.089844 221.769531 C 169.792969 220.792969 169.546875 219.804688 169.34375 218.800781 C 169.144531 217.800781 168.996094 216.789062 168.894531 215.773438 C 168.792969 214.757812 168.746094 213.738281 168.746094 212.71875 C 168.746094 211.695312 168.792969 210.679688 168.894531 209.660156 C 168.996094 208.644531 169.144531 207.636719 169.34375 206.636719 C 169.546875 205.632812 169.792969 204.644531 170.089844 203.667969 C 170.390625 202.691406 170.734375 201.730469 171.125 200.785156 C 171.519531 199.84375 171.957031 198.921875 172.4375 198.019531 C 172.921875 197.117188 173.449219 196.246094 174.019531 195.394531 C 174.585938 194.546875 175.195312 193.726562 175.847656 192.9375 C 176.496094 192.148438 177.183594 191.390625 177.910156 190.671875 C 178.632812 189.949219 179.394531 189.261719 180.183594 188.613281 C 180.976562 187.96875 181.800781 187.359375 182.652344 186.792969 C 183.503906 186.226562 184.382812 185.699219 185.285156 185.21875 C 186.1875 184.738281 187.113281 184.300781 188.0625 183.910156 C 189.007812 183.519531 189.972656 183.175781 190.953125 182.878906 C 191.933594 182.582031 192.925781 182.335938 193.929688 182.136719 C 194.9375 181.9375 195.949219 181.789062 196.96875 181.6875 C 197.988281 181.585938 199.011719 181.539062 200.035156 181.539062 C 201.0625 181.539062 202.082031 181.585938 203.101562 181.6875 C 204.125 181.789062 205.136719 181.9375 206.140625 182.136719 C 207.144531 182.335938 208.140625 182.582031 209.121094 182.878906 C 210.101562 183.175781 211.0625 183.519531 212.011719 183.910156 C 212.957031 184.300781 213.882812 184.738281 214.789062 185.21875 C 215.691406 185.699219 216.570312 186.226562 217.421875 186.792969 C 218.273438 187.359375 219.09375 187.96875 219.886719 188.613281 C 220.679688 189.261719 221.4375 189.949219 222.164062 190.671875 C 222.886719 191.390625 223.574219 192.148438 224.226562 192.9375 C 224.875 193.726562 225.484375 194.546875 226.054688 195.394531 C 226.625 196.246094 227.148438 197.117188 227.632812 198.019531 C 228.117188 198.921875 228.554688 199.84375 228.945312 200.785156 C 229.339844 201.730469 229.683594 202.691406 229.980469 203.667969 C 230.277344 204.644531 230.527344 205.632812 230.726562 206.636719 C 230.925781 207.636719 231.078125 208.644531 231.175781 209.660156 C 231.277344 210.679688 231.328125 211.695312 231.328125 212.71875 Z M 220.226562 212.71875 C 220.226562 212.058594 220.195312 211.402344 220.128906 210.746094 C 220.066406 210.089844 219.96875 209.441406 219.839844 208.792969 C 219.710938 208.148438 219.550781 207.507812 219.359375 206.878906 C 219.164062 206.246094 218.945312 205.628906 218.691406 205.019531 C 218.4375 204.410156 218.15625 203.816406 217.84375 203.234375 C 217.53125 202.652344 217.191406 202.089844 216.824219 201.539062 C 216.457031 200.992188 216.0625 200.464844 215.644531 199.953125 C 215.226562 199.445312 214.78125 198.957031 214.3125 198.492188 C 213.847656 198.027344 213.355469 197.582031 212.84375 197.164062 C 212.335938 196.746094 211.804688 196.355469 211.253906 195.988281 C 210.703125 195.625 210.136719 195.285156 209.554688 194.972656 C 208.972656 194.664062 208.375 194.382812 207.761719 194.128906 C 207.152344 193.878906 206.53125 193.65625 205.898438 193.464844 C 205.265625 193.273438 204.625 193.113281 203.976562 192.984375 C 203.328125 192.855469 202.671875 192.761719 202.015625 192.695312 C 201.355469 192.632812 200.699219 192.597656 200.035156 192.597656 C 199.375 192.597656 198.714844 192.632812 198.058594 192.695312 C 197.398438 192.761719 196.746094 192.855469 196.097656 192.984375 C 195.449219 193.113281 194.808594 193.273438 194.175781 193.464844 C 193.542969 193.65625 192.921875 193.878906 192.308594 194.128906 C 191.699219 194.382812 191.101562 194.664062 190.519531 194.972656 C 189.933594 195.285156 189.367188 195.625 188.820312 195.988281 C 188.269531 196.355469 187.738281 196.746094 187.226562 197.164062 C 186.714844 197.582031 186.226562 198.027344 185.757812 198.492188 C 185.292969 198.957031 184.847656 199.445312 184.429688 199.953125 C 184.007812 200.464844 183.617188 200.992188 183.246094 201.539062 C 182.878906 202.089844 182.542969 202.652344 182.230469 203.234375 C 181.917969 203.816406 181.636719 204.410156 181.382812 205.019531 C 181.128906 205.628906 180.90625 206.246094 180.714844 206.878906 C 180.523438 207.507812 180.363281 208.148438 180.234375 208.792969 C 180.105469 209.441406 180.007812 210.089844 179.941406 210.746094 C 179.878906 211.402344 179.84375 212.058594 179.84375 212.71875 C 179.84375 213.378906 179.878906 214.035156 179.941406 214.691406 C 180.007812 215.347656 180.105469 215.996094 180.234375 216.644531 C 180.363281 217.289062 180.523438 217.929688 180.714844 218.558594 C 180.90625 219.1875 181.128906 219.808594 181.382812 220.417969 C 181.636719 221.027344 181.917969 221.621094 182.230469 222.203125 C 182.542969 222.785156 182.878906 223.347656 183.246094 223.894531 C 183.617188 224.445312 184.007812 224.972656 184.429688 225.480469 C 184.847656 225.992188 185.292969 226.480469 185.757812 226.945312 C 186.226562 227.410156 186.714844 227.851562 187.226562 228.269531 C 187.738281 228.6875 188.269531 229.082031 188.820312 229.445312 C 189.367188 229.8125 189.933594 230.152344 190.519531 230.460938 C 191.101562 230.773438 191.699219 231.054688 192.308594 231.304688 C 192.921875 231.558594 193.542969 231.78125 194.175781 231.972656 C 194.808594 232.164062 195.449219 232.324219 196.097656 232.453125 C 196.746094 232.578125 197.398438 232.675781 198.058594 232.742188 C 198.714844 232.804688 199.375 232.839844 200.035156 232.839844 C 200.699219 232.839844 201.355469 232.804688 202.015625 232.742188 C 202.671875 232.675781 203.328125 232.578125 203.976562 232.453125 C 204.625 232.324219 205.265625 232.164062 205.898438 231.972656 C 206.53125 231.78125 207.152344 231.558594 207.761719 231.304688 C 208.375 231.054688 208.972656 230.773438 209.554688 230.460938 C 210.136719 230.152344 210.703125 229.8125 211.253906 229.445312 C 211.804688 229.082031 212.335938 228.6875 212.84375 228.269531 C 213.355469 227.851562 213.847656 227.410156 214.3125 226.945312 C 214.78125 226.480469 215.226562 225.992188 215.644531 225.480469 C 216.0625 224.972656 216.457031 224.445312 216.824219 223.894531 C 217.191406 223.347656 217.53125 222.785156 217.84375 222.203125 C 218.15625 221.621094 218.4375 221.027344 218.691406 220.417969 C 218.945312 219.808594 219.164062 219.1875 219.359375 218.558594 C 219.550781 217.929688 219.710938 217.289062 219.839844 216.644531 C 219.96875 215.996094 220.066406 215.347656 220.128906 214.691406 C 220.195312 214.035156 220.226562 213.378906 220.226562 212.71875 Z M 220.226562 212.71875 " fill-opacity="1" fill-rule="nonzero"/><path fill="#000000" d="M 216.535156 264.542969 L 200.75 264.550781 C 200.640625 264.550781 200.550781 264.511719 200.472656 264.4375 C 200.398438 264.359375 200.359375 264.265625 200.359375 264.15625 L 200.371094 255.289062 C 200.371094 255.195312 200.40625 255.109375 200.476562 255.042969 C 200.542969 254.976562 200.625 254.941406 200.722656 254.941406 L 223.609375 254.933594 C 223.863281 254.933594 224.078125 255.027344 224.253906 255.21875 C 233.984375 265.386719 233.113281 281.148438 225.183594 291.957031 C 214.492188 306.503906 193.285156 308.988281 179.640625 297.085938 C 167.078125 286.128906 165.210938 268.210938 175.058594 254.769531 C 175.117188 254.691406 175.195312 254.652344 175.292969 254.652344 C 175.390625 254.652344 175.46875 254.691406 175.527344 254.769531 L 182.308594 264.175781 C 182.417969 264.328125 182.472656 264.5 182.476562 264.683594 C 182.476562 264.871094 182.421875 265.042969 182.316406 265.195312 C 177.636719 271.96875 179.984375 281.65625 185.390625 287.273438 C 195.5 297.789062 212.46875 294.589844 218.472656 281.617188 C 220.035156 278.238281 220.820312 273.351562 219.820312 269.871094 C 219.371094 268.316406 218.46875 266.640625 217.117188 264.839844 C 216.972656 264.644531 216.777344 264.542969 216.535156 264.542969 Z M 216.535156 264.542969 " fill-opacity="1" fill-rule="nonzero"/></svg>