<svg xmlns="http://www.w3.org/2000/svg" xmlns:xlink="http://www.w3.org/1999/xlink" width="500" zoomAndPan="magnify" viewBox="0 0 375 374.999991" height="500" preserveAspectRatio="xMidYMid meet" version="1.0"><defs><clipPath id="cb90411826"><path d="M 103 19.597656 L 235 19.597656 L 235 163 L 103 163 Z M 103 19.597656 " clip-rule="nonzero"/></clipPath><clipPath id="671b6606f5"><path d="M 41 108 L 308 108 L 308 337.597656 L 41 337.597656 Z M 41 108 " clip-rule="nonzero"/></clipPath><clipPath id="bd3000f74d"><path d="M 71 108 L 337.230469 108 L 337.230469 337.597656 L 71 337.597656 Z M 71 108 " clip-rule="nonzero"/></clipPath><clipPath id="7c1707059f"><path d="M 136 19.597656 L 268 19.597656 L 268 163 L 136 163 Z M 136 19.597656 " clip-rule="nonzero"/></clipPath><clipPath id="6bb5d6d10b"><path d="M 136.082031 178.546875 L 304.359375 178.546875 L 304.359375 328.398438 L 136.082031 328.398438 Z M 136.082031 178.546875 " clip-rule="nonzero"/></clipPath><clipPath id="91ffe8569b"><path d="M 218 171.796875 L 233.453125 171.796875 L 233.453125 187 L 218 187 Z M 218 171.796875 " clip-rule="nonzero"/></clipPath></defs><g clip-path="url(#cb90411826)"><path fill="#545454" d="M 226.734375 162.976562 C 222.601562 162.976562 219.246094 159.621094 219.246094 155.488281 L 219.246094 84.90625 C 219.246094 57.125 196.644531 34.523438 168.878906 34.523438 C 141.097656 34.523438 118.496094 57.125 118.496094 84.90625 L 118.496094 155.488281 C 118.496094 159.621094 115.144531 162.976562 111.027344 162.976562 C 106.875 162.976562 103.539062 159.621094 103.539062 155.488281 L 103.539062 84.90625 C 103.539062 48.875 132.847656 19.566406 168.878906 19.566406 C 204.914062 19.566406 234.222656 48.875 234.222656 84.90625 L 234.222656 155.488281 C 234.222656 159.621094 230.882812 162.976562 226.734375 162.976562 " fill-opacity="1" fill-rule="nonzero"/></g><g clip-path="url(#671b6606f5)"><path fill="#222121" d="M 307.378906 319.347656 C 307.378906 329.347656 299.1875 337.523438 289.191406 337.523438 L 59.675781 337.523438 C 49.675781 337.523438 41.503906 329.347656 41.503906 319.347656 L 41.707031 126.585938 C 41.707031 116.585938 49.894531 108.398438 59.894531 108.398438 L 284.855469 108.398438 C 294.851562 108.398438 303.042969 116.585938 303.042969 126.585938 L 307.378906 319.347656 " fill-opacity="1" fill-rule="nonzero"/></g><g clip-path="url(#bd3000f74d)"><path fill="#000000" d="M 337.125 319.347656 C 337.125 329.347656 328.949219 337.523438 318.953125 337.523438 L 89.4375 337.523438 C 79.4375 337.523438 71.25 329.347656 71.25 319.347656 L 71.46875 126.585938 C 71.46875 116.585938 79.640625 108.398438 89.640625 108.398438 L 314.617188 108.398438 C 324.613281 108.398438 332.804688 116.585938 332.804688 126.585938 L 337.125 319.347656 " fill-opacity="1" fill-rule="nonzero"/></g><path fill="#222121" d="M 160.597656 155.488281 C 160.597656 165.082031 152.8125 172.867188 143.222656 172.867188 C 133.613281 172.867188 125.828125 165.082031 125.828125 155.488281 C 125.828125 145.878906 133.613281 138.113281 143.222656 138.113281 C 152.8125 138.113281 160.597656 145.878906 160.597656 155.488281 " fill-opacity="1" fill-rule="nonzero"/><path fill="#222121" d="M 278.425781 155.488281 C 278.425781 165.082031 270.644531 172.867188 261.050781 172.867188 C 251.441406 172.867188 243.660156 165.082031 243.660156 155.488281 C 243.660156 145.878906 251.441406 138.113281 261.050781 138.113281 C 270.644531 138.113281 278.425781 145.878906 278.425781 155.488281 " fill-opacity="1" fill-rule="nonzero"/><g clip-path="url(#7c1707059f)"><path fill="#000000" d="M 259.992188 162.976562 C 255.855469 162.976562 252.503906 159.621094 252.503906 155.488281 L 252.503906 84.90625 C 252.503906 57.125 229.902344 34.523438 202.136719 34.523438 C 174.355469 34.523438 151.753906 57.125 151.753906 84.90625 L 151.753906 155.488281 C 151.753906 159.621094 148.398438 162.976562 144.265625 162.976562 C 140.132812 162.976562 136.777344 159.621094 136.777344 155.488281 L 136.777344 84.90625 C 136.777344 48.875 166.089844 19.566406 202.136719 19.566406 C 238.167969 19.566406 267.476562 48.875 267.476562 84.90625 L 267.476562 155.488281 C 267.476562 159.621094 264.125 162.976562 259.992188 162.976562 " fill-opacity="1" fill-rule="nonzero"/></g><path fill="#ffffff" d="M 274.871094 214.261719 L 272 214.125 C 267.226562 213.90625 263.203125 217.195312 263 221.5 L 261.863281 245.757812 L 261.847656 245.726562 L 258.679688 240.109375 L 230.074219 189.445312 C 228.074219 185.90625 223.582031 184.65625 220.042969 186.65625 L 217.90625 187.855469 C 214.363281 189.867188 213.117188 194.34375 215.113281 197.886719 L 228.808594 222.15625 C 227.09375 221.78125 225.253906 222 223.613281 222.921875 L 221.460938 224.121094 C 217.9375 226.132812 216.671875 230.609375 218.6875 234.152344 C 216.671875 230.609375 212.195312 229.363281 208.65625 231.359375 L 206.503906 232.574219 C 202.976562 234.574219 201.714844 239.066406 203.710938 242.605469 C 201.714844 239.066406 197.238281 237.816406 193.683594 239.8125 L 191.558594 241.015625 C 188.019531 243.011719 186.757812 247.503906 188.753906 251.042969 L 200.964844 272.679688 C 200.964844 272.679688 217.09375 302.175781 223.863281 310.316406 C 230.136719 317.914062 231.492188 316.011719 234.253906 318.757812 C 238.324219 322.8125 242.222656 326.199219 245.765625 324.199219 L 279.425781 305.203125 C 282.980469 303.207031 282.84375 297.855469 280.734375 292.519531 C 279.972656 290.585938 278.941406 285.15625 279.457031 284.269531 C 279.457031 284.269531 280.457031 280.664062 280.410156 280.027344 L 283.121094 222.453125 C 283.324219 218.148438 279.628906 214.480469 274.871094 214.261719 " fill-opacity="1" fill-rule="nonzero"/><g clip-path="url(#6bb5d6d10b)"><path fill="#000000" d="M 136.082031 178.546875 L 304.078125 178.546875 L 304.078125 328.398438 L 136.082031 328.398438 Z M 136.082031 178.546875 " fill-opacity="1" fill-rule="nonzero"/></g><g clip-path="url(#91ffe8569b)"><path fill="#8fff00" d="M 233.371094 179.371094 C 233.371094 179.859375 233.324219 180.34375 233.230469 180.824219 C 233.132812 181.300781 232.992188 181.765625 232.804688 182.21875 C 232.617188 182.671875 232.390625 183.097656 232.117188 183.503906 C 231.847656 183.910156 231.539062 184.285156 231.191406 184.632812 C 230.847656 184.976562 230.472656 185.285156 230.066406 185.558594 C 229.660156 185.828125 229.230469 186.058594 228.777344 186.246094 C 228.328125 186.433594 227.863281 186.574219 227.382812 186.667969 C 226.902344 186.765625 226.421875 186.8125 225.933594 186.8125 C 225.441406 186.8125 224.960938 186.765625 224.480469 186.667969 C 224 186.574219 223.535156 186.433594 223.085938 186.246094 C 222.632812 186.058594 222.203125 185.828125 221.796875 185.558594 C 221.390625 185.285156 221.015625 184.976562 220.671875 184.632812 C 220.324219 184.285156 220.015625 183.910156 219.746094 183.503906 C 219.472656 183.097656 219.246094 182.671875 219.058594 182.21875 C 218.871094 181.765625 218.730469 181.300781 218.632812 180.824219 C 218.539062 180.34375 218.492188 179.859375 218.492188 179.371094 C 218.492188 178.882812 218.539062 178.398438 218.632812 177.917969 C 218.730469 177.441406 218.871094 176.976562 219.058594 176.523438 C 219.246094 176.074219 219.472656 175.644531 219.746094 175.238281 C 220.015625 174.832031 220.324219 174.457031 220.671875 174.109375 C 221.015625 173.765625 221.390625 173.457031 221.796875 173.183594 C 222.203125 172.914062 222.632812 172.683594 223.085938 172.496094 C 223.535156 172.308594 224 172.167969 224.480469 172.074219 C 224.960938 171.976562 225.441406 171.929688 225.933594 171.929688 C 226.421875 171.929688 226.902344 171.976562 227.382812 172.074219 C 227.863281 172.167969 228.328125 172.308594 228.777344 172.496094 C 229.230469 172.683594 229.660156 172.914062 230.066406 173.183594 C 230.472656 173.457031 230.847656 173.765625 231.191406 174.109375 C 231.539062 174.457031 231.847656 174.832031 232.117188 175.238281 C 232.390625 175.644531 232.617188 176.074219 232.804688 176.523438 C 232.992188 176.976562 233.132812 177.441406 233.230469 177.917969 C 233.324219 178.398438 233.371094 178.882812 233.371094 179.371094 Z M 233.371094 179.371094 " fill-opacity="1" fill-rule="nonzero"/></g><path fill="#8fff00" d="M 226.003906 210.5625 C 226.003906 211.585938 225.953125 212.605469 225.855469 213.625 C 225.753906 214.644531 225.601562 215.65625 225.402344 216.660156 C 225.203125 217.664062 224.957031 218.65625 224.660156 219.636719 C 224.359375 220.617188 224.015625 221.578125 223.625 222.523438 C 223.234375 223.46875 222.796875 224.394531 222.3125 225.296875 C 221.832031 226.199219 221.304688 227.078125 220.738281 227.929688 C 220.167969 228.777344 219.558594 229.601562 218.910156 230.390625 C 218.261719 231.183594 217.574219 231.941406 216.847656 232.664062 C 216.125 233.386719 215.367188 234.074219 214.578125 234.722656 C 213.785156 235.375 212.964844 235.984375 212.113281 236.550781 C 211.261719 237.121094 210.382812 237.644531 209.480469 238.128906 C 208.578125 238.609375 207.65625 239.046875 206.707031 239.441406 C 205.761719 239.832031 204.800781 240.175781 203.820312 240.472656 C 202.839844 240.769531 201.847656 241.019531 200.84375 241.21875 C 199.839844 241.417969 198.828125 241.570312 197.8125 241.667969 C 196.792969 241.769531 195.769531 241.820312 194.746094 241.820312 C 193.722656 241.820312 192.703125 241.769531 191.683594 241.667969 C 190.664062 241.570312 189.652344 241.417969 188.648438 241.21875 C 187.644531 241.019531 186.652344 240.769531 185.675781 240.472656 C 184.695312 240.175781 183.730469 239.832031 182.785156 239.441406 C 181.839844 239.046875 180.914062 238.609375 180.011719 238.128906 C 179.109375 237.644531 178.234375 237.121094 177.382812 236.550781 C 176.53125 235.984375 175.710938 235.375 174.917969 234.722656 C 174.125 234.074219 173.371094 233.386719 172.644531 232.664062 C 171.921875 231.941406 171.234375 231.183594 170.585938 230.390625 C 169.9375 229.601562 169.328125 228.777344 168.757812 227.929688 C 168.1875 227.078125 167.664062 226.199219 167.179688 225.296875 C 166.699219 224.394531 166.261719 223.46875 165.871094 222.523438 C 165.476562 221.578125 165.132812 220.617188 164.835938 219.636719 C 164.539062 218.65625 164.289062 217.664062 164.089844 216.660156 C 163.890625 215.65625 163.742188 214.644531 163.640625 213.625 C 163.539062 212.605469 163.492188 211.585938 163.492188 210.5625 C 163.492188 209.539062 163.539062 208.515625 163.640625 207.5 C 163.742188 206.480469 163.890625 205.46875 164.089844 204.464844 C 164.289062 203.460938 164.539062 202.46875 164.835938 201.488281 C 165.132812 200.507812 165.476562 199.546875 165.871094 198.601562 C 166.261719 197.65625 166.699219 196.730469 167.179688 195.828125 C 167.664062 194.925781 168.1875 194.046875 168.757812 193.195312 C 169.328125 192.347656 169.9375 191.523438 170.585938 190.734375 C 171.234375 189.941406 171.921875 189.183594 172.644531 188.460938 C 173.371094 187.738281 174.125 187.050781 174.917969 186.402344 C 175.710938 185.75 176.53125 185.140625 177.382812 184.574219 C 178.234375 184.003906 179.109375 183.480469 180.011719 182.996094 C 180.914062 182.511719 181.839844 182.078125 182.785156 181.683594 C 183.730469 181.292969 184.695312 180.949219 185.675781 180.652344 C 186.652344 180.355469 187.644531 180.105469 188.648438 179.90625 C 189.652344 179.707031 190.664062 179.554688 191.683594 179.457031 C 192.703125 179.355469 193.722656 179.304688 194.746094 179.304688 C 195.769531 179.304688 196.792969 179.355469 197.8125 179.457031 C 198.828125 179.554688 199.839844 179.707031 200.84375 179.90625 C 201.847656 180.105469 202.839844 180.355469 203.820312 180.652344 C 204.800781 180.949219 205.761719 181.292969 206.707031 181.683594 C 207.65625 182.078125 208.578125 182.511719 209.480469 182.996094 C 210.382812 183.480469 211.261719 184.003906 212.113281 184.574219 C 212.964844 185.140625 213.785156 185.75 214.578125 186.402344 C 215.367188 187.050781 216.125 187.738281 216.847656 188.460938 C 217.574219 189.183594 218.261719 189.941406 218.910156 190.734375 C 219.558594 191.523438 220.167969 192.347656 220.738281 193.195312 C 221.304688 194.046875 221.832031 194.925781 222.3125 195.828125 C 222.796875 196.730469 223.234375 197.65625 223.625 198.601562 C 224.015625 199.546875 224.359375 200.507812 224.660156 201.488281 C 224.957031 202.46875 225.203125 203.460938 225.402344 204.464844 C 225.601562 205.46875 225.753906 206.480469 225.855469 207.5 C 225.953125 208.515625 226.003906 209.539062 226.003906 210.5625 Z M 214.914062 210.5625 C 214.914062 209.902344 214.882812 209.242188 214.820312 208.585938 C 214.753906 207.929688 214.65625 207.277344 214.527344 206.628906 C 214.398438 205.980469 214.238281 205.339844 214.046875 204.707031 C 213.855469 204.074219 213.632812 203.453125 213.378906 202.84375 C 213.128906 202.234375 212.847656 201.636719 212.535156 201.054688 C 212.222656 200.472656 211.882812 199.90625 211.515625 199.355469 C 211.148438 198.808594 210.757812 198.277344 210.335938 197.765625 C 209.917969 197.257812 209.476562 196.769531 209.007812 196.300781 C 208.542969 195.832031 208.054688 195.390625 207.542969 194.972656 C 207.03125 194.554688 206.5 194.160156 205.953125 193.792969 C 205.402344 193.425781 204.835938 193.085938 204.253906 192.773438 C 203.671875 192.464844 203.074219 192.183594 202.464844 191.929688 C 201.855469 191.675781 201.234375 191.453125 200.601562 191.261719 C 199.96875 191.070312 199.328125 190.910156 198.683594 190.78125 C 198.035156 190.652344 197.382812 190.554688 196.722656 190.492188 C 196.066406 190.425781 195.40625 190.394531 194.746094 190.394531 C 194.085938 190.394531 193.429688 190.425781 192.769531 190.492188 C 192.113281 190.554688 191.460938 190.652344 190.8125 190.78125 C 190.164062 190.910156 189.523438 191.070312 188.894531 191.261719 C 188.261719 191.453125 187.640625 191.675781 187.027344 191.929688 C 186.417969 192.183594 185.824219 192.464844 185.238281 192.773438 C 184.65625 193.085938 184.089844 193.425781 183.542969 193.792969 C 182.992188 194.160156 182.464844 194.554688 181.953125 194.972656 C 181.441406 195.390625 180.953125 195.832031 180.484375 196.300781 C 180.019531 196.769531 179.574219 197.257812 179.15625 197.765625 C 178.738281 198.277344 178.34375 198.808594 177.976562 199.355469 C 177.609375 199.90625 177.273438 200.472656 176.960938 201.054688 C 176.648438 201.636719 176.367188 202.234375 176.113281 202.84375 C 175.859375 203.453125 175.640625 204.074219 175.445312 204.707031 C 175.253906 205.339844 175.09375 205.980469 174.964844 206.628906 C 174.835938 207.277344 174.742188 207.929688 174.675781 208.585938 C 174.609375 209.242188 174.578125 209.902344 174.578125 210.5625 C 174.578125 211.222656 174.609375 211.882812 174.675781 212.539062 C 174.742188 213.195312 174.835938 213.847656 174.964844 214.496094 C 175.09375 215.144531 175.253906 215.785156 175.445312 216.417969 C 175.640625 217.050781 175.859375 217.671875 176.113281 218.28125 C 176.367188 218.890625 176.648438 219.488281 176.960938 220.070312 C 177.273438 220.652344 177.609375 221.21875 177.976562 221.765625 C 178.34375 222.316406 178.738281 222.847656 179.15625 223.355469 C 179.574219 223.867188 180.019531 224.355469 180.484375 224.824219 C 180.953125 225.289062 181.441406 225.734375 181.953125 226.152344 C 182.464844 226.570312 182.992188 226.964844 183.542969 227.332031 C 184.089844 227.699219 184.65625 228.039062 185.238281 228.347656 C 185.824219 228.660156 186.417969 228.941406 187.027344 229.195312 C 187.640625 229.449219 188.261719 229.671875 188.894531 229.863281 C 189.523438 230.054688 190.164062 230.214844 190.8125 230.34375 C 191.460938 230.472656 192.113281 230.570312 192.769531 230.632812 C 193.429688 230.699219 194.085938 230.730469 194.746094 230.730469 C 195.40625 230.730469 196.066406 230.699219 196.722656 230.632812 C 197.382812 230.570312 198.035156 230.472656 198.683594 230.34375 C 199.328125 230.214844 199.96875 230.054688 200.601562 229.863281 C 201.234375 229.671875 201.855469 229.449219 202.464844 229.195312 C 203.074219 228.941406 203.671875 228.660156 204.253906 228.347656 C 204.835938 228.039062 205.402344 227.699219 205.953125 227.332031 C 206.5 226.964844 207.03125 226.570312 207.542969 226.152344 C 208.054688 225.734375 208.542969 225.289062 209.007812 224.824219 C 209.476562 224.355469 209.917969 223.867188 210.335938 223.355469 C 210.757812 222.847656 211.148438 222.316406 211.515625 221.765625 C 211.882812 221.21875 212.222656 220.652344 212.535156 220.070312 C 212.847656 219.488281 213.128906 218.890625 213.378906 218.28125 C 213.632812 217.671875 213.855469 217.050781 214.046875 216.417969 C 214.238281 215.785156 214.398438 215.144531 214.527344 214.496094 C 214.65625 213.847656 214.753906 213.195312 214.820312 212.539062 C 214.882812 211.882812 214.914062 211.222656 214.914062 210.5625 Z M 214.914062 210.5625 " fill-opacity="1" fill-rule="nonzero"/><path fill="#8fff00" d="M 211.230469 262.515625 L 195.457031 262.519531 C 195.351562 262.519531 195.257812 262.484375 195.183594 262.40625 C 195.109375 262.328125 195.070312 262.234375 195.070312 262.125 L 195.082031 253.238281 C 195.082031 253.140625 195.117188 253.058594 195.183594 252.988281 C 195.253906 252.921875 195.335938 252.886719 195.433594 252.886719 L 218.292969 252.882812 C 218.546875 252.882812 218.761719 252.976562 218.9375 253.164062 C 228.65625 263.359375 227.789062 279.160156 219.867188 289.992188 C 209.1875 304.578125 188.003906 307.066406 174.375 295.132812 C 161.824219 284.152344 159.960938 266.1875 169.796875 252.714844 C 169.855469 252.636719 169.933594 252.597656 170.03125 252.597656 C 170.128906 252.597656 170.207031 252.636719 170.265625 252.714844 L 177.042969 262.144531 C 177.148438 262.296875 177.203125 262.46875 177.207031 262.65625 C 177.207031 262.84375 177.15625 263.011719 177.046875 263.167969 C 172.371094 269.957031 174.71875 279.667969 180.117188 285.296875 C 190.21875 295.839844 207.164062 292.632812 213.164062 279.628906 C 214.726562 276.242188 215.507812 271.34375 214.507812 267.855469 C 214.058594 266.296875 213.160156 264.613281 211.808594 262.8125 C 211.664062 262.613281 211.46875 262.515625 211.230469 262.515625 Z M 211.230469 262.515625 " fill-opacity="1" fill-rule="nonzero"/></svg>