<svg xmlns="http://www.w3.org/2000/svg" xmlns:xlink="http://www.w3.org/1999/xlink" width="500" zoomAndPan="magnify" viewBox="0 0 375 374.999991" height="500" preserveAspectRatio="xMidYMid meet" version="1.0"><defs><clipPath id="9a0fd1ee5e"><path d="M 103 19.597656 L 235 19.597656 L 235 163 L 103 163 Z M 103 19.597656 " clip-rule="nonzero"/></clipPath><clipPath id="4e7260e0de"><path d="M 41 108 L 308 108 L 308 337.597656 L 41 337.597656 Z M 41 108 " clip-rule="nonzero"/></clipPath><clipPath id="1c95d53d7f"><path d="M 71 108 L 337.230469 108 L 337.230469 337.597656 L 71 337.597656 Z M 71 108 " clip-rule="nonzero"/></clipPath><clipPath id="cb72aa8e5d"><path d="M 136 19.597656 L 268 19.597656 L 268 163 L 136 163 Z M 136 19.597656 " clip-rule="nonzero"/></clipPath><clipPath id="1dd303cfc5"><path d="M 136.082031 178.546875 L 304.359375 178.546875 L 304.359375 328.398438 L 136.082031 328.398438 Z M 136.082031 178.546875 " clip-rule="nonzero"/></clipPath><clipPath id="d368dd7de7"><path d="M 224 178.546875 L 238.703125 178.546875 L 238.703125 193 L 224 193 Z M 224 178.546875 " clip-rule="nonzero"/></clipPath></defs><g clip-path="url(#9a0fd1ee5e)"><path fill="#545454" d="M 226.734375 162.976562 C 222.601562 162.976562 219.246094 159.621094 219.246094 155.488281 L 219.246094 84.90625 C 219.246094 57.125 196.644531 34.523438 168.878906 34.523438 C 141.097656 34.523438 118.496094 57.125 118.496094 84.90625 L 118.496094 155.488281 C 118.496094 159.621094 115.144531 162.976562 111.027344 162.976562 C 106.875 162.976562 103.539062 159.621094 103.539062 155.488281 L 103.539062 84.90625 C 103.539062 48.875 132.847656 19.566406 168.878906 19.566406 C 204.914062 19.566406 234.222656 48.875 234.222656 84.90625 L 234.222656 155.488281 C 234.222656 159.621094 230.882812 162.976562 226.734375 162.976562 " fill-opacity="1" fill-rule="nonzero"/></g><g clip-path="url(#4e7260e0de)"><path fill="#393838" d="M 307.378906 319.347656 C 307.378906 329.347656 299.1875 337.523438 289.191406 337.523438 L 59.675781 337.523438 C 49.675781 337.523438 41.503906 329.347656 41.503906 319.347656 L 41.707031 126.585938 C 41.707031 116.585938 49.894531 108.398438 59.894531 108.398438 L 284.855469 108.398438 C 294.851562 108.398438 303.042969 116.585938 303.042969 126.585938 L 307.378906 319.347656 " fill-opacity="1" fill-rule="nonzero"/></g><g clip-path="url(#1c95d53d7f)"><path fill="#000000" d="M 337.125 319.347656 C 337.125 329.347656 328.949219 337.523438 318.953125 337.523438 L 89.4375 337.523438 C 79.4375 337.523438 71.25 329.347656 71.25 319.347656 L 71.46875 126.585938 C 71.46875 116.585938 79.640625 108.398438 89.640625 108.398438 L 314.617188 108.398438 C 324.613281 108.398438 332.804688 116.585938 332.804688 126.585938 L 337.125 319.347656 " fill-opacity="1" fill-rule="nonzero"/></g><path fill="#393838" d="M 160.597656 155.488281 C 160.597656 165.082031 152.8125 172.867188 143.222656 172.867188 C 133.613281 172.867188 125.828125 165.082031 125.828125 155.488281 C 125.828125 145.878906 133.613281 138.113281 143.222656 138.113281 C 152.8125 138.113281 160.597656 145.878906 160.597656 155.488281 " fill-opacity="1" fill-rule="nonzero"/><path fill="#393838" d="M 278.425781 155.488281 C 278.425781 165.082031 270.644531 172.867188 261.050781 172.867188 C 251.441406 172.867188 243.660156 165.082031 243.660156 155.488281 C 243.660156 145.878906 251.441406 138.113281 261.050781 138.113281 C 270.644531 138.113281 278.425781 145.878906 278.425781 155.488281 " fill-opacity="1" fill-rule="nonzero"/><g clip-path="url(#cb72aa8e5d)"><path fill="#000000" d="M 259.992188 162.976562 C 255.855469 162.976562 252.503906 159.621094 252.503906 155.488281 L 252.503906 84.90625 C 252.503906 57.125 229.902344 34.523438 202.136719 34.523438 C 174.355469 34.523438 151.753906 57.125 151.753906 84.90625 L 151.753906 155.488281 C 151.753906 159.621094 148.398438 162.976562 144.265625 162.976562 C 140.132812 162.976562 136.777344 159.621094 136.777344 155.488281 L 136.777344 84.90625 C 136.777344 48.875 166.089844 19.566406 202.136719 19.566406 C 238.167969 19.566406 267.476562 48.875 267.476562 84.90625 L 267.476562 155.488281 C 267.476562 159.621094 264.125 162.976562 259.992188 162.976562 " fill-opacity="1" fill-rule="nonzero"/></g><path fill="#ffffff" d="M 274.871094 214.261719 L 272 214.125 C 267.226562 213.90625 263.203125 217.195312 263 221.5 L 261.863281 245.757812 L 261.847656 245.726562 L 258.679688 240.109375 L 230.074219 189.445312 C 228.074219 185.90625 223.582031 184.65625 220.042969 186.65625 L 217.90625 187.855469 C 214.363281 189.867188 213.117188 194.34375 215.113281 197.886719 L 228.808594 222.15625 C 227.09375 221.78125 225.253906 222 223.613281 222.921875 L 221.460938 224.121094 C 217.9375 226.132812 216.671875 230.609375 218.6875 234.152344 C 216.671875 230.609375 212.195312 229.363281 208.65625 231.359375 L 206.503906 232.574219 C 202.976562 234.574219 201.714844 239.066406 203.710938 242.605469 C 201.714844 239.066406 197.238281 237.816406 193.683594 239.8125 L 191.558594 241.015625 C 188.019531 243.011719 186.757812 247.503906 188.753906 251.042969 L 200.964844 272.679688 C 200.964844 272.679688 217.09375 302.175781 223.863281 310.316406 C 230.136719 317.914062 231.492188 316.011719 234.253906 318.757812 C 238.324219 322.8125 242.222656 326.199219 245.765625 324.199219 L 279.425781 305.203125 C 282.980469 303.207031 282.84375 297.855469 280.734375 292.519531 C 279.972656 290.585938 278.941406 285.15625 279.457031 284.269531 C 279.457031 284.269531 280.457031 280.664062 280.410156 280.027344 L 283.121094 222.453125 C 283.324219 218.148438 279.628906 214.480469 274.871094 214.261719 " fill-opacity="1" fill-rule="nonzero"/><g clip-path="url(#1dd303cfc5)"><path fill="#000000" d="M 136.082031 178.546875 L 304.078125 178.546875 L 304.078125 328.398438 L 136.082031 328.398438 Z M 136.082031 178.546875 " fill-opacity="1" fill-rule="nonzero"/></g><g clip-path="url(#d368dd7de7)"><path fill="#8fff00" d="M 238.703125 185.75 C 238.703125 186.210938 238.660156 186.671875 238.570312 187.128906 C 238.476562 187.582031 238.34375 188.023438 238.167969 188.453125 C 237.988281 188.882812 237.769531 189.289062 237.511719 189.675781 C 237.253906 190.0625 236.960938 190.417969 236.632812 190.746094 C 236.304688 191.074219 235.949219 191.367188 235.5625 191.625 C 235.175781 191.882812 234.769531 192.101562 234.339844 192.277344 C 233.910156 192.457031 233.46875 192.589844 233.015625 192.679688 C 232.558594 192.773438 232.101562 192.816406 231.636719 192.816406 C 231.171875 192.816406 230.710938 192.773438 230.257812 192.679688 C 229.800781 192.589844 229.359375 192.457031 228.929688 192.277344 C 228.5 192.101562 228.09375 191.882812 227.707031 191.625 C 227.324219 191.367188 226.964844 191.074219 226.636719 190.746094 C 226.308594 190.417969 226.015625 190.0625 225.757812 189.675781 C 225.5 189.289062 225.28125 188.882812 225.105469 188.453125 C 224.925781 188.023438 224.792969 187.582031 224.703125 187.128906 C 224.613281 186.671875 224.566406 186.210938 224.566406 185.75 C 224.566406 185.285156 224.613281 184.824219 224.703125 184.371094 C 224.792969 183.914062 224.925781 183.472656 225.105469 183.042969 C 225.28125 182.613281 225.5 182.207031 225.757812 181.820312 C 226.015625 181.433594 226.308594 181.078125 226.636719 180.75 C 226.964844 180.421875 227.324219 180.128906 227.707031 179.871094 C 228.09375 179.613281 228.5 179.394531 228.929688 179.21875 C 229.359375 179.039062 229.800781 178.90625 230.257812 178.816406 C 230.710938 178.726562 231.171875 178.679688 231.636719 178.679688 C 232.101562 178.679688 232.558594 178.726562 233.015625 178.816406 C 233.46875 178.90625 233.910156 179.039062 234.339844 179.21875 C 234.769531 179.394531 235.175781 179.613281 235.5625 179.871094 C 235.949219 180.128906 236.304688 180.421875 236.632812 180.75 C 236.960938 181.078125 237.253906 181.433594 237.511719 181.820312 C 237.769531 182.207031 237.988281 182.613281 238.167969 183.042969 C 238.34375 183.472656 238.476562 183.914062 238.570312 184.371094 C 238.660156 184.824219 238.703125 185.285156 238.703125 185.75 Z M 238.703125 185.75 " fill-opacity="1" fill-rule="nonzero"/></g><path fill="#8fff00" d="M 231.703125 215.382812 C 231.703125 216.355469 231.65625 217.324219 231.5625 218.292969 C 231.464844 219.257812 231.324219 220.21875 231.132812 221.175781 C 230.945312 222.128906 230.707031 223.070312 230.425781 224 C 230.144531 224.933594 229.816406 225.847656 229.445312 226.746094 C 229.070312 227.644531 228.65625 228.523438 228.199219 229.378906 C 227.738281 230.238281 227.238281 231.070312 226.699219 231.878906 C 226.160156 232.6875 225.582031 233.46875 224.964844 234.21875 C 224.347656 234.972656 223.695312 235.691406 223.007812 236.378906 C 222.320312 237.066406 221.597656 237.71875 220.847656 238.335938 C 220.097656 238.953125 219.316406 239.53125 218.507812 240.070312 C 217.699219 240.613281 216.863281 241.113281 216.007812 241.570312 C 215.148438 242.027344 214.273438 242.445312 213.371094 242.816406 C 212.472656 243.1875 211.558594 243.515625 210.628906 243.796875 C 209.699219 244.082031 208.757812 244.316406 207.800781 244.507812 C 206.847656 244.695312 205.886719 244.839844 204.917969 244.933594 C 203.953125 245.027344 202.980469 245.078125 202.007812 245.078125 C 201.035156 245.078125 200.066406 245.027344 199.097656 244.933594 C 198.128906 244.839844 197.167969 244.695312 196.214844 244.507812 C 195.261719 244.316406 194.320312 244.082031 193.390625 243.796875 C 192.457031 243.515625 191.542969 243.1875 190.644531 242.816406 C 189.746094 242.445312 188.867188 242.027344 188.011719 241.570312 C 187.152344 241.113281 186.320312 240.613281 185.511719 240.070312 C 184.703125 239.53125 183.921875 238.953125 183.171875 238.335938 C 182.417969 237.71875 181.699219 237.066406 181.011719 236.378906 C 180.324219 235.691406 179.671875 234.972656 179.054688 234.21875 C 178.4375 233.46875 177.859375 232.6875 177.316406 231.878906 C 176.777344 231.070312 176.277344 230.238281 175.820312 229.378906 C 175.363281 228.523438 174.945312 227.644531 174.574219 226.746094 C 174.203125 225.847656 173.875 224.933594 173.59375 224 C 173.308594 223.070312 173.074219 222.128906 172.882812 221.175781 C 172.695312 220.21875 172.550781 219.257812 172.457031 218.292969 C 172.363281 217.324219 172.3125 216.355469 172.3125 215.382812 C 172.3125 214.410156 172.363281 213.4375 172.457031 212.46875 C 172.550781 211.503906 172.695312 210.542969 172.882812 209.589844 C 173.074219 208.632812 173.308594 207.691406 173.59375 206.761719 C 173.875 205.832031 174.203125 204.914062 174.574219 204.015625 C 174.945312 203.117188 175.363281 202.242188 175.820312 201.382812 C 176.277344 200.523438 176.777344 199.691406 177.316406 198.882812 C 177.859375 198.074219 178.4375 197.292969 179.054688 196.542969 C 179.671875 195.789062 180.324219 195.070312 181.011719 194.382812 C 181.699219 193.695312 182.417969 193.042969 183.171875 192.425781 C 183.921875 191.808594 184.703125 191.230469 185.511719 190.691406 C 186.320312 190.148438 187.152344 189.652344 188.011719 189.191406 C 188.867188 188.734375 189.746094 188.320312 190.644531 187.945312 C 191.542969 187.574219 192.457031 187.246094 193.390625 186.964844 C 194.320312 186.683594 195.261719 186.445312 196.214844 186.257812 C 197.167969 186.066406 198.128906 185.925781 199.097656 185.828125 C 200.066406 185.734375 201.035156 185.6875 202.007812 185.6875 C 202.980469 185.6875 203.953125 185.734375 204.917969 185.828125 C 205.886719 185.925781 206.847656 186.066406 207.800781 186.257812 C 208.757812 186.445312 209.699219 186.683594 210.628906 186.964844 C 211.558594 187.246094 212.472656 187.574219 213.371094 187.945312 C 214.273438 188.320312 215.148438 188.734375 216.007812 189.191406 C 216.863281 189.652344 217.699219 190.148438 218.507812 190.691406 C 219.316406 191.230469 220.097656 191.808594 220.847656 192.425781 C 221.597656 193.042969 222.320312 193.695312 223.007812 194.382812 C 223.695312 195.070312 224.347656 195.789062 224.964844 196.542969 C 225.582031 197.292969 226.160156 198.074219 226.699219 198.882812 C 227.238281 199.691406 227.738281 200.523438 228.199219 201.382812 C 228.65625 202.242188 229.070312 203.117188 229.445312 204.015625 C 229.816406 204.914062 230.144531 205.832031 230.425781 206.761719 C 230.707031 207.691406 230.945312 208.632812 231.132812 209.589844 C 231.324219 210.542969 231.464844 211.503906 231.5625 212.46875 C 231.65625 213.4375 231.703125 214.410156 231.703125 215.382812 Z M 221.171875 215.382812 C 221.171875 214.753906 221.140625 214.128906 221.078125 213.503906 C 221.015625 212.878906 220.925781 212.257812 220.800781 211.644531 C 220.679688 211.027344 220.527344 210.417969 220.34375 209.820312 C 220.164062 209.21875 219.953125 208.628906 219.710938 208.046875 C 219.472656 207.46875 219.203125 206.902344 218.90625 206.347656 C 218.613281 205.796875 218.289062 205.257812 217.941406 204.734375 C 217.59375 204.214844 217.21875 203.710938 216.820312 203.226562 C 216.421875 202.742188 216 202.277344 215.558594 201.832031 C 215.113281 201.386719 214.648438 200.96875 214.164062 200.570312 C 213.679688 200.171875 213.175781 199.796875 212.65625 199.449219 C 212.132812 199.101562 211.59375 198.777344 211.042969 198.484375 C 210.488281 198.1875 209.921875 197.917969 209.339844 197.679688 C 208.761719 197.4375 208.171875 197.226562 207.570312 197.046875 C 206.96875 196.863281 206.363281 196.710938 205.746094 196.589844 C 205.132812 196.464844 204.511719 196.375 203.886719 196.3125 C 203.261719 196.25 202.636719 196.21875 202.007812 196.21875 C 201.382812 196.21875 200.753906 196.25 200.132812 196.3125 C 199.507812 196.375 198.886719 196.464844 198.269531 196.589844 C 197.65625 196.710938 197.046875 196.863281 196.445312 197.046875 C 195.847656 197.226562 195.257812 197.4375 194.675781 197.679688 C 194.097656 197.917969 193.53125 198.1875 192.976562 198.484375 C 192.421875 198.777344 191.886719 199.101562 191.363281 199.449219 C 190.84375 199.796875 190.339844 200.171875 189.855469 200.570312 C 189.367188 200.96875 188.902344 201.386719 188.460938 201.832031 C 188.015625 202.277344 187.59375 202.742188 187.199219 203.226562 C 186.800781 203.710938 186.425781 204.214844 186.078125 204.734375 C 185.730469 205.257812 185.40625 205.796875 185.109375 206.347656 C 184.816406 206.902344 184.546875 207.46875 184.308594 208.046875 C 184.066406 208.628906 183.855469 209.21875 183.671875 209.820312 C 183.492188 210.417969 183.339844 211.027344 183.214844 211.644531 C 183.09375 212.257812 183 212.878906 182.941406 213.503906 C 182.878906 214.128906 182.847656 214.753906 182.847656 215.382812 C 182.847656 216.007812 182.878906 216.636719 182.941406 217.257812 C 183 217.882812 183.09375 218.503906 183.214844 219.121094 C 183.339844 219.734375 183.492188 220.34375 183.671875 220.941406 C 183.855469 221.542969 184.066406 222.132812 184.308594 222.714844 C 184.546875 223.292969 184.816406 223.859375 185.109375 224.414062 C 185.40625 224.96875 185.730469 225.503906 186.078125 226.027344 C 186.425781 226.546875 186.800781 227.050781 187.199219 227.535156 C 187.59375 228.023438 188.015625 228.484375 188.460938 228.929688 C 188.902344 229.375 189.367188 229.792969 189.855469 230.191406 C 190.339844 230.589844 190.84375 230.964844 191.363281 231.3125 C 191.886719 231.660156 192.421875 231.984375 192.976562 232.28125 C 193.53125 232.574219 194.097656 232.84375 194.675781 233.082031 C 195.257812 233.324219 195.847656 233.535156 196.445312 233.71875 C 197.046875 233.898438 197.65625 234.050781 198.269531 234.175781 C 198.886719 234.296875 199.507812 234.386719 200.132812 234.449219 C 200.753906 234.511719 201.382812 234.542969 202.007812 234.542969 C 202.636719 234.542969 203.261719 234.511719 203.886719 234.449219 C 204.511719 234.386719 205.132812 234.296875 205.746094 234.175781 C 206.363281 234.050781 206.96875 233.898438 207.570312 233.71875 C 208.171875 233.535156 208.761719 233.324219 209.339844 233.082031 C 209.921875 232.84375 210.488281 232.574219 211.042969 232.28125 C 211.59375 231.984375 212.132812 231.660156 212.65625 231.3125 C 213.175781 230.964844 213.679688 230.589844 214.164062 230.191406 C 214.648438 229.792969 215.113281 229.375 215.558594 228.929688 C 216 228.484375 216.421875 228.023438 216.820312 227.535156 C 217.21875 227.050781 217.59375 226.546875 217.941406 226.027344 C 218.289062 225.503906 218.613281 224.96875 218.90625 224.414062 C 219.203125 223.859375 219.472656 223.292969 219.710938 222.714844 C 219.953125 222.132812 220.164062 221.542969 220.34375 220.941406 C 220.527344 220.34375 220.679688 219.734375 220.800781 219.121094 C 220.925781 218.503906 221.015625 217.882812 221.078125 217.257812 C 221.140625 216.636719 221.171875 216.007812 221.171875 215.382812 Z M 221.171875 215.382812 " fill-opacity="1" fill-rule="nonzero"/><path fill="#8fff00" d="M 217.667969 264.738281 L 202.683594 264.746094 C 202.582031 264.746094 202.496094 264.707031 202.421875 264.632812 C 202.351562 264.5625 202.316406 264.472656 202.316406 264.367188 L 202.328125 255.921875 C 202.328125 255.832031 202.359375 255.753906 202.425781 255.6875 C 202.488281 255.625 202.566406 255.59375 202.660156 255.59375 L 224.378906 255.585938 C 224.621094 255.585938 224.824219 255.675781 224.992188 255.855469 C 234.226562 265.539062 233.398438 280.550781 225.875 290.84375 C 215.726562 304.699219 195.601562 307.0625 182.652344 295.726562 C 170.730469 285.292969 168.960938 268.230469 178.304688 255.429688 C 178.363281 255.355469 178.4375 255.316406 178.527344 255.316406 C 178.621094 255.316406 178.695312 255.355469 178.75 255.429688 L 185.1875 264.386719 C 185.289062 264.53125 185.34375 264.695312 185.34375 264.871094 C 185.34375 265.050781 185.296875 265.210938 185.195312 265.355469 C 180.753906 271.808594 182.980469 281.035156 188.109375 286.382812 C 197.707031 296.398438 213.808594 293.351562 219.507812 280.996094 C 220.988281 277.78125 221.734375 273.125 220.78125 269.8125 C 220.355469 268.332031 219.5 266.734375 218.21875 265.019531 C 218.078125 264.832031 217.894531 264.738281 217.667969 264.738281 Z M 217.667969 264.738281 " fill-opacity="1" fill-rule="nonzero"/></svg>