<svg xmlns="http://www.w3.org/2000/svg" xmlns:xlink="http://www.w3.org/1999/xlink" width="500" zoomAndPan="magnify" viewBox="0 0 375 374.999991" height="500" preserveAspectRatio="xMidYMid meet" version="1.0"><defs><g/><clipPath id="3f45c53a2b"><path d="M 309 95.675781 L 323.773438 95.675781 L 323.773438 110 L 309 110 Z M 309 95.675781 " clip-rule="nonzero"/></clipPath></defs><rect x="-37.5" width="450" fill="#ffffff" y="-37.499999" height="449.999989" fill-opacity="1"/><rect x="-37.5" width="450" fill="#8fff00" y="-37.499999" height="449.999989" fill-opacity="1"/><g clip-path="url(#3f45c53a2b)"><path fill="#000000" d="M 323.773438 102.894531 C 323.773438 103.363281 323.726562 103.824219 323.636719 104.28125 C 323.546875 104.734375 323.410156 105.179688 323.234375 105.609375 C 323.054688 106.039062 322.839844 106.449219 322.582031 106.835938 C 322.324219 107.222656 322.03125 107.582031 321.699219 107.910156 C 321.371094 108.242188 321.015625 108.535156 320.628906 108.792969 C 320.242188 109.050781 319.835938 109.269531 319.40625 109.449219 C 318.980469 109.625 318.535156 109.761719 318.082031 109.851562 C 317.625 109.941406 317.167969 109.988281 316.703125 109.988281 C 316.238281 109.988281 315.777344 109.941406 315.324219 109.851562 C 314.867188 109.761719 314.425781 109.625 313.996094 109.449219 C 313.570312 109.269531 313.160156 109.050781 312.777344 108.792969 C 312.390625 108.535156 312.03125 108.242188 311.703125 107.910156 C 311.375 107.582031 311.082031 107.222656 310.824219 106.835938 C 310.566406 106.449219 310.347656 106.039062 310.171875 105.609375 C 309.996094 105.179688 309.859375 104.734375 309.769531 104.28125 C 309.679688 103.824219 309.632812 103.363281 309.632812 102.894531 C 309.632812 102.429688 309.679688 101.96875 309.769531 101.511719 C 309.859375 101.054688 309.996094 100.613281 310.171875 100.183594 C 310.347656 99.75 310.566406 99.34375 310.824219 98.957031 C 311.082031 98.566406 311.375 98.210938 311.703125 97.878906 C 312.03125 97.550781 312.390625 97.257812 312.777344 97 C 313.160156 96.738281 313.570312 96.519531 313.996094 96.34375 C 314.425781 96.164062 314.867188 96.03125 315.324219 95.941406 C 315.777344 95.847656 316.238281 95.804688 316.703125 95.804688 C 317.167969 95.804688 317.625 95.847656 318.082031 95.941406 C 318.535156 96.03125 318.980469 96.164062 319.40625 96.34375 C 319.835938 96.519531 320.242188 96.738281 320.628906 97 C 321.015625 97.257812 321.371094 97.550781 321.699219 97.878906 C 322.03125 98.210938 322.324219 98.566406 322.582031 98.957031 C 322.839844 99.34375 323.054688 99.75 323.234375 100.183594 C 323.410156 100.613281 323.546875 101.054688 323.636719 101.511719 C 323.726562 101.96875 323.773438 102.429688 323.773438 102.894531 Z M 323.773438 102.894531 " fill-opacity="1" fill-rule="nonzero"/></g><path fill="#000000" d="M 316.773438 132.628906 C 316.773438 133.605469 316.722656 134.578125 316.628906 135.546875 C 316.535156 136.519531 316.390625 137.484375 316.199219 138.441406 C 316.011719 139.398438 315.773438 140.34375 315.492188 141.277344 C 315.210938 142.210938 314.882812 143.128906 314.511719 144.03125 C 314.140625 144.929688 313.722656 145.8125 313.265625 146.671875 C 312.808594 147.535156 312.308594 148.371094 311.765625 149.179688 C 311.226562 149.992188 310.648438 150.773438 310.03125 151.53125 C 309.414062 152.285156 308.761719 153.003906 308.074219 153.695312 C 307.386719 154.386719 306.667969 155.039062 305.914062 155.660156 C 305.164062 156.277344 304.382812 156.859375 303.574219 157.402344 C 302.765625 157.941406 301.933594 158.445312 301.074219 158.90625 C 300.214844 159.363281 299.339844 159.78125 298.441406 160.15625 C 297.542969 160.527344 296.628906 160.855469 295.695312 161.140625 C 294.765625 161.421875 293.824219 161.660156 292.871094 161.851562 C 291.914062 162.039062 290.953125 162.183594 289.988281 162.277344 C 289.019531 162.375 288.046875 162.421875 287.074219 162.421875 C 286.105469 162.421875 285.132812 162.375 284.164062 162.277344 C 283.199219 162.183594 282.238281 162.039062 281.28125 161.851562 C 280.328125 161.660156 279.386719 161.421875 278.457031 161.140625 C 277.523438 160.855469 276.609375 160.527344 275.710938 160.15625 C 274.8125 159.78125 273.9375 159.363281 273.078125 158.90625 C 272.21875 158.445312 271.386719 157.941406 270.578125 157.402344 C 269.769531 156.859375 268.988281 156.277344 268.238281 155.660156 C 267.484375 155.039062 266.765625 154.386719 266.078125 153.695312 C 265.390625 153.003906 264.738281 152.285156 264.121094 151.53125 C 263.503906 150.773438 262.925781 149.992188 262.386719 149.179688 C 261.84375 148.371094 261.34375 147.535156 260.886719 146.671875 C 260.429688 145.8125 260.011719 144.929688 259.640625 144.03125 C 259.269531 143.128906 258.941406 142.210938 258.660156 141.277344 C 258.378906 140.34375 258.140625 139.398438 257.953125 138.441406 C 257.761719 137.484375 257.617188 136.519531 257.523438 135.546875 C 257.429688 134.578125 257.378906 133.605469 257.378906 132.628906 C 257.378906 131.652344 257.429688 130.679688 257.523438 129.707031 C 257.617188 128.734375 257.761719 127.773438 257.953125 126.816406 C 258.140625 125.859375 258.378906 124.914062 258.660156 123.980469 C 258.941406 123.046875 259.269531 122.128906 259.640625 121.226562 C 260.011719 120.324219 260.429688 119.441406 260.886719 118.582031 C 261.34375 117.722656 261.84375 116.886719 262.386719 116.074219 C 262.925781 115.261719 263.503906 114.480469 264.121094 113.726562 C 264.738281 112.972656 265.390625 112.25 266.078125 111.558594 C 266.765625 110.871094 267.484375 110.214844 268.238281 109.597656 C 268.988281 108.976562 269.769531 108.398438 270.578125 107.855469 C 271.386719 107.3125 272.21875 106.8125 273.078125 106.351562 C 273.9375 105.890625 274.8125 105.472656 275.710938 105.101562 C 276.609375 104.726562 277.523438 104.398438 278.457031 104.117188 C 279.386719 103.832031 280.328125 103.597656 281.28125 103.40625 C 282.238281 103.214844 283.199219 103.070312 284.164062 102.976562 C 285.132812 102.882812 286.105469 102.832031 287.074219 102.832031 C 288.046875 102.832031 289.019531 102.882812 289.988281 102.976562 C 290.953125 103.070312 291.914062 103.214844 292.871094 103.40625 C 293.824219 103.597656 294.765625 103.832031 295.695312 104.117188 C 296.628906 104.398438 297.542969 104.726562 298.441406 105.101562 C 299.339844 105.472656 300.214844 105.890625 301.074219 106.351562 C 301.933594 106.8125 302.765625 107.3125 303.574219 107.855469 C 304.382812 108.398438 305.164062 108.976562 305.914062 109.597656 C 306.667969 110.214844 307.386719 110.871094 308.074219 111.558594 C 308.761719 112.25 309.414062 112.972656 310.03125 113.726562 C 310.648438 114.480469 311.226562 115.261719 311.765625 116.074219 C 312.308594 116.886719 312.808594 117.722656 313.265625 118.582031 C 313.722656 119.441406 314.140625 120.324219 314.511719 121.226562 C 314.882812 122.128906 315.210938 123.046875 315.492188 123.980469 C 315.773438 124.914062 316.011719 125.859375 316.199219 126.816406 C 316.390625 127.773438 316.535156 128.734375 316.628906 129.707031 C 316.722656 130.679688 316.773438 131.652344 316.773438 132.628906 Z M 306.238281 132.628906 C 306.238281 132 306.207031 131.371094 306.144531 130.742188 C 306.082031 130.117188 305.992188 129.496094 305.867188 128.878906 C 305.746094 128.257812 305.59375 127.648438 305.410156 127.046875 C 305.230469 126.445312 305.019531 125.851562 304.777344 125.269531 C 304.539062 124.6875 304.269531 124.121094 303.972656 123.566406 C 303.679688 123.011719 303.355469 122.46875 303.007812 121.945312 C 302.660156 121.421875 302.285156 120.917969 301.886719 120.429688 C 301.488281 119.945312 301.070312 119.480469 300.625 119.035156 C 300.179688 118.589844 299.71875 118.167969 299.230469 117.765625 C 298.746094 117.367188 298.242188 116.992188 297.722656 116.644531 C 297.199219 116.292969 296.660156 115.96875 296.109375 115.671875 C 295.554688 115.375 294.988281 115.105469 294.410156 114.867188 C 293.828125 114.625 293.238281 114.414062 292.636719 114.230469 C 292.039062 114.046875 291.429688 113.894531 290.8125 113.773438 C 290.199219 113.648438 289.578125 113.558594 288.953125 113.496094 C 288.328125 113.433594 287.703125 113.402344 287.074219 113.402344 C 286.449219 113.402344 285.824219 113.433594 285.199219 113.496094 C 284.574219 113.558594 283.953125 113.648438 283.339844 113.773438 C 282.722656 113.894531 282.113281 114.046875 281.515625 114.230469 C 280.914062 114.414062 280.324219 114.625 279.742188 114.867188 C 279.164062 115.105469 278.597656 115.375 278.042969 115.671875 C 277.492188 115.96875 276.953125 116.292969 276.429688 116.644531 C 275.910156 116.992188 275.40625 117.367188 274.921875 117.765625 C 274.433594 118.167969 273.972656 118.589844 273.527344 119.035156 C 273.082031 119.480469 272.664062 119.945312 272.265625 120.429688 C 271.867188 120.917969 271.492188 121.421875 271.144531 121.945312 C 270.796875 122.46875 270.472656 123.011719 270.179688 123.566406 C 269.882812 124.121094 269.613281 124.6875 269.375 125.269531 C 269.132812 125.851562 268.921875 126.445312 268.742188 127.046875 C 268.558594 127.648438 268.40625 128.257812 268.285156 128.878906 C 268.160156 129.496094 268.070312 130.117188 268.007812 130.742188 C 267.945312 131.371094 267.914062 132 267.914062 132.628906 C 267.914062 133.257812 267.945312 133.886719 268.007812 134.511719 C 268.070312 135.140625 268.160156 135.761719 268.285156 136.378906 C 268.40625 136.996094 268.558594 137.605469 268.742188 138.207031 C 268.921875 138.8125 269.132812 139.402344 269.375 139.984375 C 269.613281 140.566406 269.882812 141.136719 270.179688 141.691406 C 270.472656 142.246094 270.796875 142.785156 271.144531 143.308594 C 271.492188 143.832031 271.867188 144.335938 272.265625 144.824219 C 272.664062 145.3125 273.082031 145.777344 273.527344 146.222656 C 273.972656 146.667969 274.433594 147.089844 274.921875 147.488281 C 275.40625 147.886719 275.910156 148.261719 276.429688 148.613281 C 276.953125 148.960938 277.492188 149.285156 278.042969 149.582031 C 278.597656 149.878906 279.164062 150.148438 279.742188 150.390625 C 280.324219 150.628906 280.914062 150.84375 281.515625 151.023438 C 282.113281 151.207031 282.722656 151.359375 283.339844 151.484375 C 283.953125 151.605469 284.574219 151.699219 285.199219 151.761719 C 285.824219 151.820312 286.449219 151.851562 287.074219 151.851562 C 287.703125 151.851562 288.328125 151.820312 288.953125 151.761719 C 289.578125 151.699219 290.199219 151.605469 290.8125 151.484375 C 291.429688 151.359375 292.039062 151.207031 292.636719 151.023438 C 293.238281 150.84375 293.828125 150.628906 294.410156 150.390625 C 294.988281 150.148438 295.554688 149.878906 296.109375 149.582031 C 296.660156 149.285156 297.199219 148.960938 297.722656 148.613281 C 298.242188 148.261719 298.746094 147.886719 299.230469 147.488281 C 299.71875 147.089844 300.179688 146.667969 300.625 146.222656 C 301.070312 145.777344 301.488281 145.3125 301.886719 144.824219 C 302.285156 144.335938 302.660156 143.832031 303.007812 143.308594 C 303.355469 142.785156 303.679688 142.246094 303.972656 141.691406 C 304.269531 141.136719 304.539062 140.566406 304.777344 139.984375 C 305.019531 139.402344 305.230469 138.8125 305.410156 138.207031 C 305.59375 137.605469 305.746094 136.996094 305.867188 136.378906 C 305.992188 135.761719 306.082031 135.140625 306.144531 134.511719 C 306.207031 133.886719 306.238281 133.257812 306.238281 132.628906 Z M 306.238281 132.628906 " fill-opacity="1" fill-rule="nonzero"/><path fill="#000000" d="M 302.734375 182.148438 L 287.75 182.15625 C 287.648438 182.15625 287.5625 182.121094 287.492188 182.046875 C 287.417969 181.972656 287.382812 181.882812 287.382812 181.78125 L 287.394531 173.304688 C 287.394531 173.214844 287.425781 173.136719 287.492188 173.070312 C 287.558594 173.003906 287.636719 172.972656 287.726562 172.972656 L 309.445312 172.96875 C 309.6875 172.96875 309.890625 173.058594 310.058594 173.238281 C 319.292969 182.953125 318.464844 198.015625 310.941406 208.339844 C 300.792969 222.246094 280.671875 224.617188 267.722656 213.242188 C 255.796875 202.773438 254.027344 185.652344 263.375 172.808594 C 263.429688 172.734375 263.503906 172.695312 263.597656 172.695312 C 263.6875 172.695312 263.761719 172.734375 263.816406 172.808594 L 270.253906 181.796875 C 270.359375 181.945312 270.410156 182.105469 270.410156 182.285156 C 270.414062 182.460938 270.363281 182.625 270.261719 182.769531 C 265.820312 189.242188 268.046875 198.5 273.175781 203.867188 C 282.773438 213.914062 298.875 210.859375 304.574219 198.460938 C 306.054688 195.234375 306.800781 190.566406 305.847656 187.238281 C 305.425781 185.753906 304.570312 184.152344 303.285156 182.433594 C 303.148438 182.242188 302.964844 182.148438 302.734375 182.148438 Z M 302.734375 182.148438 " fill-opacity="1" fill-rule="nonzero"/><g fill="#000000" fill-opacity="1"><g transform="translate(35.490332, 219.525089)"><g><path d="M 44.171875 -28.671875 L 55.921875 -28.671875 L 55.921875 -6.109375 C 52.898438 -3.835938 49.40625 -2.09375 45.4375 -0.875 C 41.46875 0.34375 37.46875 0.953125 33.4375 0.953125 C 27.664062 0.953125 22.476562 -0.273438 17.875 -2.734375 C 13.269531 -5.203125 9.65625 -8.617188 7.03125 -12.984375 C 4.40625 -17.359375 3.09375 -22.296875 3.09375 -27.796875 C 3.09375 -33.304688 4.40625 -38.242188 7.03125 -42.609375 C 9.65625 -46.984375 13.296875 -50.398438 17.953125 -52.859375 C 22.609375 -55.328125 27.851562 -56.5625 33.6875 -56.5625 C 38.550781 -56.5625 42.96875 -55.738281 46.9375 -54.09375 C 50.914062 -52.457031 54.253906 -50.078125 56.953125 -46.953125 L 48.6875 -39.328125 C 44.71875 -43.503906 39.925781 -45.59375 34.3125 -45.59375 C 30.769531 -45.59375 27.617188 -44.851562 24.859375 -43.375 C 22.109375 -41.894531 19.960938 -39.800781 18.421875 -37.09375 C 16.890625 -34.394531 16.125 -31.296875 16.125 -27.796875 C 16.125 -24.359375 16.890625 -21.285156 18.421875 -18.578125 C 19.960938 -15.878906 22.097656 -13.773438 24.828125 -12.265625 C 27.554688 -10.765625 30.664062 -10.015625 34.15625 -10.015625 C 37.863281 -10.015625 41.203125 -10.804688 44.171875 -12.390625 Z M 44.171875 -28.671875 "/></g></g></g><g fill="#000000" fill-opacity="1"><g transform="translate(96.730615, 219.525089)"><g><path d="M 5.71875 -58.9375 L 18.109375 -58.9375 L 18.109375 0 L 5.71875 0 Z M 5.71875 -58.9375 "/></g></g></g><g fill="#000000" fill-opacity="1"><g transform="translate(120.638947, 219.525089)"><g><path d="M 22.953125 -43.375 C 29.578125 -43.375 34.660156 -41.796875 38.203125 -38.640625 C 41.753906 -35.492188 43.53125 -30.742188 43.53125 -24.390625 L 43.53125 0 L 31.9375 0 L 31.9375 -5.328125 C 29.601562 -1.347656 25.257812 0.640625 18.90625 0.640625 C 15.625 0.640625 12.773438 0.0820312 10.359375 -1.03125 C 7.953125 -2.144531 6.113281 -3.679688 4.84375 -5.640625 C 3.570312 -7.597656 2.9375 -9.820312 2.9375 -12.3125 C 2.9375 -16.28125 4.429688 -19.40625 7.421875 -21.6875 C 10.421875 -23.96875 15.046875 -25.109375 21.296875 -25.109375 L 31.140625 -25.109375 C 31.140625 -27.804688 30.316406 -29.878906 28.671875 -31.328125 C 27.035156 -32.785156 24.578125 -33.515625 21.296875 -33.515625 C 19.015625 -33.515625 16.773438 -33.15625 14.578125 -32.4375 C 12.378906 -31.726562 10.507812 -30.765625 8.96875 -29.546875 L 4.53125 -38.203125 C 6.851562 -39.847656 9.644531 -41.117188 12.90625 -42.015625 C 16.164062 -42.921875 19.515625 -43.375 22.953125 -43.375 Z M 22 -7.703125 C 24.125 -7.703125 26.003906 -8.191406 27.640625 -9.171875 C 29.285156 -10.148438 30.453125 -11.59375 31.140625 -13.5 L 31.140625 -17.875 L 22.640625 -17.875 C 17.554688 -17.875 15.015625 -16.207031 15.015625 -12.875 C 15.015625 -11.28125 15.632812 -10.019531 16.875 -9.09375 C 18.125 -8.164062 19.832031 -7.703125 22 -7.703125 Z M 22 -7.703125 "/></g></g></g><g fill="#000000" fill-opacity="1"><g transform="translate(169.647065, 219.525089)"><g><path d="M 20.09375 0.640625 C 16.550781 0.640625 13.082031 0.203125 9.6875 -0.671875 C 6.300781 -1.546875 3.601562 -2.644531 1.59375 -3.96875 L 5.71875 -12.875 C 7.625 -11.65625 9.925781 -10.660156 12.625 -9.890625 C 15.332031 -9.117188 17.984375 -8.734375 20.578125 -8.734375 C 25.816406 -8.734375 28.4375 -10.03125 28.4375 -12.625 C 28.4375 -13.84375 27.722656 -14.71875 26.296875 -15.25 C 24.867188 -15.78125 22.671875 -16.234375 19.703125 -16.609375 C 16.203125 -17.128906 13.3125 -17.734375 11.03125 -18.421875 C 8.757812 -19.117188 6.789062 -20.335938 5.125 -22.078125 C 3.457031 -23.828125 2.625 -26.316406 2.625 -29.546875 C 2.625 -32.253906 3.40625 -34.648438 4.96875 -36.734375 C 6.53125 -38.828125 8.804688 -40.457031 11.796875 -41.625 C 14.785156 -42.789062 18.320312 -43.375 22.40625 -43.375 C 25.414062 -43.375 28.414062 -43.039062 31.40625 -42.375 C 34.40625 -41.71875 36.882812 -40.804688 38.84375 -39.640625 L 34.71875 -30.828125 C 30.957031 -32.941406 26.851562 -34 22.40625 -34 C 19.75 -34 17.757812 -33.628906 16.4375 -32.890625 C 15.113281 -32.148438 14.453125 -31.195312 14.453125 -30.03125 C 14.453125 -28.707031 15.164062 -27.78125 16.59375 -27.25 C 18.03125 -26.71875 20.3125 -26.210938 23.4375 -25.734375 C 26.925781 -25.148438 29.78125 -24.523438 32 -23.859375 C 34.226562 -23.203125 36.164062 -22 37.8125 -20.25 C 39.457031 -18.507812 40.28125 -16.078125 40.28125 -12.953125 C 40.28125 -10.296875 39.484375 -7.9375 37.890625 -5.875 C 36.304688 -3.8125 33.988281 -2.207031 30.9375 -1.0625 C 27.894531 0.0703125 24.28125 0.640625 20.09375 0.640625 Z M 20.09375 0.640625 "/></g></g></g><g fill="#000000" fill-opacity="1"><g transform="translate(211.824228, 219.525089)"><g><path d="M 20.09375 0.640625 C 16.550781 0.640625 13.082031 0.203125 9.6875 -0.671875 C 6.300781 -1.546875 3.601562 -2.644531 1.59375 -3.96875 L 5.71875 -12.875 C 7.625 -11.65625 9.925781 -10.660156 12.625 -9.890625 C 15.332031 -9.117188 17.984375 -8.734375 20.578125 -8.734375 C 25.816406 -8.734375 28.4375 -10.03125 28.4375 -12.625 C 28.4375 -13.84375 27.722656 -14.71875 26.296875 -15.25 C 24.867188 -15.78125 22.671875 -16.234375 19.703125 -16.609375 C 16.203125 -17.128906 13.3125 -17.734375 11.03125 -18.421875 C 8.757812 -19.117188 6.789062 -20.335938 5.125 -22.078125 C 3.457031 -23.828125 2.625 -26.316406 2.625 -29.546875 C 2.625 -32.253906 3.40625 -34.648438 4.96875 -36.734375 C 6.53125 -38.828125 8.804688 -40.457031 11.796875 -41.625 C 14.785156 -42.789062 18.320312 -43.375 22.40625 -43.375 C 25.414062 -43.375 28.414062 -43.039062 31.40625 -42.375 C 34.40625 -41.71875 36.882812 -40.804688 38.84375 -39.640625 L 34.71875 -30.828125 C 30.957031 -32.941406 26.851562 -34 22.40625 -34 C 19.75 -34 17.757812 -33.628906 16.4375 -32.890625 C 15.113281 -32.148438 14.453125 -31.195312 14.453125 -30.03125 C 14.453125 -28.707031 15.164062 -27.78125 16.59375 -27.25 C 18.03125 -26.71875 20.3125 -26.210938 23.4375 -25.734375 C 26.925781 -25.148438 29.78125 -24.523438 32 -23.859375 C 34.226562 -23.203125 36.164062 -22 37.8125 -20.25 C 39.457031 -18.507812 40.28125 -16.078125 40.28125 -12.953125 C 40.28125 -10.296875 39.484375 -7.9375 37.890625 -5.875 C 36.304688 -3.8125 33.988281 -2.207031 30.9375 -1.0625 C 27.894531 0.0703125 24.28125 0.640625 20.09375 0.640625 Z M 20.09375 0.640625 "/></g></g></g></svg>