<svg xmlns="http://www.w3.org/2000/svg" xmlns:xlink="http://www.w3.org/1999/xlink" width="500" zoomAndPan="magnify" viewBox="0 0 375 374.999991" height="500" preserveAspectRatio="xMidYMid meet" version="1.0"><defs><filter x="0%" y="0%" width="100%" height="100%" id="8a6f1b9f99"><feColorMatrix values="0 0 0 0 1 0 0 0 0 1 0 0 0 0 1 0 0 0 1 0" color-interpolation-filters="sRGB"/></filter><g/><mask id="963407cb02"><g filter="url(#8a6f1b9f99)"><rect x="-37.5" width="450" fill="#000000" y="-37.499999" height="449.999989" fill-opacity="0.87"/></g></mask><clipPath id="a82388f497"><path d="M 55 0.675781 L 70.023438 0.675781 L 70.023438 15 L 55 15 Z M 55 0.675781 " clip-rule="nonzero"/></clipPath><clipPath id="1e51656f4b"><rect x="0" width="71" y="0" height="131"/></clipPath></defs><rect x="-37.5" width="450" fill="#ffffff" y="-37.499999" height="449.999989" fill-opacity="1"/><rect x="-37.5" width="450" fill="#8fff00" y="-37.499999" height="449.999989" fill-opacity="1"/><g mask="url(#963407cb02)"><g transform="matrix(1, 0, 0, 1, 253, 95)"><g clip-path="url(#1e51656f4b)"><g clip-path="url(#a82388f497)"><path fill="#000000" d="M 70.023438 7.894531 C 70.023438 8.363281 69.976562 8.824219 69.886719 9.28125 C 69.796875 9.734375 69.660156 10.179688 69.484375 10.609375 C 69.304688 11.039062 69.089844 11.449219 68.832031 11.835938 C 68.574219 12.222656 68.28125 12.582031 67.949219 12.910156 C 67.621094 13.242188 67.265625 13.535156 66.878906 13.792969 C 66.492188 14.050781 66.085938 14.269531 65.65625 14.449219 C 65.230469 14.625 64.785156 14.761719 64.332031 14.851562 C 63.875 14.941406 63.417969 14.988281 62.953125 14.988281 C 62.488281 14.988281 62.027344 14.941406 61.574219 14.851562 C 61.117188 14.761719 60.675781 14.625 60.246094 14.449219 C 59.820312 14.269531 59.410156 14.050781 59.027344 13.792969 C 58.640625 13.535156 58.28125 13.242188 57.953125 12.910156 C 57.625 12.582031 57.332031 12.222656 57.074219 11.835938 C 56.816406 11.449219 56.597656 11.039062 56.421875 10.609375 C 56.246094 10.179688 56.109375 9.734375 56.019531 9.28125 C 55.929688 8.824219 55.882812 8.363281 55.882812 7.894531 C 55.882812 7.429688 55.929688 6.96875 56.019531 6.511719 C 56.109375 6.054688 56.246094 5.613281 56.421875 5.183594 C 56.597656 4.75 56.816406 4.34375 57.074219 3.957031 C 57.332031 3.566406 57.625 3.210938 57.953125 2.878906 C 58.28125 2.550781 58.640625 2.257812 59.027344 2 C 59.410156 1.738281 59.820312 1.519531 60.246094 1.34375 C 60.675781 1.164062 61.117188 1.03125 61.574219 0.941406 C 62.027344 0.847656 62.488281 0.804688 62.953125 0.804688 C 63.417969 0.804688 63.875 0.847656 64.332031 0.941406 C 64.785156 1.03125 65.230469 1.164062 65.65625 1.34375 C 66.085938 1.519531 66.492188 1.738281 66.878906 2 C 67.265625 2.257812 67.621094 2.550781 67.949219 2.878906 C 68.28125 3.210938 68.574219 3.566406 68.832031 3.957031 C 69.089844 4.34375 69.304688 4.75 69.484375 5.183594 C 69.660156 5.613281 69.796875 6.054688 69.886719 6.511719 C 69.976562 6.96875 70.023438 7.429688 70.023438 7.894531 Z M 70.023438 7.894531 " fill-opacity="1" fill-rule="nonzero"/></g><path fill="#000000" d="M 63.023438 37.628906 C 63.023438 38.605469 62.972656 39.578125 62.878906 40.546875 C 62.785156 41.519531 62.640625 42.484375 62.449219 43.441406 C 62.261719 44.398438 62.023438 45.34375 61.742188 46.277344 C 61.460938 47.210938 61.132812 48.128906 60.761719 49.03125 C 60.390625 49.929688 59.972656 50.8125 59.515625 51.671875 C 59.058594 52.535156 58.558594 53.371094 58.015625 54.179688 C 57.476562 54.992188 56.898438 55.773438 56.28125 56.53125 C 55.664062 57.285156 55.011719 58.003906 54.324219 58.695312 C 53.636719 59.386719 52.917969 60.039062 52.164062 60.660156 C 51.414062 61.277344 50.632812 61.859375 49.824219 62.402344 C 49.015625 62.941406 48.183594 63.445312 47.324219 63.90625 C 46.464844 64.363281 45.589844 64.78125 44.691406 65.15625 C 43.792969 65.527344 42.878906 65.855469 41.945312 66.140625 C 41.015625 66.421875 40.074219 66.660156 39.121094 66.851562 C 38.164062 67.039062 37.203125 67.183594 36.238281 67.277344 C 35.269531 67.375 34.296875 67.421875 33.324219 67.421875 C 32.355469 67.421875 31.382812 67.375 30.414062 67.277344 C 29.449219 67.183594 28.488281 67.039062 27.53125 66.851562 C 26.578125 66.660156 25.636719 66.421875 24.707031 66.140625 C 23.773438 65.855469 22.859375 65.527344 21.960938 65.15625 C 21.0625 64.78125 20.1875 64.363281 19.328125 63.90625 C 18.46875 63.445312 17.636719 62.941406 16.828125 62.402344 C 16.019531 61.859375 15.238281 61.277344 14.488281 60.660156 C 13.734375 60.039062 13.015625 59.386719 12.328125 58.695312 C 11.640625 58.003906 10.988281 57.285156 10.371094 56.53125 C 9.753906 55.773438 9.175781 54.992188 8.636719 54.179688 C 8.09375 53.371094 7.59375 52.535156 7.136719 51.671875 C 6.679688 50.8125 6.261719 49.929688 5.890625 49.03125 C 5.519531 48.128906 5.191406 47.210938 4.910156 46.277344 C 4.628906 45.34375 4.390625 44.398438 4.203125 43.441406 C 4.011719 42.484375 3.867188 41.519531 3.773438 40.546875 C 3.679688 39.578125 3.628906 38.605469 3.628906 37.628906 C 3.628906 36.652344 3.679688 35.679688 3.773438 34.707031 C 3.867188 33.734375 4.011719 32.773438 4.203125 31.816406 C 4.390625 30.859375 4.628906 29.914062 4.910156 28.980469 C 5.191406 28.046875 5.519531 27.128906 5.890625 26.226562 C 6.261719 25.324219 6.679688 24.441406 7.136719 23.582031 C 7.59375 22.722656 8.09375 21.886719 8.636719 21.074219 C 9.175781 20.261719 9.753906 19.480469 10.371094 18.726562 C 10.988281 17.972656 11.640625 17.25 12.328125 16.558594 C 13.015625 15.871094 13.734375 15.214844 14.488281 14.597656 C 15.238281 13.976562 16.019531 13.398438 16.828125 12.855469 C 17.636719 12.3125 18.46875 11.8125 19.328125 11.351562 C 20.1875 10.890625 21.0625 10.472656 21.960938 10.101562 C 22.859375 9.726562 23.773438 9.398438 24.707031 9.117188 C 25.636719 8.832031 26.578125 8.597656 27.53125 8.40625 C 28.488281 8.214844 29.449219 8.070312 30.414062 7.976562 C 31.382812 7.882812 32.355469 7.832031 33.324219 7.832031 C 34.296875 7.832031 35.269531 7.882812 36.238281 7.976562 C 37.203125 8.070312 38.164062 8.214844 39.121094 8.40625 C 40.074219 8.597656 41.015625 8.832031 41.945312 9.117188 C 42.878906 9.398438 43.792969 9.726562 44.691406 10.101562 C 45.589844 10.472656 46.464844 10.890625 47.324219 11.351562 C 48.183594 11.8125 49.015625 12.3125 49.824219 12.855469 C 50.632812 13.398438 51.414062 13.976562 52.164062 14.597656 C 52.917969 15.214844 53.636719 15.871094 54.324219 16.558594 C 55.011719 17.25 55.664062 17.972656 56.28125 18.726562 C 56.898438 19.480469 57.476562 20.261719 58.015625 21.074219 C 58.558594 21.886719 59.058594 22.722656 59.515625 23.582031 C 59.972656 24.441406 60.390625 25.324219 60.761719 26.226562 C 61.132812 27.128906 61.460938 28.046875 61.742188 28.980469 C 62.023438 29.914062 62.261719 30.859375 62.449219 31.816406 C 62.640625 32.773438 62.785156 33.734375 62.878906 34.707031 C 62.972656 35.679688 63.023438 36.652344 63.023438 37.628906 Z M 52.488281 37.628906 C 52.488281 37 52.457031 36.371094 52.394531 35.742188 C 52.332031 35.117188 52.242188 34.496094 52.117188 33.878906 C 51.996094 33.257812 51.84375 32.648438 51.660156 32.046875 C 51.480469 31.445312 51.269531 30.851562 51.027344 30.269531 C 50.789062 29.6875 50.519531 29.121094 50.222656 28.566406 C 49.929688 28.011719 49.605469 27.46875 49.257812 26.945312 C 48.910156 26.421875 48.535156 25.917969 48.136719 25.429688 C 47.738281 24.945312 47.320312 24.480469 46.875 24.035156 C 46.429688 23.589844 45.96875 23.167969 45.480469 22.765625 C 44.996094 22.367188 44.492188 21.992188 43.972656 21.644531 C 43.449219 21.292969 42.910156 20.96875 42.359375 20.671875 C 41.804688 20.375 41.238281 20.105469 40.660156 19.867188 C 40.078125 19.625 39.488281 19.414062 38.886719 19.230469 C 38.289062 19.046875 37.679688 18.894531 37.0625 18.773438 C 36.449219 18.648438 35.828125 18.558594 35.203125 18.496094 C 34.578125 18.433594 33.953125 18.402344 33.324219 18.402344 C 32.699219 18.402344 32.074219 18.433594 31.449219 18.496094 C 30.824219 18.558594 30.203125 18.648438 29.589844 18.773438 C 28.972656 18.894531 28.363281 19.046875 27.765625 19.230469 C 27.164062 19.414062 26.574219 19.625 25.992188 19.867188 C 25.414062 20.105469 24.847656 20.375 24.292969 20.671875 C 23.742188 20.96875 23.203125 21.292969 22.679688 21.644531 C 22.160156 21.992188 21.65625 22.367188 21.171875 22.765625 C 20.683594 23.167969 20.222656 23.589844 19.777344 24.035156 C 19.332031 24.480469 18.914062 24.945312 18.515625 25.429688 C 18.117188 25.917969 17.742188 26.421875 17.394531 26.945312 C 17.046875 27.46875 16.722656 28.011719 16.429688 28.566406 C 16.132812 29.121094 15.863281 29.6875 15.625 30.269531 C 15.382812 30.851562 15.171875 31.445312 14.992188 32.046875 C 14.808594 32.648438 14.65625 33.257812 14.535156 33.878906 C 14.410156 34.496094 14.320312 35.117188 14.257812 35.742188 C 14.195312 36.371094 14.164062 37 14.164062 37.628906 C 14.164062 38.257812 14.195312 38.886719 14.257812 39.511719 C 14.320312 40.140625 14.410156 40.761719 14.535156 41.378906 C 14.65625 41.996094 14.808594 42.605469 14.992188 43.207031 C 15.171875 43.8125 15.382812 44.402344 15.625 44.984375 C 15.863281 45.566406 16.132812 46.136719 16.429688 46.691406 C 16.722656 47.246094 17.046875 47.785156 17.394531 48.308594 C 17.742188 48.832031 18.117188 49.335938 18.515625 49.824219 C 18.914062 50.3125 19.332031 50.777344 19.777344 51.222656 C 20.222656 51.667969 20.683594 52.089844 21.171875 52.488281 C 21.65625 52.886719 22.160156 53.261719 22.679688 53.613281 C 23.203125 53.960938 23.742188 54.285156 24.292969 54.582031 C 24.847656 54.878906 25.414062 55.148438 25.992188 55.390625 C 26.574219 55.628906 27.164062 55.84375 27.765625 56.023438 C 28.363281 56.207031 28.972656 56.359375 29.589844 56.484375 C 30.203125 56.605469 30.824219 56.699219 31.449219 56.761719 C 32.074219 56.820312 32.699219 56.851562 33.324219 56.851562 C 33.953125 56.851562 34.578125 56.820312 35.203125 56.761719 C 35.828125 56.699219 36.449219 56.605469 37.0625 56.484375 C 37.679688 56.359375 38.289062 56.207031 38.886719 56.023438 C 39.488281 55.84375 40.078125 55.628906 40.660156 55.390625 C 41.238281 55.148438 41.804688 54.878906 42.359375 54.582031 C 42.910156 54.285156 43.449219 53.960938 43.972656 53.613281 C 44.492188 53.261719 44.996094 52.886719 45.480469 52.488281 C 45.96875 52.089844 46.429688 51.667969 46.875 51.222656 C 47.320312 50.777344 47.738281 50.3125 48.136719 49.824219 C 48.535156 49.335938 48.910156 48.832031 49.257812 48.308594 C 49.605469 47.785156 49.929688 47.246094 50.222656 46.691406 C 50.519531 46.136719 50.789062 45.566406 51.027344 44.984375 C 51.269531 44.402344 51.480469 43.8125 51.660156 43.207031 C 51.84375 42.605469 51.996094 41.996094 52.117188 41.378906 C 52.242188 40.761719 52.332031 40.140625 52.394531 39.511719 C 52.457031 38.886719 52.488281 38.257812 52.488281 37.628906 Z M 52.488281 37.628906 " fill-opacity="1" fill-rule="nonzero"/><path fill="#000000" d="M 48.984375 87.148438 L 34 87.15625 C 33.898438 87.15625 33.8125 87.121094 33.742188 87.046875 C 33.667969 86.972656 33.632812 86.882812 33.632812 86.78125 L 33.644531 78.304688 C 33.644531 78.214844 33.675781 78.136719 33.742188 78.070312 C 33.808594 78.003906 33.886719 77.972656 33.976562 77.972656 L 55.695312 77.96875 C 55.9375 77.96875 56.140625 78.058594 56.308594 78.238281 C 65.542969 87.953125 64.714844 103.015625 57.191406 113.339844 C 47.042969 127.246094 26.921875 129.617188 13.972656 118.242188 C 2.046875 107.773438 0.277344 90.652344 9.625 77.808594 C 9.679688 77.734375 9.753906 77.695312 9.847656 77.695312 C 9.9375 77.695312 10.011719 77.734375 10.066406 77.808594 L 16.503906 86.796875 C 16.609375 86.945312 16.660156 87.105469 16.660156 87.285156 C 16.664062 87.460938 16.613281 87.625 16.511719 87.769531 C 12.070312 94.242188 14.296875 103.5 19.425781 108.867188 C 29.023438 118.914062 45.125 115.859375 50.824219 103.460938 C 52.304688 100.234375 53.050781 95.566406 52.097656 92.238281 C 51.675781 90.753906 50.820312 89.152344 49.535156 87.433594 C 49.398438 87.242188 49.214844 87.148438 48.984375 87.148438 Z M 48.984375 87.148438 " fill-opacity="1" fill-rule="nonzero"/></g></g></g><g fill="#000000" fill-opacity="1"><g transform="translate(38.72734, 219.425112)"><g><path d="M 46.015625 -28.796875 L 55.90625 -28.796875 L 55.90625 -6.359375 C 53.007812 -4.046875 49.628906 -2.273438 45.765625 -1.046875 C 41.910156 0.179688 37.941406 0.796875 33.859375 0.796875 C 28.117188 0.796875 22.941406 -0.445312 18.328125 -2.9375 C 13.722656 -5.425781 10.109375 -8.867188 7.484375 -13.265625 C 4.859375 -17.671875 3.546875 -22.632812 3.546875 -28.15625 C 3.546875 -33.675781 4.859375 -38.632812 7.484375 -43.03125 C 10.109375 -47.425781 13.738281 -50.867188 18.375 -53.359375 C 23.019531 -55.859375 28.238281 -57.109375 34.03125 -57.109375 C 38.75 -57.109375 43.035156 -56.328125 46.890625 -54.765625 C 50.753906 -53.210938 54 -50.9375 56.625 -47.9375 L 50.03125 -41.5 C 45.738281 -45.789062 40.5625 -47.9375 34.5 -47.9375 C 30.539062 -47.9375 27.019531 -47.101562 23.9375 -45.4375 C 20.851562 -43.78125 18.4375 -41.445312 16.6875 -38.4375 C 14.945312 -35.4375 14.078125 -32.007812 14.078125 -28.15625 C 14.078125 -24.394531 14.945312 -21.015625 16.6875 -18.015625 C 18.4375 -15.015625 20.851562 -12.65625 23.9375 -10.9375 C 27.019531 -9.21875 30.515625 -8.359375 34.421875 -8.359375 C 38.816406 -8.359375 42.679688 -9.328125 46.015625 -11.265625 Z M 46.015625 -28.796875 "/></g></g></g><g fill="#000000" fill-opacity="1"><g transform="translate(99.207364, 219.425112)"><g><path d="M 6.59375 -59.6875 L 16.65625 -59.6875 L 16.65625 0 L 6.59375 0 Z M 6.59375 -59.6875 "/></g></g></g><g fill="#000000" fill-opacity="1"><g transform="translate(120.841703, 219.425112)"><g><path d="M 23 -43.4375 C 29.332031 -43.4375 34.171875 -41.921875 37.515625 -38.890625 C 40.867188 -35.859375 42.546875 -31.285156 42.546875 -25.171875 L 42.546875 0 L 33.0625 0 L 33.0625 -5.234375 C 31.820312 -3.347656 30.0625 -1.910156 27.78125 -0.921875 C 25.507812 0.0664062 22.765625 0.5625 19.546875 0.5625 C 16.328125 0.5625 13.507812 0.015625 11.09375 -1.078125 C 8.6875 -2.179688 6.828125 -3.710938 5.515625 -5.671875 C 4.203125 -7.628906 3.546875 -9.84375 3.546875 -12.3125 C 3.546875 -16.164062 4.976562 -19.257812 7.84375 -21.59375 C 10.707031 -23.925781 15.222656 -25.09375 21.390625 -25.09375 L 32.5 -25.09375 L 32.5 -25.734375 C 32.5 -28.742188 31.597656 -31.050781 29.796875 -32.65625 C 28.003906 -34.269531 25.335938 -35.078125 21.796875 -35.078125 C 19.378906 -35.078125 17.003906 -34.695312 14.671875 -33.9375 C 12.347656 -33.1875 10.378906 -32.144531 8.765625 -30.8125 L 4.828125 -38.125 C 7.078125 -39.84375 9.785156 -41.15625 12.953125 -42.0625 C 16.117188 -42.976562 19.46875 -43.4375 23 -43.4375 Z M 21.640625 -6.75 C 24.160156 -6.75 26.398438 -7.328125 28.359375 -8.484375 C 30.316406 -9.640625 31.695312 -11.289062 32.5 -13.4375 L 32.5 -18.421875 L 22.125 -18.421875 C 16.332031 -18.421875 13.4375 -16.515625 13.4375 -12.703125 C 13.4375 -10.878906 14.160156 -9.429688 15.609375 -8.359375 C 17.054688 -7.285156 19.066406 -6.75 21.640625 -6.75 Z M 21.640625 -6.75 "/></g></g></g><g fill="#000000" fill-opacity="1"><g transform="translate(168.051451, 219.425112)"><g><path d="M 19.875 0.5625 C 16.382812 0.5625 12.976562 0.109375 9.65625 -0.796875 C 6.332031 -1.710938 3.675781 -2.867188 1.6875 -4.265625 L 5.546875 -11.90625 C 7.484375 -10.613281 9.800781 -9.578125 12.5 -8.796875 C 15.207031 -8.023438 17.878906 -7.640625 20.515625 -7.640625 C 26.515625 -7.640625 29.515625 -9.222656 29.515625 -12.390625 C 29.515625 -13.890625 28.75 -14.929688 27.21875 -15.515625 C 25.695312 -16.109375 23.25 -16.675781 19.875 -17.21875 C 16.332031 -17.75 13.445312 -18.363281 11.21875 -19.0625 C 9 -19.757812 7.066406 -20.976562 5.421875 -22.71875 C 3.785156 -24.46875 2.96875 -26.894531 2.96875 -30 C 2.96875 -34.070312 4.671875 -37.328125 8.078125 -39.765625 C 11.484375 -42.210938 16.082031 -43.4375 21.875 -43.4375 C 24.820312 -43.4375 27.769531 -43.097656 30.71875 -42.421875 C 33.675781 -41.753906 36.09375 -40.859375 37.96875 -39.734375 L 34.109375 -32.09375 C 30.460938 -34.238281 26.359375 -35.3125 21.796875 -35.3125 C 18.847656 -35.3125 16.609375 -34.867188 15.078125 -33.984375 C 13.554688 -33.097656 12.796875 -31.929688 12.796875 -30.484375 C 12.796875 -28.878906 13.613281 -27.738281 15.25 -27.0625 C 16.882812 -26.394531 19.414062 -25.765625 22.84375 -25.171875 C 26.28125 -24.640625 29.097656 -24.023438 31.296875 -23.328125 C 33.492188 -22.628906 35.378906 -21.445312 36.953125 -19.78125 C 38.535156 -18.125 39.328125 -15.765625 39.328125 -12.703125 C 39.328125 -8.679688 37.582031 -5.460938 34.09375 -3.046875 C 30.613281 -0.640625 25.875 0.5625 19.875 0.5625 Z M 19.875 0.5625 "/></g></g></g><g fill="#000000" fill-opacity="1"><g transform="translate(207.862034, 219.425112)"><g><path d="M 19.875 0.5625 C 16.382812 0.5625 12.976562 0.109375 9.65625 -0.796875 C 6.332031 -1.710938 3.675781 -2.867188 1.6875 -4.265625 L 5.546875 -11.90625 C 7.484375 -10.613281 9.800781 -9.578125 12.5 -8.796875 C 15.207031 -8.023438 17.878906 -7.640625 20.515625 -7.640625 C 26.515625 -7.640625 29.515625 -9.222656 29.515625 -12.390625 C 29.515625 -13.890625 28.75 -14.929688 27.21875 -15.515625 C 25.695312 -16.109375 23.25 -16.675781 19.875 -17.21875 C 16.332031 -17.75 13.445312 -18.363281 11.21875 -19.0625 C 9 -19.757812 7.066406 -20.976562 5.421875 -22.71875 C 3.785156 -24.46875 2.96875 -26.894531 2.96875 -30 C 2.96875 -34.070312 4.671875 -37.328125 8.078125 -39.765625 C 11.484375 -42.210938 16.082031 -43.4375 21.875 -43.4375 C 24.820312 -43.4375 27.769531 -43.097656 30.71875 -42.421875 C 33.675781 -41.753906 36.09375 -40.859375 37.96875 -39.734375 L 34.109375 -32.09375 C 30.460938 -34.238281 26.359375 -35.3125 21.796875 -35.3125 C 18.847656 -35.3125 16.609375 -34.867188 15.078125 -33.984375 C 13.554688 -33.097656 12.796875 -31.929688 12.796875 -30.484375 C 12.796875 -28.878906 13.613281 -27.738281 15.25 -27.0625 C 16.882812 -26.394531 19.414062 -25.765625 22.84375 -25.171875 C 26.28125 -24.640625 29.097656 -24.023438 31.296875 -23.328125 C 33.492188 -22.628906 35.378906 -21.445312 36.953125 -19.78125 C 38.535156 -18.125 39.328125 -15.765625 39.328125 -12.703125 C 39.328125 -8.679688 37.582031 -5.460938 34.09375 -3.046875 C 30.613281 -0.640625 25.875 0.5625 19.875 0.5625 Z M 19.875 0.5625 "/></g></g></g></svg>