<svg xmlns="http://www.w3.org/2000/svg" xmlns:xlink="http://www.w3.org/1999/xlink" width="500" zoomAndPan="magnify" viewBox="0 0 375 374.999991" height="500" preserveAspectRatio="xMidYMid meet" version="1.0"><defs><g/><clipPath id="7e7f8193f9"><path d="M 311 87 L 326.480469 87 L 326.480469 102 L 311 102 Z M 311 87 " clip-rule="nonzero"/></clipPath></defs><rect x="-37.5" width="450" fill="#ffffff" y="-37.499999" height="449.999989" fill-opacity="1"/><rect x="-37.5" width="450" fill="#8fff00" y="-37.499999" height="449.999989" fill-opacity="1"/><g clip-path="url(#7e7f8193f9)"><path fill="#000000" d="M 326.480469 94.476562 C 326.480469 94.96875 326.433594 95.453125 326.339844 95.933594 C 326.242188 96.414062 326.101562 96.878906 325.914062 97.332031 C 325.726562 97.785156 325.496094 98.214844 325.226562 98.625 C 324.953125 99.03125 324.644531 99.410156 324.300781 99.753906 C 323.953125 100.101562 323.578125 100.410156 323.171875 100.683594 C 322.765625 100.957031 322.335938 101.183594 321.882812 101.371094 C 321.429688 101.558594 320.964844 101.703125 320.484375 101.796875 C 320.003906 101.894531 319.519531 101.941406 319.03125 101.941406 C 318.542969 101.941406 318.058594 101.894531 317.578125 101.796875 C 317.097656 101.703125 316.632812 101.558594 316.183594 101.371094 C 315.730469 101.183594 315.300781 100.957031 314.894531 100.683594 C 314.488281 100.410156 314.109375 100.101562 313.765625 99.753906 C 313.417969 99.410156 313.109375 99.03125 312.839844 98.625 C 312.566406 98.214844 312.335938 97.785156 312.148438 97.332031 C 311.964844 96.878906 311.820312 96.414062 311.726562 95.933594 C 311.632812 95.453125 311.582031 94.96875 311.582031 94.476562 C 311.582031 93.988281 311.632812 93.5 311.726562 93.019531 C 311.820312 92.539062 311.964844 92.074219 312.148438 91.621094 C 312.335938 91.167969 312.566406 90.738281 312.839844 90.332031 C 313.109375 89.921875 313.417969 89.546875 313.765625 89.199219 C 314.109375 88.851562 314.488281 88.542969 314.894531 88.269531 C 315.300781 88 315.730469 87.769531 316.183594 87.582031 C 316.632812 87.394531 317.097656 87.253906 317.578125 87.15625 C 318.058594 87.0625 318.542969 87.011719 319.03125 87.011719 C 319.519531 87.011719 320.003906 87.0625 320.484375 87.15625 C 320.964844 87.253906 321.429688 87.394531 321.882812 87.582031 C 322.335938 87.769531 322.765625 88 323.171875 88.269531 C 323.578125 88.542969 323.953125 88.851562 324.300781 89.199219 C 324.644531 89.546875 324.953125 89.921875 325.226562 90.332031 C 325.496094 90.738281 325.726562 91.167969 325.914062 91.621094 C 326.101562 92.074219 326.242188 92.539062 326.339844 93.019531 C 326.433594 93.5 326.480469 93.988281 326.480469 94.476562 Z M 326.480469 94.476562 " fill-opacity="1" fill-rule="nonzero"/></g><path fill="#000000" d="M 319.105469 125.765625 C 319.105469 126.792969 319.054688 127.816406 318.953125 128.839844 C 318.855469 129.859375 318.703125 130.875 318.503906 131.882812 C 318.304688 132.890625 318.054688 133.886719 317.757812 134.867188 C 317.460938 135.851562 317.113281 136.816406 316.722656 137.765625 C 316.332031 138.714844 315.894531 139.640625 315.410156 140.546875 C 314.925781 141.453125 314.402344 142.332031 313.832031 143.183594 C 313.261719 144.039062 312.652344 144.863281 312 145.65625 C 311.351562 146.449219 310.664062 147.210938 309.941406 147.9375 C 309.214844 148.664062 308.457031 149.351562 307.664062 150.003906 C 306.871094 150.65625 306.050781 151.265625 305.199219 151.835938 C 304.34375 152.40625 303.46875 152.933594 302.5625 153.417969 C 301.660156 153.902344 300.734375 154.339844 299.789062 154.734375 C 298.839844 155.125 297.878906 155.472656 296.894531 155.769531 C 295.914062 156.066406 294.921875 156.316406 293.917969 156.519531 C 292.914062 156.71875 291.898438 156.867188 290.878906 156.96875 C 289.859375 157.070312 288.835938 157.121094 287.8125 157.121094 C 286.789062 157.121094 285.765625 157.070312 284.746094 156.96875 C 283.726562 156.867188 282.714844 156.71875 281.707031 156.519531 C 280.703125 156.316406 279.710938 156.066406 278.730469 155.769531 C 277.75 155.472656 276.785156 155.125 275.839844 154.734375 C 274.890625 154.339844 273.964844 153.902344 273.0625 153.417969 C 272.15625 152.933594 271.28125 152.40625 270.429688 151.835938 C 269.574219 151.265625 268.753906 150.65625 267.960938 150.003906 C 267.167969 149.351562 266.410156 148.664062 265.6875 147.9375 C 264.960938 147.210938 264.273438 146.449219 263.625 145.65625 C 262.972656 144.863281 262.363281 144.039062 261.792969 143.183594 C 261.226562 142.332031 260.699219 141.453125 260.214844 140.546875 C 259.734375 139.640625 259.296875 138.714844 258.902344 137.765625 C 258.511719 136.816406 258.164062 135.851562 257.867188 134.867188 C 257.570312 133.886719 257.320312 132.890625 257.121094 131.882812 C 256.921875 130.875 256.773438 129.859375 256.671875 128.839844 C 256.570312 127.816406 256.519531 126.792969 256.519531 125.765625 C 256.519531 124.738281 256.570312 123.714844 256.671875 122.691406 C 256.773438 121.671875 256.921875 120.65625 257.121094 119.648438 C 257.320312 118.640625 257.570312 117.648438 257.867188 116.664062 C 258.164062 115.679688 258.511719 114.714844 258.902344 113.765625 C 259.296875 112.816406 259.734375 111.890625 260.214844 110.984375 C 260.699219 110.078125 261.226562 109.199219 261.792969 108.347656 C 262.363281 107.492188 262.972656 106.667969 263.625 105.875 C 264.273438 105.082031 264.960938 104.320312 265.6875 103.59375 C 266.410156 102.867188 267.167969 102.179688 267.960938 101.527344 C 268.753906 100.875 269.574219 100.265625 270.429688 99.695312 C 271.28125 99.125 272.15625 98.597656 273.0625 98.113281 C 273.964844 97.628906 274.890625 97.191406 275.839844 96.796875 C 276.785156 96.40625 277.75 96.058594 278.730469 95.761719 C 279.710938 95.464844 280.703125 95.214844 281.707031 95.015625 C 282.714844 94.8125 283.726562 94.664062 284.746094 94.5625 C 285.765625 94.460938 286.789062 94.410156 287.8125 94.410156 C 288.835938 94.410156 289.859375 94.460938 290.878906 94.5625 C 291.898438 94.664062 292.914062 94.8125 293.917969 95.015625 C 294.921875 95.214844 295.914062 95.464844 296.894531 95.761719 C 297.878906 96.058594 298.839844 96.40625 299.789062 96.796875 C 300.734375 97.191406 301.660156 97.628906 302.5625 98.113281 C 303.46875 98.597656 304.34375 99.125 305.199219 99.695312 C 306.050781 100.265625 306.871094 100.875 307.664062 101.527344 C 308.457031 102.179688 309.214844 102.867188 309.941406 103.59375 C 310.664062 104.320312 311.351562 105.082031 312 105.875 C 312.652344 106.667969 313.261719 107.492188 313.832031 108.347656 C 314.402344 109.199219 314.925781 110.078125 315.410156 110.984375 C 315.894531 111.890625 316.332031 112.816406 316.722656 113.765625 C 317.113281 114.714844 317.460938 115.679688 317.757812 116.664062 C 318.054688 117.648438 318.304688 118.640625 318.503906 119.648438 C 318.703125 120.65625 318.855469 121.671875 318.953125 122.691406 C 319.054688 123.714844 319.105469 124.738281 319.105469 125.765625 Z M 308.003906 125.765625 C 308.003906 125.101562 307.972656 124.441406 307.90625 123.78125 C 307.84375 123.125 307.746094 122.46875 307.617188 121.820312 C 307.488281 121.167969 307.328125 120.527344 307.132812 119.894531 C 306.941406 119.257812 306.71875 118.636719 306.46875 118.023438 C 306.214844 117.410156 305.929688 116.8125 305.621094 116.230469 C 305.308594 115.644531 304.96875 115.078125 304.601562 114.527344 C 304.234375 113.976562 303.839844 113.441406 303.421875 112.929688 C 303 112.417969 302.558594 111.929688 302.089844 111.460938 C 301.621094 110.992188 301.132812 110.546875 300.621094 110.125 C 300.109375 109.707031 299.582031 109.3125 299.03125 108.945312 C 298.480469 108.574219 297.914062 108.234375 297.332031 107.921875 C 296.746094 107.609375 296.152344 107.328125 295.539062 107.074219 C 294.929688 106.820312 294.308594 106.597656 293.675781 106.40625 C 293.042969 106.214844 292.402344 106.050781 291.75 105.921875 C 291.101562 105.792969 290.449219 105.695312 289.792969 105.632812 C 289.132812 105.566406 288.472656 105.535156 287.8125 105.535156 C 287.152344 105.535156 286.492188 105.566406 285.832031 105.632812 C 285.175781 105.695312 284.523438 105.792969 283.875 105.921875 C 283.226562 106.050781 282.585938 106.214844 281.953125 106.40625 C 281.320312 106.597656 280.695312 106.820312 280.085938 107.074219 C 279.476562 107.328125 278.878906 107.609375 278.292969 107.921875 C 277.710938 108.234375 277.144531 108.574219 276.59375 108.945312 C 276.046875 109.3125 275.515625 109.707031 275.003906 110.125 C 274.492188 110.546875 274.003906 110.992188 273.535156 111.460938 C 273.066406 111.929688 272.625 112.417969 272.203125 112.929688 C 271.785156 113.441406 271.390625 113.976562 271.023438 114.527344 C 270.65625 115.078125 270.316406 115.644531 270.007812 116.230469 C 269.695312 116.8125 269.410156 117.410156 269.160156 118.023438 C 268.90625 118.636719 268.683594 119.257812 268.492188 119.894531 C 268.300781 120.527344 268.140625 121.167969 268.007812 121.820312 C 267.878906 122.46875 267.785156 123.125 267.71875 123.78125 C 267.652344 124.441406 267.621094 125.101562 267.621094 125.765625 C 267.621094 126.429688 267.652344 127.089844 267.71875 127.75 C 267.785156 128.410156 267.878906 129.0625 268.007812 129.710938 C 268.140625 130.363281 268.300781 131.003906 268.492188 131.640625 C 268.683594 132.273438 268.90625 132.894531 269.160156 133.507812 C 269.410156 134.121094 269.695312 134.71875 270.007812 135.304688 C 270.316406 135.886719 270.65625 136.453125 271.023438 137.003906 C 271.390625 137.558594 271.785156 138.089844 272.203125 138.601562 C 272.625 139.113281 273.066406 139.601562 273.535156 140.070312 C 274.003906 140.539062 274.492188 140.984375 275.003906 141.40625 C 275.515625 141.824219 276.046875 142.21875 276.59375 142.585938 C 277.144531 142.957031 277.710938 143.296875 278.292969 143.609375 C 278.878906 143.921875 279.476562 144.203125 280.085938 144.457031 C 280.695312 144.710938 281.320312 144.933594 281.953125 145.125 C 282.585938 145.320312 283.226562 145.480469 283.875 145.609375 C 284.523438 145.738281 285.175781 145.835938 285.832031 145.898438 C 286.492188 145.964844 287.152344 145.996094 287.8125 145.996094 C 288.472656 145.996094 289.132812 145.964844 289.792969 145.898438 C 290.449219 145.835938 291.101562 145.738281 291.75 145.609375 C 292.402344 145.480469 293.042969 145.320312 293.675781 145.125 C 294.308594 144.933594 294.929688 144.710938 295.539062 144.457031 C 296.152344 144.203125 296.746094 143.921875 297.332031 143.609375 C 297.914062 143.296875 298.480469 142.957031 299.03125 142.585938 C 299.582031 142.21875 300.109375 141.824219 300.621094 141.40625 C 301.132812 140.984375 301.621094 140.539062 302.089844 140.070312 C 302.558594 139.601562 303 139.113281 303.421875 138.601562 C 303.839844 138.089844 304.234375 137.558594 304.601562 137.003906 C 304.96875 136.453125 305.308594 135.886719 305.621094 135.304688 C 305.929688 134.71875 306.214844 134.121094 306.46875 133.507812 C 306.71875 132.894531 306.941406 132.273438 307.132812 131.640625 C 307.328125 131.003906 307.488281 130.363281 307.617188 129.710938 C 307.746094 129.0625 307.84375 128.410156 307.90625 127.75 C 307.972656 127.089844 308.003906 126.429688 308.003906 125.765625 Z M 308.003906 125.765625 " fill-opacity="1" fill-rule="nonzero"/><path fill="#000000" d="M 304.3125 177.878906 L 288.523438 177.886719 C 288.417969 177.886719 288.324219 177.847656 288.25 177.769531 C 288.175781 177.695312 288.136719 177.601562 288.136719 177.492188 L 288.148438 168.574219 C 288.148438 168.476562 288.183594 168.394531 288.25 168.324219 C 288.320312 168.257812 288.402344 168.222656 288.5 168.222656 L 311.386719 168.21875 C 311.640625 168.21875 311.855469 168.3125 312.03125 168.5 C 321.761719 178.726562 320.890625 194.578125 312.960938 205.445312 C 302.269531 220.074219 281.0625 222.570312 267.417969 210.601562 C 254.851562 199.585938 252.988281 181.566406 262.835938 168.050781 C 262.894531 167.972656 262.972656 167.933594 263.070312 167.933594 C 263.167969 167.933594 263.246094 167.972656 263.304688 168.050781 L 270.085938 177.511719 C 270.195312 177.664062 270.25 177.832031 270.25 178.019531 C 270.253906 178.207031 270.199219 178.378906 270.09375 178.535156 C 265.414062 185.34375 267.761719 195.085938 273.164062 200.734375 C 283.277344 211.308594 300.246094 208.09375 306.25 195.046875 C 307.8125 191.652344 308.597656 186.738281 307.59375 183.238281 C 307.148438 181.671875 306.246094 179.988281 304.890625 178.175781 C 304.746094 177.980469 304.554688 177.878906 304.3125 177.878906 Z M 304.3125 177.878906 " fill-opacity="1" fill-rule="nonzero"/><g fill="#000000" fill-opacity="1"><g transform="translate(35.628565, 216.7638)"><g><path d="M 47.984375 -30.03125 L 58.296875 -30.03125 L 58.296875 -6.625 C 55.285156 -4.21875 51.765625 -2.367188 47.734375 -1.078125 C 43.703125 0.203125 39.5625 0.84375 35.3125 0.84375 C 29.332031 0.84375 23.9375 -0.457031 19.125 -3.0625 C 14.3125 -5.664062 10.535156 -9.257812 7.796875 -13.84375 C 5.054688 -18.425781 3.6875 -23.597656 3.6875 -29.359375 C 3.6875 -35.117188 5.054688 -40.289062 7.796875 -44.875 C 10.535156 -49.46875 14.320312 -53.0625 19.15625 -55.65625 C 24 -58.257812 29.441406 -59.5625 35.484375 -59.5625 C 40.410156 -59.5625 44.882812 -58.75 48.90625 -57.125 C 52.9375 -55.507812 56.320312 -53.132812 59.0625 -50 L 52.1875 -43.28125 C 47.707031 -47.757812 42.304688 -50 35.984375 -50 C 31.847656 -50 28.171875 -49.128906 24.953125 -47.390625 C 21.742188 -45.660156 19.226562 -43.226562 17.40625 -40.09375 C 15.59375 -36.96875 14.6875 -33.390625 14.6875 -29.359375 C 14.6875 -25.441406 15.59375 -21.914062 17.40625 -18.78125 C 19.226562 -15.65625 21.742188 -13.195312 24.953125 -11.40625 C 28.171875 -9.613281 31.820312 -8.71875 35.90625 -8.71875 C 40.488281 -8.71875 44.515625 -9.726562 47.984375 -11.75 Z M 47.984375 -30.03125 "/></g></g></g><g fill="#000000" fill-opacity="1"><g transform="translate(98.213702, 216.7638)"><g><path d="M 6.875 -62.25 L 17.359375 -62.25 L 17.359375 0 L 6.875 0 Z M 6.875 -62.25 "/></g></g></g><g fill="#000000" fill-opacity="1"><g transform="translate(120.277806, 216.7638)"><g><path d="M 24 -45.296875 C 30.59375 -45.296875 35.632812 -43.71875 39.125 -40.5625 C 42.625 -37.40625 44.375 -32.632812 44.375 -26.25 L 44.375 0 L 34.484375 0 L 34.484375 -5.453125 C 33.191406 -3.492188 31.359375 -1.992188 28.984375 -0.953125 C 26.609375 0.078125 23.742188 0.59375 20.390625 0.59375 C 17.035156 0.59375 14.097656 0.0195312 11.578125 -1.125 C 9.054688 -2.28125 7.109375 -3.875 5.734375 -5.90625 C 4.367188 -7.945312 3.6875 -10.253906 3.6875 -12.828125 C 3.6875 -16.859375 5.179688 -20.085938 8.171875 -22.515625 C 11.171875 -24.953125 15.882812 -26.171875 22.3125 -26.171875 L 33.890625 -26.171875 L 33.890625 -26.84375 C 33.890625 -29.976562 32.953125 -32.382812 31.078125 -34.0625 C 29.203125 -35.738281 26.421875 -36.578125 22.734375 -36.578125 C 20.210938 -36.578125 17.734375 -36.1875 15.296875 -35.40625 C 12.867188 -34.625 10.816406 -33.53125 9.140625 -32.125 L 5.03125 -39.765625 C 7.382812 -41.554688 10.207031 -42.925781 13.5 -43.875 C 16.800781 -44.820312 20.300781 -45.296875 24 -45.296875 Z M 22.5625 -7.046875 C 25.195312 -7.046875 27.535156 -7.644531 29.578125 -8.84375 C 31.617188 -10.050781 33.054688 -11.773438 33.890625 -14.015625 L 33.890625 -19.21875 L 23.0625 -19.21875 C 17.03125 -19.21875 14.015625 -17.226562 14.015625 -13.25 C 14.015625 -11.351562 14.769531 -9.84375 16.28125 -8.71875 C 17.789062 -7.601562 19.882812 -7.046875 22.5625 -7.046875 Z M 22.5625 -7.046875 "/></g></g></g><g fill="#000000" fill-opacity="1"><g transform="translate(169.020353, 216.7638)"><g><path d="M 20.71875 0.59375 C 17.082031 0.59375 13.53125 0.117188 10.0625 -0.828125 C 6.59375 -1.785156 3.828125 -2.992188 1.765625 -4.453125 L 5.78125 -12.421875 C 7.800781 -11.078125 10.222656 -10 13.046875 -9.1875 C 15.867188 -8.375 18.648438 -7.96875 21.390625 -7.96875 C 27.648438 -7.96875 30.78125 -9.617188 30.78125 -12.921875 C 30.78125 -14.484375 29.984375 -15.570312 28.390625 -16.1875 C 26.796875 -16.800781 24.238281 -17.390625 20.71875 -17.953125 C 17.03125 -18.515625 14.023438 -19.15625 11.703125 -19.875 C 9.378906 -20.601562 7.363281 -21.875 5.65625 -23.6875 C 3.957031 -25.507812 3.109375 -28.046875 3.109375 -31.296875 C 3.109375 -35.546875 4.882812 -38.941406 8.4375 -41.484375 C 11.988281 -44.023438 16.78125 -45.296875 22.8125 -45.296875 C 25.894531 -45.296875 28.972656 -44.945312 32.046875 -44.25 C 35.117188 -43.550781 37.632812 -42.613281 39.59375 -41.4375 L 35.5625 -33.46875 C 31.757812 -35.707031 27.484375 -36.828125 22.734375 -36.828125 C 19.660156 -36.828125 17.328125 -36.363281 15.734375 -35.4375 C 14.140625 -34.519531 13.34375 -33.304688 13.34375 -31.796875 C 13.34375 -30.117188 14.191406 -28.929688 15.890625 -28.234375 C 17.597656 -27.535156 20.242188 -26.875 23.828125 -26.25 C 27.398438 -25.695312 30.332031 -25.054688 32.625 -24.328125 C 34.925781 -23.597656 36.898438 -22.363281 38.546875 -20.625 C 40.191406 -18.894531 41.015625 -16.4375 41.015625 -13.25 C 41.015625 -9.0625 39.195312 -5.707031 35.5625 -3.1875 C 31.925781 -0.664062 26.976562 0.59375 20.71875 0.59375 Z M 20.71875 0.59375 "/></g></g></g><g fill="#000000" fill-opacity="1"><g transform="translate(210.044604, 216.7638)"><g><path d="M 20.71875 0.59375 C 17.082031 0.59375 13.53125 0.117188 10.0625 -0.828125 C 6.59375 -1.785156 3.828125 -2.992188 1.765625 -4.453125 L 5.78125 -12.421875 C 7.800781 -11.078125 10.222656 -10 13.046875 -9.1875 C 15.867188 -8.375 18.648438 -7.96875 21.390625 -7.96875 C 27.648438 -7.96875 30.78125 -9.617188 30.78125 -12.921875 C 30.78125 -14.484375 29.984375 -15.570312 28.390625 -16.1875 C 26.796875 -16.800781 24.238281 -17.390625 20.71875 -17.953125 C 17.03125 -18.515625 14.023438 -19.15625 11.703125 -19.875 C 9.378906 -20.601562 7.363281 -21.875 5.65625 -23.6875 C 3.957031 -25.507812 3.109375 -28.046875 3.109375 -31.296875 C 3.109375 -35.546875 4.882812 -38.941406 8.4375 -41.484375 C 11.988281 -44.023438 16.78125 -45.296875 22.8125 -45.296875 C 25.894531 -45.296875 28.972656 -44.945312 32.046875 -44.25 C 35.117188 -43.550781 37.632812 -42.613281 39.59375 -41.4375 L 35.5625 -33.46875 C 31.757812 -35.707031 27.484375 -36.828125 22.734375 -36.828125 C 19.660156 -36.828125 17.328125 -36.363281 15.734375 -35.4375 C 14.140625 -34.519531 13.34375 -33.304688 13.34375 -31.796875 C 13.34375 -30.117188 14.191406 -28.929688 15.890625 -28.234375 C 17.597656 -27.535156 20.242188 -26.875 23.828125 -26.25 C 27.398438 -25.695312 30.332031 -25.054688 32.625 -24.328125 C 34.925781 -23.597656 36.898438 -22.363281 38.546875 -20.625 C 40.191406 -18.894531 41.015625 -16.4375 41.015625 -13.25 C 41.015625 -9.0625 39.195312 -5.707031 35.5625 -3.1875 C 31.925781 -0.664062 26.976562 0.59375 20.71875 0.59375 Z M 20.71875 0.59375 "/></g></g></g></svg>