<svg xmlns="http://www.w3.org/2000/svg" xmlns:xlink="http://www.w3.org/1999/xlink" width="500" zoomAndPan="magnify" viewBox="0 0 375 374.999991" height="500" preserveAspectRatio="xMidYMid meet" version="1.0"><defs><g/><clipPath id="9fea16057a"><path d="M 305 92.675781 L 320.023438 92.675781 L 320.023438 107 L 305 107 Z M 305 92.675781 " clip-rule="nonzero"/></clipPath><clipPath id="a8114a8119"><path d="M 253.273438 163.460938 L 324.980469 163.460938 L 324.980469 249.175781 L 253.273438 249.175781 Z M 253.273438 163.460938 " clip-rule="nonzero"/></clipPath><clipPath id="9a294ceb27"><path d="M 270.523438 163.460938 L 307.730469 163.460938 C 312.304688 163.460938 316.691406 165.28125 319.925781 168.515625 C 323.160156 171.75 324.980469 176.136719 324.980469 180.710938 L 324.980469 231.824219 C 324.980469 236.402344 323.160156 240.789062 319.925781 244.023438 C 316.691406 247.257812 312.304688 249.074219 307.730469 249.074219 L 270.523438 249.074219 C 265.945312 249.074219 261.558594 247.257812 258.324219 244.023438 C 255.089844 240.789062 253.273438 236.402344 253.273438 231.824219 L 253.273438 180.710938 C 253.273438 176.136719 255.089844 171.75 258.324219 168.515625 C 261.558594 165.28125 265.945312 163.460938 270.523438 163.460938 Z M 270.523438 163.460938 " clip-rule="nonzero"/></clipPath></defs><rect x="-37.5" width="450" fill="#ffffff" y="-37.499999" height="449.999989" fill-opacity="1"/><rect x="-37.5" width="450" fill="#8fff00" y="-37.499999" height="449.999989" fill-opacity="1"/><g clip-path="url(#9fea16057a)"><path fill="#000000" d="M 320.023438 99.894531 C 320.023438 100.363281 319.976562 100.824219 319.886719 101.28125 C 319.796875 101.734375 319.660156 102.179688 319.484375 102.609375 C 319.304688 103.039062 319.089844 103.449219 318.832031 103.835938 C 318.574219 104.222656 318.28125 104.582031 317.949219 104.910156 C 317.621094 105.242188 317.265625 105.535156 316.878906 105.792969 C 316.492188 106.050781 316.085938 106.269531 315.65625 106.449219 C 315.230469 106.625 314.785156 106.761719 314.332031 106.851562 C 313.875 106.941406 313.417969 106.988281 312.953125 106.988281 C 312.488281 106.988281 312.027344 106.941406 311.574219 106.851562 C 311.117188 106.761719 310.675781 106.625 310.246094 106.449219 C 309.820312 106.269531 309.410156 106.050781 309.027344 105.792969 C 308.640625 105.535156 308.28125 105.242188 307.953125 104.910156 C 307.625 104.582031 307.332031 104.222656 307.074219 103.835938 C 306.816406 103.449219 306.597656 103.039062 306.421875 102.609375 C 306.246094 102.179688 306.109375 101.734375 306.019531 101.28125 C 305.929688 100.824219 305.882812 100.363281 305.882812 99.894531 C 305.882812 99.429688 305.929688 98.96875 306.019531 98.511719 C 306.109375 98.054688 306.246094 97.613281 306.421875 97.183594 C 306.597656 96.75 306.816406 96.34375 307.074219 95.957031 C 307.332031 95.566406 307.625 95.210938 307.953125 94.878906 C 308.28125 94.550781 308.640625 94.257812 309.027344 94 C 309.410156 93.738281 309.820312 93.519531 310.246094 93.34375 C 310.675781 93.164062 311.117188 93.03125 311.574219 92.941406 C 312.027344 92.847656 312.488281 92.804688 312.953125 92.804688 C 313.417969 92.804688 313.875 92.847656 314.332031 92.941406 C 314.785156 93.03125 315.230469 93.164062 315.65625 93.34375 C 316.085938 93.519531 316.492188 93.738281 316.878906 94 C 317.265625 94.257812 317.621094 94.550781 317.949219 94.878906 C 318.28125 95.210938 318.574219 95.566406 318.832031 95.957031 C 319.089844 96.34375 319.304688 96.75 319.484375 97.183594 C 319.660156 97.613281 319.796875 98.054688 319.886719 98.511719 C 319.976562 98.96875 320.023438 99.429688 320.023438 99.894531 Z M 320.023438 99.894531 " fill-opacity="1" fill-rule="nonzero"/></g><path fill="#000000" d="M 313.023438 129.628906 C 313.023438 130.605469 312.972656 131.578125 312.878906 132.546875 C 312.785156 133.519531 312.640625 134.484375 312.449219 135.441406 C 312.261719 136.398438 312.023438 137.34375 311.742188 138.277344 C 311.460938 139.210938 311.132812 140.128906 310.761719 141.03125 C 310.390625 141.929688 309.972656 142.8125 309.515625 143.671875 C 309.058594 144.535156 308.558594 145.371094 308.015625 146.179688 C 307.476562 146.992188 306.898438 147.773438 306.28125 148.53125 C 305.664062 149.285156 305.011719 150.003906 304.324219 150.695312 C 303.636719 151.386719 302.917969 152.039062 302.164062 152.660156 C 301.414062 153.277344 300.632812 153.859375 299.824219 154.402344 C 299.015625 154.941406 298.183594 155.445312 297.324219 155.90625 C 296.464844 156.363281 295.589844 156.78125 294.691406 157.15625 C 293.792969 157.527344 292.878906 157.855469 291.945312 158.140625 C 291.015625 158.421875 290.074219 158.660156 289.121094 158.851562 C 288.164062 159.039062 287.203125 159.183594 286.238281 159.277344 C 285.269531 159.375 284.296875 159.421875 283.324219 159.421875 C 282.355469 159.421875 281.382812 159.375 280.414062 159.277344 C 279.449219 159.183594 278.488281 159.039062 277.53125 158.851562 C 276.578125 158.660156 275.636719 158.421875 274.707031 158.140625 C 273.773438 157.855469 272.859375 157.527344 271.960938 157.15625 C 271.0625 156.78125 270.1875 156.363281 269.328125 155.90625 C 268.46875 155.445312 267.636719 154.941406 266.828125 154.402344 C 266.019531 153.859375 265.238281 153.277344 264.488281 152.660156 C 263.734375 152.039062 263.015625 151.386719 262.328125 150.695312 C 261.640625 150.003906 260.988281 149.285156 260.371094 148.53125 C 259.753906 147.773438 259.175781 146.992188 258.636719 146.179688 C 258.09375 145.371094 257.59375 144.535156 257.136719 143.671875 C 256.679688 142.8125 256.261719 141.929688 255.890625 141.03125 C 255.519531 140.128906 255.191406 139.210938 254.910156 138.277344 C 254.628906 137.34375 254.390625 136.398438 254.203125 135.441406 C 254.011719 134.484375 253.867188 133.519531 253.773438 132.546875 C 253.679688 131.578125 253.628906 130.605469 253.628906 129.628906 C 253.628906 128.652344 253.679688 127.679688 253.773438 126.707031 C 253.867188 125.734375 254.011719 124.773438 254.203125 123.816406 C 254.390625 122.859375 254.628906 121.914062 254.910156 120.980469 C 255.191406 120.046875 255.519531 119.128906 255.890625 118.226562 C 256.261719 117.324219 256.679688 116.441406 257.136719 115.582031 C 257.59375 114.722656 258.09375 113.886719 258.636719 113.074219 C 259.175781 112.261719 259.753906 111.480469 260.371094 110.726562 C 260.988281 109.972656 261.640625 109.25 262.328125 108.558594 C 263.015625 107.871094 263.734375 107.214844 264.488281 106.597656 C 265.238281 105.976562 266.019531 105.398438 266.828125 104.855469 C 267.636719 104.3125 268.46875 103.8125 269.328125 103.351562 C 270.1875 102.890625 271.0625 102.472656 271.960938 102.101562 C 272.859375 101.726562 273.773438 101.398438 274.707031 101.117188 C 275.636719 100.832031 276.578125 100.597656 277.53125 100.40625 C 278.488281 100.214844 279.449219 100.070312 280.414062 99.976562 C 281.382812 99.882812 282.355469 99.832031 283.324219 99.832031 C 284.296875 99.832031 285.269531 99.882812 286.238281 99.976562 C 287.203125 100.070312 288.164062 100.214844 289.121094 100.40625 C 290.074219 100.597656 291.015625 100.832031 291.945312 101.117188 C 292.878906 101.398438 293.792969 101.726562 294.691406 102.101562 C 295.589844 102.472656 296.464844 102.890625 297.324219 103.351562 C 298.183594 103.8125 299.015625 104.3125 299.824219 104.855469 C 300.632812 105.398438 301.414062 105.976562 302.164062 106.597656 C 302.917969 107.214844 303.636719 107.871094 304.324219 108.558594 C 305.011719 109.25 305.664062 109.972656 306.28125 110.726562 C 306.898438 111.480469 307.476562 112.261719 308.015625 113.074219 C 308.558594 113.886719 309.058594 114.722656 309.515625 115.582031 C 309.972656 116.441406 310.390625 117.324219 310.761719 118.226562 C 311.132812 119.128906 311.460938 120.046875 311.742188 120.980469 C 312.023438 121.914062 312.261719 122.859375 312.449219 123.816406 C 312.640625 124.773438 312.785156 125.734375 312.878906 126.707031 C 312.972656 127.679688 313.023438 128.652344 313.023438 129.628906 Z M 302.488281 129.628906 C 302.488281 129 302.457031 128.371094 302.394531 127.742188 C 302.332031 127.117188 302.242188 126.496094 302.117188 125.878906 C 301.996094 125.257812 301.84375 124.648438 301.660156 124.046875 C 301.480469 123.445312 301.269531 122.851562 301.027344 122.269531 C 300.789062 121.6875 300.519531 121.121094 300.222656 120.566406 C 299.929688 120.011719 299.605469 119.46875 299.257812 118.945312 C 298.910156 118.421875 298.535156 117.917969 298.136719 117.429688 C 297.738281 116.945312 297.320312 116.480469 296.875 116.035156 C 296.429688 115.589844 295.96875 115.167969 295.480469 114.765625 C 294.996094 114.367188 294.492188 113.992188 293.972656 113.644531 C 293.449219 113.292969 292.910156 112.96875 292.359375 112.671875 C 291.804688 112.375 291.238281 112.105469 290.660156 111.867188 C 290.078125 111.625 289.488281 111.414062 288.886719 111.230469 C 288.289062 111.046875 287.679688 110.894531 287.0625 110.773438 C 286.449219 110.648438 285.828125 110.558594 285.203125 110.496094 C 284.578125 110.433594 283.953125 110.402344 283.324219 110.402344 C 282.699219 110.402344 282.074219 110.433594 281.449219 110.496094 C 280.824219 110.558594 280.203125 110.648438 279.589844 110.773438 C 278.972656 110.894531 278.363281 111.046875 277.765625 111.230469 C 277.164062 111.414062 276.574219 111.625 275.992188 111.867188 C 275.414062 112.105469 274.847656 112.375 274.292969 112.671875 C 273.742188 112.96875 273.203125 113.292969 272.679688 113.644531 C 272.160156 113.992188 271.65625 114.367188 271.171875 114.765625 C 270.683594 115.167969 270.222656 115.589844 269.777344 116.035156 C 269.332031 116.480469 268.914062 116.945312 268.515625 117.429688 C 268.117188 117.917969 267.742188 118.421875 267.394531 118.945312 C 267.046875 119.46875 266.722656 120.011719 266.429688 120.566406 C 266.132812 121.121094 265.863281 121.6875 265.625 122.269531 C 265.382812 122.851562 265.171875 123.445312 264.992188 124.046875 C 264.808594 124.648438 264.65625 125.257812 264.535156 125.878906 C 264.410156 126.496094 264.320312 127.117188 264.257812 127.742188 C 264.195312 128.371094 264.164062 129 264.164062 129.628906 C 264.164062 130.257812 264.195312 130.886719 264.257812 131.511719 C 264.320312 132.140625 264.410156 132.761719 264.535156 133.378906 C 264.65625 133.996094 264.808594 134.605469 264.992188 135.207031 C 265.171875 135.8125 265.382812 136.402344 265.625 136.984375 C 265.863281 137.566406 266.132812 138.136719 266.429688 138.691406 C 266.722656 139.246094 267.046875 139.785156 267.394531 140.308594 C 267.742188 140.832031 268.117188 141.335938 268.515625 141.824219 C 268.914062 142.3125 269.332031 142.777344 269.777344 143.222656 C 270.222656 143.667969 270.683594 144.089844 271.171875 144.488281 C 271.65625 144.886719 272.160156 145.261719 272.679688 145.613281 C 273.203125 145.960938 273.742188 146.285156 274.292969 146.582031 C 274.847656 146.878906 275.414062 147.148438 275.992188 147.390625 C 276.574219 147.628906 277.164062 147.84375 277.765625 148.023438 C 278.363281 148.207031 278.972656 148.359375 279.589844 148.484375 C 280.203125 148.605469 280.824219 148.699219 281.449219 148.761719 C 282.074219 148.820312 282.699219 148.851562 283.324219 148.851562 C 283.953125 148.851562 284.578125 148.820312 285.203125 148.761719 C 285.828125 148.699219 286.449219 148.605469 287.0625 148.484375 C 287.679688 148.359375 288.289062 148.207031 288.886719 148.023438 C 289.488281 147.84375 290.078125 147.628906 290.660156 147.390625 C 291.238281 147.148438 291.804688 146.878906 292.359375 146.582031 C 292.910156 146.285156 293.449219 145.960938 293.972656 145.613281 C 294.492188 145.261719 294.996094 144.886719 295.480469 144.488281 C 295.96875 144.089844 296.429688 143.667969 296.875 143.222656 C 297.320312 142.777344 297.738281 142.3125 298.136719 141.824219 C 298.535156 141.335938 298.910156 140.832031 299.257812 140.308594 C 299.605469 139.785156 299.929688 139.246094 300.222656 138.691406 C 300.519531 138.136719 300.789062 137.566406 301.027344 136.984375 C 301.269531 136.402344 301.480469 135.8125 301.660156 135.207031 C 301.84375 134.605469 301.996094 133.996094 302.117188 133.378906 C 302.242188 132.761719 302.332031 132.140625 302.394531 131.511719 C 302.457031 130.886719 302.488281 130.257812 302.488281 129.628906 Z M 302.488281 129.628906 " fill-opacity="1" fill-rule="nonzero"/><path fill="#000000" d="M 298.984375 179.148438 L 284 179.15625 C 283.898438 179.15625 283.8125 179.121094 283.742188 179.046875 C 283.667969 178.972656 283.632812 178.882812 283.632812 178.78125 L 283.644531 170.304688 C 283.644531 170.214844 283.675781 170.136719 283.742188 170.070312 C 283.808594 170.003906 283.886719 169.972656 283.976562 169.972656 L 305.695312 169.96875 C 305.9375 169.96875 306.140625 170.058594 306.308594 170.238281 C 315.542969 179.953125 314.714844 195.015625 307.191406 205.339844 C 297.042969 219.246094 276.921875 221.617188 263.972656 210.242188 C 252.046875 199.773438 250.277344 182.652344 259.625 169.808594 C 259.679688 169.734375 259.753906 169.695312 259.847656 169.695312 C 259.9375 169.695312 260.011719 169.734375 260.066406 169.808594 L 266.503906 178.796875 C 266.609375 178.945312 266.660156 179.105469 266.660156 179.285156 C 266.664062 179.460938 266.613281 179.625 266.511719 179.769531 C 262.070312 186.242188 264.296875 195.5 269.425781 200.867188 C 279.023438 210.914062 295.125 207.859375 300.824219 195.460938 C 302.304688 192.234375 303.050781 187.566406 302.097656 184.238281 C 301.675781 182.753906 300.820312 181.152344 299.535156 179.433594 C 299.398438 179.242188 299.214844 179.148438 298.984375 179.148438 Z M 298.984375 179.148438 " fill-opacity="1" fill-rule="nonzero"/><g fill="#000000" fill-opacity="1"><g transform="translate(38.72734, 219.425112)"><g><path d="M 46.015625 -28.796875 L 55.90625 -28.796875 L 55.90625 -6.359375 C 53.007812 -4.046875 49.628906 -2.273438 45.765625 -1.046875 C 41.910156 0.179688 37.941406 0.796875 33.859375 0.796875 C 28.117188 0.796875 22.941406 -0.445312 18.328125 -2.9375 C 13.722656 -5.425781 10.109375 -8.867188 7.484375 -13.265625 C 4.859375 -17.671875 3.546875 -22.632812 3.546875 -28.15625 C 3.546875 -33.675781 4.859375 -38.632812 7.484375 -43.03125 C 10.109375 -47.425781 13.738281 -50.867188 18.375 -53.359375 C 23.019531 -55.859375 28.238281 -57.109375 34.03125 -57.109375 C 38.75 -57.109375 43.035156 -56.328125 46.890625 -54.765625 C 50.753906 -53.210938 54 -50.9375 56.625 -47.9375 L 50.03125 -41.5 C 45.738281 -45.789062 40.5625 -47.9375 34.5 -47.9375 C 30.539062 -47.9375 27.019531 -47.101562 23.9375 -45.4375 C 20.851562 -43.78125 18.4375 -41.445312 16.6875 -38.4375 C 14.945312 -35.4375 14.078125 -32.007812 14.078125 -28.15625 C 14.078125 -24.394531 14.945312 -21.015625 16.6875 -18.015625 C 18.4375 -15.015625 20.851562 -12.65625 23.9375 -10.9375 C 27.019531 -9.21875 30.515625 -8.359375 34.421875 -8.359375 C 38.816406 -8.359375 42.679688 -9.328125 46.015625 -11.265625 Z M 46.015625 -28.796875 "/></g></g></g><g fill="#000000" fill-opacity="1"><g transform="translate(99.207364, 219.425112)"><g><path d="M 6.59375 -59.6875 L 16.65625 -59.6875 L 16.65625 0 L 6.59375 0 Z M 6.59375 -59.6875 "/></g></g></g><g fill="#000000" fill-opacity="1"><g transform="translate(120.841703, 219.425112)"><g><path d="M 23 -43.4375 C 29.332031 -43.4375 34.171875 -41.921875 37.515625 -38.890625 C 40.867188 -35.859375 42.546875 -31.285156 42.546875 -25.171875 L 42.546875 0 L 33.0625 0 L 33.0625 -5.234375 C 31.820312 -3.347656 30.0625 -1.910156 27.78125 -0.921875 C 25.507812 0.0664062 22.765625 0.5625 19.546875 0.5625 C 16.328125 0.5625 13.507812 0.015625 11.09375 -1.078125 C 8.6875 -2.179688 6.828125 -3.710938 5.515625 -5.671875 C 4.203125 -7.628906 3.546875 -9.84375 3.546875 -12.3125 C 3.546875 -16.164062 4.976562 -19.257812 7.84375 -21.59375 C 10.707031 -23.925781 15.222656 -25.09375 21.390625 -25.09375 L 32.5 -25.09375 L 32.5 -25.734375 C 32.5 -28.742188 31.597656 -31.050781 29.796875 -32.65625 C 28.003906 -34.269531 25.335938 -35.078125 21.796875 -35.078125 C 19.378906 -35.078125 17.003906 -34.695312 14.671875 -33.9375 C 12.347656 -33.1875 10.378906 -32.144531 8.765625 -30.8125 L 4.828125 -38.125 C 7.078125 -39.84375 9.785156 -41.15625 12.953125 -42.0625 C 16.117188 -42.976562 19.46875 -43.4375 23 -43.4375 Z M 21.640625 -6.75 C 24.160156 -6.75 26.398438 -7.328125 28.359375 -8.484375 C 30.316406 -9.640625 31.695312 -11.289062 32.5 -13.4375 L 32.5 -18.421875 L 22.125 -18.421875 C 16.332031 -18.421875 13.4375 -16.515625 13.4375 -12.703125 C 13.4375 -10.878906 14.160156 -9.429688 15.609375 -8.359375 C 17.054688 -7.285156 19.066406 -6.75 21.640625 -6.75 Z M 21.640625 -6.75 "/></g></g></g><g fill="#000000" fill-opacity="1"><g transform="translate(168.051451, 219.425112)"><g><path d="M 19.875 0.5625 C 16.382812 0.5625 12.976562 0.109375 9.65625 -0.796875 C 6.332031 -1.710938 3.675781 -2.867188 1.6875 -4.265625 L 5.546875 -11.90625 C 7.484375 -10.613281 9.800781 -9.578125 12.5 -8.796875 C 15.207031 -8.023438 17.878906 -7.640625 20.515625 -7.640625 C 26.515625 -7.640625 29.515625 -9.222656 29.515625 -12.390625 C 29.515625 -13.890625 28.75 -14.929688 27.21875 -15.515625 C 25.695312 -16.109375 23.25 -16.675781 19.875 -17.21875 C 16.332031 -17.75 13.445312 -18.363281 11.21875 -19.0625 C 9 -19.757812 7.066406 -20.976562 5.421875 -22.71875 C 3.785156 -24.46875 2.96875 -26.894531 2.96875 -30 C 2.96875 -34.070312 4.671875 -37.328125 8.078125 -39.765625 C 11.484375 -42.210938 16.082031 -43.4375 21.875 -43.4375 C 24.820312 -43.4375 27.769531 -43.097656 30.71875 -42.421875 C 33.675781 -41.753906 36.09375 -40.859375 37.96875 -39.734375 L 34.109375 -32.09375 C 30.460938 -34.238281 26.359375 -35.3125 21.796875 -35.3125 C 18.847656 -35.3125 16.609375 -34.867188 15.078125 -33.984375 C 13.554688 -33.097656 12.796875 -31.929688 12.796875 -30.484375 C 12.796875 -28.878906 13.613281 -27.738281 15.25 -27.0625 C 16.882812 -26.394531 19.414062 -25.765625 22.84375 -25.171875 C 26.28125 -24.640625 29.097656 -24.023438 31.296875 -23.328125 C 33.492188 -22.628906 35.378906 -21.445312 36.953125 -19.78125 C 38.535156 -18.125 39.328125 -15.765625 39.328125 -12.703125 C 39.328125 -8.679688 37.582031 -5.460938 34.09375 -3.046875 C 30.613281 -0.640625 25.875 0.5625 19.875 0.5625 Z M 19.875 0.5625 "/></g></g></g><g fill="#000000" fill-opacity="1"><g transform="translate(207.862034, 219.425112)"><g><path d="M 19.875 0.5625 C 16.382812 0.5625 12.976562 0.109375 9.65625 -0.796875 C 6.332031 -1.710938 3.675781 -2.867188 1.6875 -4.265625 L 5.546875 -11.90625 C 7.484375 -10.613281 9.800781 -9.578125 12.5 -8.796875 C 15.207031 -8.023438 17.878906 -7.640625 20.515625 -7.640625 C 26.515625 -7.640625 29.515625 -9.222656 29.515625 -12.390625 C 29.515625 -13.890625 28.75 -14.929688 27.21875 -15.515625 C 25.695312 -16.109375 23.25 -16.675781 19.875 -17.21875 C 16.332031 -17.75 13.445312 -18.363281 11.21875 -19.0625 C 9 -19.757812 7.066406 -20.976562 5.421875 -22.71875 C 3.785156 -24.46875 2.96875 -26.894531 2.96875 -30 C 2.96875 -34.070312 4.671875 -37.328125 8.078125 -39.765625 C 11.484375 -42.210938 16.082031 -43.4375 21.875 -43.4375 C 24.820312 -43.4375 27.769531 -43.097656 30.71875 -42.421875 C 33.675781 -41.753906 36.09375 -40.859375 37.96875 -39.734375 L 34.109375 -32.09375 C 30.460938 -34.238281 26.359375 -35.3125 21.796875 -35.3125 C 18.847656 -35.3125 16.609375 -34.867188 15.078125 -33.984375 C 13.554688 -33.097656 12.796875 -31.929688 12.796875 -30.484375 C 12.796875 -28.878906 13.613281 -27.738281 15.25 -27.0625 C 16.882812 -26.394531 19.414062 -25.765625 22.84375 -25.171875 C 26.28125 -24.640625 29.097656 -24.023438 31.296875 -23.328125 C 33.492188 -22.628906 35.378906 -21.445312 36.953125 -19.78125 C 38.535156 -18.125 39.328125 -15.765625 39.328125 -12.703125 C 39.328125 -8.679688 37.582031 -5.460938 34.09375 -3.046875 C 30.613281 -0.640625 25.875 0.5625 19.875 0.5625 Z M 19.875 0.5625 "/></g></g></g><g clip-path="url(#a8114a8119)"><g clip-path="url(#9a294ceb27)"><path fill="#8fff00" d="M 253.273438 163.460938 L 324.980469 163.460938 L 324.980469 249.175781 L 253.273438 249.175781 Z M 253.273438 163.460938 " fill-opacity="1" fill-rule="nonzero"/></g></g><g fill="#000000" fill-opacity="1"><g transform="translate(311.875765, 223.985023)"><g><path d="M -28.78125 -46 L -28.78125 -55.875 L -6.359375 -55.875 C -4.046875 -52.988281 -2.273438 -49.613281 -1.046875 -45.75 C 0.179688 -41.894531 0.796875 -37.925781 0.796875 -33.84375 C 0.796875 -28.113281 -0.445312 -22.941406 -2.9375 -18.328125 C -5.425781 -13.722656 -8.867188 -10.101562 -13.265625 -7.46875 C -17.660156 -4.84375 -22.617188 -3.53125 -28.140625 -3.53125 C -33.660156 -3.53125 -38.617188 -4.84375 -43.015625 -7.46875 C -47.410156 -10.101562 -50.851562 -13.738281 -53.34375 -18.375 C -55.84375 -23.007812 -57.09375 -28.222656 -57.09375 -34.015625 C -57.09375 -38.734375 -56.3125 -43.019531 -54.75 -46.875 C -53.195312 -50.738281 -50.921875 -53.984375 -47.921875 -56.609375 L -41.484375 -50.015625 C -45.773438 -45.722656 -47.921875 -40.550781 -47.921875 -34.5 C -47.921875 -30.53125 -47.085938 -27.003906 -45.421875 -23.921875 C -43.765625 -20.835938 -41.4375 -18.425781 -38.4375 -16.6875 C -35.4375 -14.945312 -32.003906 -14.078125 -28.140625 -14.078125 C -24.390625 -14.078125 -21.015625 -14.945312 -18.015625 -16.6875 C -15.015625 -18.425781 -12.65625 -20.835938 -10.9375 -23.921875 C -9.21875 -27.003906 -8.359375 -30.5 -8.359375 -34.40625 C -8.359375 -38.800781 -9.320312 -42.664062 -11.25 -46 Z M -28.78125 -46 "/></g></g></g></svg>