<svg xmlns="http://www.w3.org/2000/svg" xmlns:xlink="http://www.w3.org/1999/xlink" width="500" zoomAndPan="magnify" viewBox="0 0 375 374.999991" height="500" preserveAspectRatio="xMidYMid meet" version="1.0"><defs><g/><clipPath id="4b177be393"><path d="M 308 95.675781 L 323.023438 95.675781 L 323.023438 110 L 308 110 Z M 308 95.675781 " clip-rule="nonzero"/></clipPath></defs><rect x="-37.5" width="450" fill="#ffffff" y="-37.499999" height="449.999989" fill-opacity="1"/><rect x="-37.5" width="450" fill="#8fff00" y="-37.499999" height="449.999989" fill-opacity="1"/><g clip-path="url(#4b177be393)"><path fill="#000000" d="M 323.023438 102.894531 C 323.023438 103.363281 322.976562 103.824219 322.886719 104.28125 C 322.796875 104.734375 322.660156 105.179688 322.484375 105.609375 C 322.304688 106.039062 322.089844 106.449219 321.832031 106.835938 C 321.574219 107.222656 321.28125 107.582031 320.949219 107.910156 C 320.621094 108.242188 320.265625 108.535156 319.878906 108.792969 C 319.492188 109.050781 319.085938 109.269531 318.65625 109.449219 C 318.230469 109.625 317.785156 109.761719 317.332031 109.851562 C 316.875 109.941406 316.417969 109.988281 315.953125 109.988281 C 315.488281 109.988281 315.027344 109.941406 314.574219 109.851562 C 314.117188 109.761719 313.675781 109.625 313.246094 109.449219 C 312.820312 109.269531 312.410156 109.050781 312.027344 108.792969 C 311.640625 108.535156 311.28125 108.242188 310.953125 107.910156 C 310.625 107.582031 310.332031 107.222656 310.074219 106.835938 C 309.816406 106.449219 309.597656 106.039062 309.421875 105.609375 C 309.246094 105.179688 309.109375 104.734375 309.019531 104.28125 C 308.929688 103.824219 308.882812 103.363281 308.882812 102.894531 C 308.882812 102.429688 308.929688 101.96875 309.019531 101.511719 C 309.109375 101.054688 309.246094 100.613281 309.421875 100.183594 C 309.597656 99.75 309.816406 99.34375 310.074219 98.957031 C 310.332031 98.566406 310.625 98.210938 310.953125 97.878906 C 311.28125 97.550781 311.640625 97.257812 312.027344 97 C 312.410156 96.738281 312.820312 96.519531 313.246094 96.34375 C 313.675781 96.164062 314.117188 96.03125 314.574219 95.941406 C 315.027344 95.847656 315.488281 95.804688 315.953125 95.804688 C 316.417969 95.804688 316.875 95.847656 317.332031 95.941406 C 317.785156 96.03125 318.230469 96.164062 318.65625 96.34375 C 319.085938 96.519531 319.492188 96.738281 319.878906 97 C 320.265625 97.257812 320.621094 97.550781 320.949219 97.878906 C 321.28125 98.210938 321.574219 98.566406 321.832031 98.957031 C 322.089844 99.34375 322.304688 99.75 322.484375 100.183594 C 322.660156 100.613281 322.796875 101.054688 322.886719 101.511719 C 322.976562 101.96875 323.023438 102.429688 323.023438 102.894531 Z M 323.023438 102.894531 " fill-opacity="1" fill-rule="nonzero"/></g><path fill="#000000" d="M 316.023438 132.628906 C 316.023438 133.605469 315.972656 134.578125 315.878906 135.546875 C 315.785156 136.519531 315.640625 137.484375 315.449219 138.441406 C 315.261719 139.398438 315.023438 140.34375 314.742188 141.277344 C 314.460938 142.210938 314.132812 143.128906 313.761719 144.03125 C 313.390625 144.929688 312.972656 145.8125 312.515625 146.671875 C 312.058594 147.535156 311.558594 148.371094 311.015625 149.179688 C 310.476562 149.992188 309.898438 150.773438 309.28125 151.53125 C 308.664062 152.285156 308.011719 153.003906 307.324219 153.695312 C 306.636719 154.386719 305.917969 155.039062 305.164062 155.660156 C 304.414062 156.277344 303.632812 156.859375 302.824219 157.402344 C 302.015625 157.941406 301.183594 158.445312 300.324219 158.90625 C 299.464844 159.363281 298.589844 159.78125 297.691406 160.15625 C 296.792969 160.527344 295.878906 160.855469 294.945312 161.140625 C 294.015625 161.421875 293.074219 161.660156 292.121094 161.851562 C 291.164062 162.039062 290.203125 162.183594 289.238281 162.277344 C 288.269531 162.375 287.296875 162.421875 286.324219 162.421875 C 285.355469 162.421875 284.382812 162.375 283.414062 162.277344 C 282.449219 162.183594 281.488281 162.039062 280.53125 161.851562 C 279.578125 161.660156 278.636719 161.421875 277.707031 161.140625 C 276.773438 160.855469 275.859375 160.527344 274.960938 160.15625 C 274.0625 159.78125 273.1875 159.363281 272.328125 158.90625 C 271.46875 158.445312 270.636719 157.941406 269.828125 157.402344 C 269.019531 156.859375 268.238281 156.277344 267.488281 155.660156 C 266.734375 155.039062 266.015625 154.386719 265.328125 153.695312 C 264.640625 153.003906 263.988281 152.285156 263.371094 151.53125 C 262.753906 150.773438 262.175781 149.992188 261.636719 149.179688 C 261.09375 148.371094 260.59375 147.535156 260.136719 146.671875 C 259.679688 145.8125 259.261719 144.929688 258.890625 144.03125 C 258.519531 143.128906 258.191406 142.210938 257.910156 141.277344 C 257.628906 140.34375 257.390625 139.398438 257.203125 138.441406 C 257.011719 137.484375 256.867188 136.519531 256.773438 135.546875 C 256.679688 134.578125 256.628906 133.605469 256.628906 132.628906 C 256.628906 131.652344 256.679688 130.679688 256.773438 129.707031 C 256.867188 128.734375 257.011719 127.773438 257.203125 126.816406 C 257.390625 125.859375 257.628906 124.914062 257.910156 123.980469 C 258.191406 123.046875 258.519531 122.128906 258.890625 121.226562 C 259.261719 120.324219 259.679688 119.441406 260.136719 118.582031 C 260.59375 117.722656 261.09375 116.886719 261.636719 116.074219 C 262.175781 115.261719 262.753906 114.480469 263.371094 113.726562 C 263.988281 112.972656 264.640625 112.25 265.328125 111.558594 C 266.015625 110.871094 266.734375 110.214844 267.488281 109.597656 C 268.238281 108.976562 269.019531 108.398438 269.828125 107.855469 C 270.636719 107.3125 271.46875 106.8125 272.328125 106.351562 C 273.1875 105.890625 274.0625 105.472656 274.960938 105.101562 C 275.859375 104.726562 276.773438 104.398438 277.707031 104.117188 C 278.636719 103.832031 279.578125 103.597656 280.53125 103.40625 C 281.488281 103.214844 282.449219 103.070312 283.414062 102.976562 C 284.382812 102.882812 285.355469 102.832031 286.324219 102.832031 C 287.296875 102.832031 288.269531 102.882812 289.238281 102.976562 C 290.203125 103.070312 291.164062 103.214844 292.121094 103.40625 C 293.074219 103.597656 294.015625 103.832031 294.945312 104.117188 C 295.878906 104.398438 296.792969 104.726562 297.691406 105.101562 C 298.589844 105.472656 299.464844 105.890625 300.324219 106.351562 C 301.183594 106.8125 302.015625 107.3125 302.824219 107.855469 C 303.632812 108.398438 304.414062 108.976562 305.164062 109.597656 C 305.917969 110.214844 306.636719 110.871094 307.324219 111.558594 C 308.011719 112.25 308.664062 112.972656 309.28125 113.726562 C 309.898438 114.480469 310.476562 115.261719 311.015625 116.074219 C 311.558594 116.886719 312.058594 117.722656 312.515625 118.582031 C 312.972656 119.441406 313.390625 120.324219 313.761719 121.226562 C 314.132812 122.128906 314.460938 123.046875 314.742188 123.980469 C 315.023438 124.914062 315.261719 125.859375 315.449219 126.816406 C 315.640625 127.773438 315.785156 128.734375 315.878906 129.707031 C 315.972656 130.679688 316.023438 131.652344 316.023438 132.628906 Z M 305.488281 132.628906 C 305.488281 132 305.457031 131.371094 305.394531 130.742188 C 305.332031 130.117188 305.242188 129.496094 305.117188 128.878906 C 304.996094 128.257812 304.84375 127.648438 304.660156 127.046875 C 304.480469 126.445312 304.269531 125.851562 304.027344 125.269531 C 303.789062 124.6875 303.519531 124.121094 303.222656 123.566406 C 302.929688 123.011719 302.605469 122.46875 302.257812 121.945312 C 301.910156 121.421875 301.535156 120.917969 301.136719 120.429688 C 300.738281 119.945312 300.320312 119.480469 299.875 119.035156 C 299.429688 118.589844 298.96875 118.167969 298.480469 117.765625 C 297.996094 117.367188 297.492188 116.992188 296.972656 116.644531 C 296.449219 116.292969 295.910156 115.96875 295.359375 115.671875 C 294.804688 115.375 294.238281 115.105469 293.660156 114.867188 C 293.078125 114.625 292.488281 114.414062 291.886719 114.230469 C 291.289062 114.046875 290.679688 113.894531 290.0625 113.773438 C 289.449219 113.648438 288.828125 113.558594 288.203125 113.496094 C 287.578125 113.433594 286.953125 113.402344 286.324219 113.402344 C 285.699219 113.402344 285.074219 113.433594 284.449219 113.496094 C 283.824219 113.558594 283.203125 113.648438 282.589844 113.773438 C 281.972656 113.894531 281.363281 114.046875 280.765625 114.230469 C 280.164062 114.414062 279.574219 114.625 278.992188 114.867188 C 278.414062 115.105469 277.847656 115.375 277.292969 115.671875 C 276.742188 115.96875 276.203125 116.292969 275.679688 116.644531 C 275.160156 116.992188 274.65625 117.367188 274.171875 117.765625 C 273.683594 118.167969 273.222656 118.589844 272.777344 119.035156 C 272.332031 119.480469 271.914062 119.945312 271.515625 120.429688 C 271.117188 120.917969 270.742188 121.421875 270.394531 121.945312 C 270.046875 122.46875 269.722656 123.011719 269.429688 123.566406 C 269.132812 124.121094 268.863281 124.6875 268.625 125.269531 C 268.382812 125.851562 268.171875 126.445312 267.992188 127.046875 C 267.808594 127.648438 267.65625 128.257812 267.535156 128.878906 C 267.410156 129.496094 267.320312 130.117188 267.257812 130.742188 C 267.195312 131.371094 267.164062 132 267.164062 132.628906 C 267.164062 133.257812 267.195312 133.886719 267.257812 134.511719 C 267.320312 135.140625 267.410156 135.761719 267.535156 136.378906 C 267.65625 136.996094 267.808594 137.605469 267.992188 138.207031 C 268.171875 138.8125 268.382812 139.402344 268.625 139.984375 C 268.863281 140.566406 269.132812 141.136719 269.429688 141.691406 C 269.722656 142.246094 270.046875 142.785156 270.394531 143.308594 C 270.742188 143.832031 271.117188 144.335938 271.515625 144.824219 C 271.914062 145.3125 272.332031 145.777344 272.777344 146.222656 C 273.222656 146.667969 273.683594 147.089844 274.171875 147.488281 C 274.65625 147.886719 275.160156 148.261719 275.679688 148.613281 C 276.203125 148.960938 276.742188 149.285156 277.292969 149.582031 C 277.847656 149.878906 278.414062 150.148438 278.992188 150.390625 C 279.574219 150.628906 280.164062 150.84375 280.765625 151.023438 C 281.363281 151.207031 281.972656 151.359375 282.589844 151.484375 C 283.203125 151.605469 283.824219 151.699219 284.449219 151.761719 C 285.074219 151.820312 285.699219 151.851562 286.324219 151.851562 C 286.953125 151.851562 287.578125 151.820312 288.203125 151.761719 C 288.828125 151.699219 289.449219 151.605469 290.0625 151.484375 C 290.679688 151.359375 291.289062 151.207031 291.886719 151.023438 C 292.488281 150.84375 293.078125 150.628906 293.660156 150.390625 C 294.238281 150.148438 294.804688 149.878906 295.359375 149.582031 C 295.910156 149.285156 296.449219 148.960938 296.972656 148.613281 C 297.492188 148.261719 297.996094 147.886719 298.480469 147.488281 C 298.96875 147.089844 299.429688 146.667969 299.875 146.222656 C 300.320312 145.777344 300.738281 145.3125 301.136719 144.824219 C 301.535156 144.335938 301.910156 143.832031 302.257812 143.308594 C 302.605469 142.785156 302.929688 142.246094 303.222656 141.691406 C 303.519531 141.136719 303.789062 140.566406 304.027344 139.984375 C 304.269531 139.402344 304.480469 138.8125 304.660156 138.207031 C 304.84375 137.605469 304.996094 136.996094 305.117188 136.378906 C 305.242188 135.761719 305.332031 135.140625 305.394531 134.511719 C 305.457031 133.886719 305.488281 133.257812 305.488281 132.628906 Z M 305.488281 132.628906 " fill-opacity="1" fill-rule="nonzero"/><path fill="#000000" d="M 301.984375 182.148438 L 287 182.15625 C 286.898438 182.15625 286.8125 182.121094 286.742188 182.046875 C 286.667969 181.972656 286.632812 181.882812 286.632812 181.78125 L 286.644531 173.304688 C 286.644531 173.214844 286.675781 173.136719 286.742188 173.070312 C 286.808594 173.003906 286.886719 172.972656 286.976562 172.972656 L 308.695312 172.96875 C 308.9375 172.96875 309.140625 173.058594 309.308594 173.238281 C 318.542969 182.953125 317.714844 198.015625 310.191406 208.339844 C 300.042969 222.246094 279.921875 224.617188 266.972656 213.242188 C 255.046875 202.773438 253.277344 185.652344 262.625 172.808594 C 262.679688 172.734375 262.753906 172.695312 262.847656 172.695312 C 262.9375 172.695312 263.011719 172.734375 263.066406 172.808594 L 269.503906 181.796875 C 269.609375 181.945312 269.660156 182.105469 269.660156 182.285156 C 269.664062 182.460938 269.613281 182.625 269.511719 182.769531 C 265.070312 189.242188 267.296875 198.5 272.425781 203.867188 C 282.023438 213.914062 298.125 210.859375 303.824219 198.460938 C 305.304688 195.234375 306.050781 190.566406 305.097656 187.238281 C 304.675781 185.753906 303.820312 184.152344 302.535156 182.433594 C 302.398438 182.242188 302.214844 182.148438 301.984375 182.148438 Z M 301.984375 182.148438 " fill-opacity="1" fill-rule="nonzero"/><g fill="#000000" fill-opacity="1"><g transform="translate(36.095986, 219.525089)"><g><path d="M 45.4375 -28.4375 L 55.203125 -28.4375 L 55.203125 -6.28125 C 52.347656 -4 49.015625 -2.25 45.203125 -1.03125 C 41.390625 0.1875 37.46875 0.796875 33.4375 0.796875 C 27.769531 0.796875 22.660156 -0.429688 18.109375 -2.890625 C 13.554688 -5.359375 9.984375 -8.765625 7.390625 -13.109375 C 4.796875 -17.453125 3.5 -22.347656 3.5 -27.796875 C 3.5 -33.253906 4.796875 -38.15625 7.390625 -42.5 C 9.984375 -46.84375 13.566406 -50.242188 18.140625 -52.703125 C 22.722656 -55.171875 27.878906 -56.40625 33.609375 -56.40625 C 38.265625 -56.40625 42.5 -55.632812 46.3125 -54.09375 C 50.125 -52.5625 53.328125 -50.3125 55.921875 -47.34375 L 49.40625 -40.984375 C 45.175781 -45.222656 40.066406 -47.34375 34.078125 -47.34375 C 30.160156 -47.34375 26.675781 -46.519531 23.625 -44.875 C 20.582031 -43.238281 18.203125 -40.9375 16.484375 -37.96875 C 14.765625 -35 13.90625 -31.609375 13.90625 -27.796875 C 13.90625 -24.097656 14.765625 -20.765625 16.484375 -17.796875 C 18.203125 -14.828125 20.582031 -12.492188 23.625 -10.796875 C 26.675781 -9.109375 30.132812 -8.265625 34 -8.265625 C 38.34375 -8.265625 42.15625 -9.21875 45.4375 -11.125 Z M 45.4375 -28.4375 "/></g></g></g><g fill="#000000" fill-opacity="1"><g transform="translate(97.415703, 219.525089)"><g><path d="M 6.515625 -58.9375 L 16.4375 -58.9375 L 16.4375 0 L 6.515625 0 Z M 6.515625 -58.9375 "/></g></g></g><g fill="#000000" fill-opacity="1"><g transform="translate(120.370879, 219.525089)"><g><path d="M 22.71875 -42.890625 C 28.96875 -42.890625 33.742188 -41.394531 37.046875 -38.40625 C 40.359375 -35.414062 42.015625 -30.898438 42.015625 -24.859375 L 42.015625 0 L 32.65625 0 L 32.65625 -5.15625 C 31.4375 -3.3125 29.695312 -1.894531 27.4375 -0.90625 C 25.1875 0.0703125 22.472656 0.5625 19.296875 0.5625 C 16.117188 0.5625 13.335938 0.0195312 10.953125 -1.0625 C 8.578125 -2.15625 6.738281 -3.664062 5.4375 -5.59375 C 4.144531 -7.53125 3.5 -9.71875 3.5 -12.15625 C 3.5 -15.96875 4.914062 -19.023438 7.75 -21.328125 C 10.582031 -23.628906 15.039062 -24.78125 21.125 -24.78125 L 32.09375 -24.78125 L 32.09375 -25.421875 C 32.09375 -28.390625 31.203125 -30.664062 29.421875 -32.25 C 27.648438 -33.84375 25.019531 -34.640625 21.53125 -34.640625 C 19.144531 -34.640625 16.800781 -34.265625 14.5 -33.515625 C 12.195312 -32.773438 10.25 -31.742188 8.65625 -30.421875 L 4.765625 -37.65625 C 6.992188 -39.351562 9.664062 -40.648438 12.78125 -41.546875 C 15.90625 -42.441406 19.21875 -42.890625 22.71875 -42.890625 Z M 21.375 -6.671875 C 23.863281 -6.671875 26.070312 -7.238281 28 -8.375 C 29.9375 -9.519531 31.300781 -11.148438 32.09375 -13.265625 L 32.09375 -18.1875 L 21.84375 -18.1875 C 16.125 -18.1875 13.265625 -16.304688 13.265625 -12.546875 C 13.265625 -10.742188 13.976562 -9.3125 15.40625 -8.25 C 16.84375 -7.195312 18.832031 -6.671875 21.375 -6.671875 Z M 21.375 -6.671875 "/></g></g></g><g fill="#000000" fill-opacity="1"><g transform="translate(168.584697, 219.525089)"><g><path d="M 19.625 0.5625 C 16.175781 0.5625 12.8125 0.113281 9.53125 -0.78125 C 6.25 -1.6875 3.628906 -2.828125 1.671875 -4.203125 L 5.484375 -11.75 C 7.390625 -10.476562 9.675781 -9.457031 12.34375 -8.6875 C 15.019531 -7.925781 17.65625 -7.546875 20.25 -7.546875 C 26.1875 -7.546875 29.15625 -9.109375 29.15625 -12.234375 C 29.15625 -13.710938 28.398438 -14.742188 26.890625 -15.328125 C 25.378906 -15.910156 22.957031 -16.46875 19.625 -17 C 16.125 -17.53125 13.273438 -18.140625 11.078125 -18.828125 C 8.878906 -19.515625 6.972656 -20.71875 5.359375 -22.4375 C 3.742188 -24.15625 2.9375 -26.550781 2.9375 -29.625 C 2.9375 -33.65625 4.617188 -36.875 7.984375 -39.28125 C 11.347656 -41.6875 15.890625 -42.890625 21.609375 -42.890625 C 24.515625 -42.890625 27.425781 -42.554688 30.34375 -41.890625 C 33.257812 -41.234375 35.644531 -40.347656 37.5 -39.234375 L 33.6875 -31.703125 C 30.082031 -33.816406 26.03125 -34.875 21.53125 -34.875 C 18.613281 -34.875 16.398438 -34.4375 14.890625 -33.5625 C 13.378906 -32.6875 12.625 -31.535156 12.625 -30.109375 C 12.625 -28.515625 13.429688 -27.382812 15.046875 -26.71875 C 16.660156 -26.0625 19.164062 -25.441406 22.5625 -24.859375 C 25.945312 -24.328125 28.722656 -23.71875 30.890625 -23.03125 C 33.066406 -22.34375 34.9375 -21.175781 36.5 -19.53125 C 38.0625 -17.894531 38.84375 -15.566406 38.84375 -12.546875 C 38.84375 -8.578125 37.117188 -5.398438 33.671875 -3.015625 C 30.234375 -0.628906 25.550781 0.5625 19.625 0.5625 Z M 19.625 0.5625 "/></g></g></g><g fill="#000000" fill-opacity="1"><g transform="translate(209.490983, 219.525089)"><g><path d="M 19.625 0.5625 C 16.175781 0.5625 12.8125 0.113281 9.53125 -0.78125 C 6.25 -1.6875 3.628906 -2.828125 1.671875 -4.203125 L 5.484375 -11.75 C 7.390625 -10.476562 9.675781 -9.457031 12.34375 -8.6875 C 15.019531 -7.925781 17.65625 -7.546875 20.25 -7.546875 C 26.1875 -7.546875 29.15625 -9.109375 29.15625 -12.234375 C 29.15625 -13.710938 28.398438 -14.742188 26.890625 -15.328125 C 25.378906 -15.910156 22.957031 -16.46875 19.625 -17 C 16.125 -17.53125 13.273438 -18.140625 11.078125 -18.828125 C 8.878906 -19.515625 6.972656 -20.71875 5.359375 -22.4375 C 3.742188 -24.15625 2.9375 -26.550781 2.9375 -29.625 C 2.9375 -33.65625 4.617188 -36.875 7.984375 -39.28125 C 11.347656 -41.6875 15.890625 -42.890625 21.609375 -42.890625 C 24.515625 -42.890625 27.425781 -42.554688 30.34375 -41.890625 C 33.257812 -41.234375 35.644531 -40.347656 37.5 -39.234375 L 33.6875 -31.703125 C 30.082031 -33.816406 26.03125 -34.875 21.53125 -34.875 C 18.613281 -34.875 16.398438 -34.4375 14.890625 -33.5625 C 13.378906 -32.6875 12.625 -31.535156 12.625 -30.109375 C 12.625 -28.515625 13.429688 -27.382812 15.046875 -26.71875 C 16.660156 -26.0625 19.164062 -25.441406 22.5625 -24.859375 C 25.945312 -24.328125 28.722656 -23.71875 30.890625 -23.03125 C 33.066406 -22.34375 34.9375 -21.175781 36.5 -19.53125 C 38.0625 -17.894531 38.84375 -15.566406 38.84375 -12.546875 C 38.84375 -8.578125 37.117188 -5.398438 33.671875 -3.015625 C 30.234375 -0.628906 25.550781 0.5625 19.625 0.5625 Z M 19.625 0.5625 "/></g></g></g></svg>