<svg xmlns="http://www.w3.org/2000/svg" xmlns:xlink="http://www.w3.org/1999/xlink" width="500" zoomAndPan="magnify" viewBox="0 0 375 374.999991" height="500" preserveAspectRatio="xMidYMid meet" version="1.0"><defs><g/><clipPath id="a79c9bb0e4"><path d="M 296 88.453125 L 310.050781 88.453125 L 310.050781 102 L 296 102 Z M 296 88.453125 " clip-rule="nonzero"/></clipPath></defs><rect x="-37.5" width="450" fill="#ffffff" y="-37.499999" height="449.999989" fill-opacity="1"/><rect x="-37.5" width="450" fill="#8fff00" y="-37.499999" height="449.999989" fill-opacity="1"/><g clip-path="url(#a79c9bb0e4)"><path fill="#000000" d="M 310.050781 95.136719 C 310.050781 95.566406 310.007812 95.992188 309.921875 96.414062 C 309.839844 96.835938 309.714844 97.246094 309.550781 97.644531 C 309.386719 98.042969 309.1875 98.417969 308.949219 98.777344 C 308.710938 99.136719 308.4375 99.46875 308.132812 99.769531 C 307.832031 100.074219 307.5 100.347656 307.144531 100.585938 C 306.789062 100.824219 306.410156 101.027344 306.015625 101.191406 C 305.617188 101.355469 305.207031 101.480469 304.789062 101.566406 C 304.367188 101.648438 303.941406 101.691406 303.511719 101.691406 C 303.082031 101.691406 302.65625 101.648438 302.238281 101.566406 C 301.816406 101.480469 301.40625 101.355469 301.011719 101.191406 C 300.613281 101.027344 300.238281 100.824219 299.878906 100.585938 C 299.523438 100.347656 299.195312 100.074219 298.890625 99.769531 C 298.585938 99.46875 298.316406 99.136719 298.078125 98.777344 C 297.839844 98.417969 297.636719 98.042969 297.472656 97.644531 C 297.308594 97.246094 297.183594 96.835938 297.101562 96.414062 C 297.015625 95.992188 296.976562 95.566406 296.976562 95.136719 C 296.976562 94.707031 297.015625 94.277344 297.101562 93.855469 C 297.183594 93.433594 297.308594 93.023438 297.472656 92.628906 C 297.636719 92.230469 297.839844 91.851562 298.078125 91.492188 C 298.316406 91.136719 298.585938 90.804688 298.890625 90.5 C 299.195312 90.195312 299.523438 89.925781 299.878906 89.683594 C 300.238281 89.445312 300.613281 89.242188 301.011719 89.078125 C 301.40625 88.914062 301.816406 88.789062 302.238281 88.707031 C 302.65625 88.621094 303.082031 88.582031 303.511719 88.582031 C 303.941406 88.582031 304.367188 88.621094 304.789062 88.707031 C 305.207031 88.789062 305.617188 88.914062 306.015625 89.078125 C 306.410156 89.242188 306.789062 89.445312 307.144531 89.683594 C 307.5 89.925781 307.832031 90.195312 308.132812 90.5 C 308.4375 90.804688 308.710938 91.136719 308.949219 91.492188 C 309.1875 91.851562 309.386719 92.230469 309.550781 92.628906 C 309.714844 93.023438 309.839844 93.433594 309.921875 93.855469 C 310.007812 94.277344 310.050781 94.707031 310.050781 95.136719 Z M 310.050781 95.136719 " fill-opacity="1" fill-rule="nonzero"/></g><path fill="#000000" d="M 303.574219 122.617188 C 303.574219 123.519531 303.53125 124.417969 303.445312 125.316406 C 303.355469 126.214844 303.222656 127.105469 303.046875 127.988281 C 302.871094 128.875 302.65625 129.746094 302.394531 130.609375 C 302.132812 131.472656 301.828125 132.320312 301.484375 133.15625 C 301.140625 133.988281 300.757812 134.800781 300.332031 135.597656 C 299.910156 136.394531 299.449219 137.167969 298.949219 137.914062 C 298.449219 138.664062 297.914062 139.390625 297.34375 140.085938 C 296.773438 140.785156 296.167969 141.453125 295.53125 142.089844 C 294.898438 142.726562 294.230469 143.332031 293.535156 143.902344 C 292.839844 144.476562 292.121094 145.011719 291.371094 145.515625 C 290.625 146.015625 289.855469 146.476562 289.058594 146.902344 C 288.265625 147.328125 287.457031 147.714844 286.625 148.058594 C 285.792969 148.402344 284.949219 148.707031 284.085938 148.96875 C 283.226562 149.230469 282.355469 149.449219 281.472656 149.625 C 280.589844 149.800781 279.703125 149.933594 278.808594 150.023438 C 277.914062 150.109375 277.015625 150.15625 276.117188 150.15625 C 275.214844 150.15625 274.320312 150.109375 273.425781 150.023438 C 272.527344 149.933594 271.640625 149.800781 270.757812 149.625 C 269.875 149.449219 269.003906 149.230469 268.144531 148.96875 C 267.285156 148.707031 266.4375 148.402344 265.605469 148.058594 C 264.777344 147.714844 263.964844 147.328125 263.171875 146.902344 C 262.378906 146.476562 261.609375 146.015625 260.859375 145.515625 C 260.113281 145.011719 259.390625 144.476562 258.695312 143.902344 C 258 143.332031 257.335938 142.726562 256.699219 142.089844 C 256.0625 141.453125 255.460938 140.785156 254.890625 140.085938 C 254.316406 139.390625 253.78125 138.664062 253.285156 137.914062 C 252.785156 137.167969 252.320312 136.394531 251.898438 135.597656 C 251.472656 134.800781 251.089844 133.988281 250.746094 133.15625 C 250.402344 132.320312 250.097656 131.472656 249.839844 130.609375 C 249.578125 129.746094 249.359375 128.875 249.183594 127.988281 C 249.007812 127.105469 248.875 126.214844 248.789062 125.316406 C 248.699219 124.417969 248.65625 123.519531 248.65625 122.617188 C 248.65625 121.714844 248.699219 120.816406 248.789062 119.917969 C 248.875 119.019531 249.007812 118.128906 249.183594 117.242188 C 249.359375 116.359375 249.578125 115.484375 249.839844 114.621094 C 250.097656 113.757812 250.402344 112.910156 250.746094 112.078125 C 251.089844 111.246094 251.472656 110.429688 251.898438 109.636719 C 252.320312 108.839844 252.785156 108.066406 253.285156 107.316406 C 253.78125 106.566406 254.316406 105.84375 254.890625 105.144531 C 255.460938 104.449219 256.0625 103.78125 256.699219 103.144531 C 257.335938 102.507812 258 101.902344 258.695312 101.328125 C 259.390625 100.757812 260.113281 100.21875 260.859375 99.71875 C 261.609375 99.21875 262.378906 98.753906 263.171875 98.328125 C 263.964844 97.90625 264.777344 97.519531 265.605469 97.175781 C 266.4375 96.828125 267.285156 96.523438 268.144531 96.261719 C 269.003906 96 269.875 95.78125 270.757812 95.605469 C 271.640625 95.429688 272.527344 95.296875 273.425781 95.210938 C 274.320312 95.121094 275.214844 95.078125 276.117188 95.078125 C 277.015625 95.078125 277.914062 95.121094 278.808594 95.210938 C 279.703125 95.296875 280.589844 95.429688 281.472656 95.605469 C 282.355469 95.78125 283.226562 96 284.085938 96.261719 C 284.949219 96.523438 285.792969 96.828125 286.625 97.175781 C 287.457031 97.519531 288.265625 97.90625 289.058594 98.328125 C 289.855469 98.753906 290.625 99.21875 291.371094 99.71875 C 292.121094 100.21875 292.839844 100.757812 293.535156 101.328125 C 294.230469 101.902344 294.898438 102.507812 295.53125 103.144531 C 296.167969 103.78125 296.773438 104.449219 297.34375 105.144531 C 297.914062 105.84375 298.449219 106.566406 298.949219 107.316406 C 299.449219 108.066406 299.910156 108.839844 300.332031 109.636719 C 300.757812 110.429688 301.140625 111.246094 301.484375 112.078125 C 301.828125 112.910156 302.132812 113.757812 302.394531 114.621094 C 302.65625 115.484375 302.871094 116.359375 303.046875 117.242188 C 303.222656 118.128906 303.355469 119.019531 303.445312 119.917969 C 303.53125 120.816406 303.574219 121.714844 303.574219 122.617188 Z M 293.835938 122.617188 C 293.835938 122.035156 293.804688 121.453125 293.75 120.875 C 293.691406 120.296875 293.605469 119.71875 293.492188 119.148438 C 293.378906 118.578125 293.238281 118.015625 293.070312 117.457031 C 292.902344 116.902344 292.707031 116.355469 292.484375 115.816406 C 292.265625 115.277344 292.015625 114.753906 291.742188 114.238281 C 291.46875 113.726562 291.171875 113.226562 290.847656 112.746094 C 290.527344 112.261719 290.179688 111.792969 289.8125 111.34375 C 289.445312 110.894531 289.054688 110.464844 288.644531 110.050781 C 288.234375 109.640625 287.804688 109.25 287.355469 108.878906 C 286.90625 108.511719 286.441406 108.164062 285.960938 107.839844 C 285.476562 107.519531 284.980469 107.21875 284.46875 106.945312 C 283.957031 106.671875 283.433594 106.421875 282.894531 106.199219 C 282.359375 105.976562 281.816406 105.78125 281.257812 105.613281 C 280.703125 105.441406 280.140625 105.300781 279.574219 105.1875 C 279.003906 105.074219 278.429688 104.988281 277.851562 104.933594 C 277.273438 104.875 276.695312 104.847656 276.117188 104.847656 C 275.535156 104.847656 274.957031 104.875 274.378906 104.933594 C 273.800781 104.988281 273.226562 105.074219 272.660156 105.1875 C 272.089844 105.300781 271.527344 105.441406 270.972656 105.613281 C 270.417969 105.78125 269.871094 105.976562 269.335938 106.199219 C 268.800781 106.421875 268.273438 106.671875 267.761719 106.945312 C 267.25 107.21875 266.753906 107.519531 266.273438 107.839844 C 265.789062 108.164062 265.324219 108.511719 264.875 108.878906 C 264.425781 109.25 263.996094 109.640625 263.585938 110.050781 C 263.175781 110.464844 262.789062 110.894531 262.417969 111.34375 C 262.050781 111.792969 261.707031 112.261719 261.382812 112.746094 C 261.0625 113.226562 260.761719 113.726562 260.488281 114.238281 C 260.214844 114.753906 259.96875 115.277344 259.746094 115.816406 C 259.523438 116.355469 259.328125 116.902344 259.160156 117.457031 C 258.992188 118.015625 258.851562 118.578125 258.738281 119.148438 C 258.625 119.71875 258.539062 120.296875 258.484375 120.875 C 258.425781 121.453125 258.398438 122.035156 258.398438 122.617188 C 258.398438 123.199219 258.425781 123.777344 258.484375 124.359375 C 258.539062 124.9375 258.625 125.511719 258.738281 126.082031 C 258.851562 126.652344 258.992188 127.21875 259.160156 127.773438 C 259.328125 128.332031 259.523438 128.878906 259.746094 129.417969 C 259.96875 129.953125 260.214844 130.480469 260.488281 130.992188 C 260.761719 131.507812 261.0625 132.003906 261.382812 132.488281 C 261.707031 132.972656 262.050781 133.4375 262.417969 133.890625 C 262.789062 134.339844 263.175781 134.769531 263.585938 135.179688 C 263.996094 135.59375 264.425781 135.984375 264.875 136.351562 C 265.324219 136.722656 265.789062 137.066406 266.273438 137.390625 C 266.753906 137.714844 267.25 138.011719 267.761719 138.289062 C 268.273438 138.5625 268.800781 138.808594 269.335938 139.03125 C 269.871094 139.253906 270.417969 139.453125 270.972656 139.621094 C 271.527344 139.789062 272.089844 139.929688 272.660156 140.042969 C 273.226562 140.15625 273.800781 140.242188 274.378906 140.300781 C 274.957031 140.355469 275.535156 140.386719 276.117188 140.386719 C 276.695312 140.386719 277.273438 140.355469 277.851562 140.300781 C 278.429688 140.242188 279.003906 140.15625 279.574219 140.042969 C 280.140625 139.929688 280.703125 139.789062 281.257812 139.621094 C 281.816406 139.453125 282.359375 139.253906 282.894531 139.03125 C 283.433594 138.808594 283.957031 138.5625 284.46875 138.289062 C 284.980469 138.011719 285.476562 137.714844 285.960938 137.390625 C 286.441406 137.066406 286.90625 136.722656 287.355469 136.351562 C 287.804688 135.984375 288.234375 135.59375 288.644531 135.179688 C 289.054688 134.769531 289.445312 134.339844 289.8125 133.890625 C 290.179688 133.4375 290.527344 132.972656 290.847656 132.488281 C 291.171875 132.003906 291.46875 131.507812 291.742188 130.992188 C 292.015625 130.480469 292.265625 129.953125 292.484375 129.417969 C 292.707031 128.878906 292.902344 128.332031 293.070312 127.773438 C 293.238281 127.21875 293.378906 126.652344 293.492188 126.082031 C 293.605469 125.511719 293.691406 124.9375 293.75 124.359375 C 293.804688 123.777344 293.835938 123.199219 293.835938 122.617188 Z M 293.835938 122.617188 " fill-opacity="1" fill-rule="nonzero"/><path fill="#000000" d="M 290.59375 168.386719 L 276.742188 168.394531 C 276.644531 168.394531 276.566406 168.359375 276.5 168.292969 C 276.433594 168.222656 276.398438 168.140625 276.398438 168.046875 L 276.410156 160.214844 C 276.410156 160.128906 276.441406 160.058594 276.5 159.996094 C 276.558594 159.9375 276.632812 159.90625 276.71875 159.90625 L 296.800781 159.902344 C 297.027344 159.902344 297.214844 159.984375 297.367188 160.152344 C 305.90625 169.132812 305.144531 183.054688 298.183594 192.597656 C 288.800781 205.445312 270.191406 207.640625 258.21875 197.128906 C 247.191406 187.453125 245.554688 171.625 254.199219 159.757812 C 254.25 159.6875 254.316406 159.652344 254.402344 159.652344 C 254.488281 159.652344 254.558594 159.6875 254.609375 159.757812 L 260.5625 168.0625 C 260.65625 168.199219 260.703125 168.347656 260.703125 168.511719 C 260.707031 168.675781 260.660156 168.828125 260.566406 168.960938 C 256.460938 174.945312 258.519531 183.5 263.261719 188.460938 C 272.136719 197.75 287.027344 194.921875 292.296875 183.464844 C 293.667969 180.484375 294.355469 176.167969 293.476562 173.09375 C 293.082031 171.71875 292.292969 170.238281 291.105469 168.648438 C 290.976562 168.476562 290.808594 168.386719 290.59375 168.386719 Z M 290.59375 168.386719 " fill-opacity="1" fill-rule="nonzero"/><g fill="#000000" fill-opacity="1"><g transform="translate(46.76991, 203.213804)"><g><path d="M 39.71875 -25.78125 L 50.296875 -25.78125 L 50.296875 -5.5 C 47.578125 -3.445312 44.429688 -1.875 40.859375 -0.78125 C 37.285156 0.3125 33.691406 0.859375 30.078125 0.859375 C 24.878906 0.859375 20.207031 -0.242188 16.0625 -2.453125 C 11.925781 -4.671875 8.675781 -7.742188 6.3125 -11.671875 C 3.957031 -15.609375 2.78125 -20.050781 2.78125 -25 C 2.78125 -29.957031 3.957031 -34.398438 6.3125 -38.328125 C 8.675781 -42.253906 11.953125 -45.320312 16.140625 -47.53125 C 20.335938 -49.75 25.054688 -50.859375 30.296875 -50.859375 C 34.671875 -50.859375 38.644531 -50.117188 42.21875 -48.640625 C 45.789062 -47.171875 48.789062 -45.03125 51.21875 -42.21875 L 43.796875 -35.359375 C 40.222656 -39.117188 35.910156 -41 30.859375 -41 C 27.671875 -41 24.835938 -40.332031 22.359375 -39 C 19.878906 -37.664062 17.945312 -35.785156 16.5625 -33.359375 C 15.1875 -30.929688 14.5 -28.144531 14.5 -25 C 14.5 -21.90625 15.1875 -19.144531 16.5625 -16.71875 C 17.945312 -14.289062 19.863281 -12.394531 22.3125 -11.03125 C 24.769531 -9.675781 27.570312 -9 30.71875 -9 C 34.050781 -9 37.050781 -9.710938 39.71875 -11.140625 Z M 39.71875 -25.78125 "/></g></g></g><g fill="#000000" fill-opacity="1"><g transform="translate(101.848158, 203.213804)"><g><path d="M 5.140625 -53 L 16.28125 -53 L 16.28125 0 L 5.140625 0 Z M 5.140625 -53 "/></g></g></g><g fill="#000000" fill-opacity="1"><g transform="translate(123.350815, 203.213804)"><g><path d="M 20.640625 -39 C 26.597656 -39 31.171875 -37.582031 34.359375 -34.75 C 37.546875 -31.914062 39.140625 -27.644531 39.140625 -21.9375 L 39.140625 0 L 28.71875 0 L 28.71875 -4.78125 C 26.625 -1.207031 22.71875 0.578125 17 0.578125 C 14.050781 0.578125 11.492188 0.078125 9.328125 -0.921875 C 7.160156 -1.921875 5.503906 -3.300781 4.359375 -5.0625 C 3.210938 -6.832031 2.640625 -8.835938 2.640625 -11.078125 C 2.640625 -14.648438 3.984375 -17.457031 6.671875 -19.5 C 9.367188 -21.550781 13.523438 -22.578125 19.140625 -22.578125 L 28 -22.578125 C 28 -25.003906 27.257812 -26.867188 25.78125 -28.171875 C 24.3125 -29.484375 22.097656 -30.140625 19.140625 -30.140625 C 17.097656 -30.140625 15.085938 -29.816406 13.109375 -29.171875 C 11.128906 -28.535156 9.453125 -27.671875 8.078125 -26.578125 L 4.078125 -34.359375 C 6.171875 -35.835938 8.679688 -36.976562 11.609375 -37.78125 C 14.535156 -38.59375 17.546875 -39 20.640625 -39 Z M 19.78125 -6.921875 C 21.6875 -6.921875 23.378906 -7.363281 24.859375 -8.25 C 26.335938 -9.132812 27.382812 -10.429688 28 -12.140625 L 28 -16.078125 L 20.359375 -16.078125 C 15.785156 -16.078125 13.5 -14.578125 13.5 -11.578125 C 13.5 -10.148438 14.054688 -9.015625 15.171875 -8.171875 C 16.296875 -7.335938 17.832031 -6.921875 19.78125 -6.921875 Z M 19.78125 -6.921875 "/></g></g></g><g fill="#000000" fill-opacity="1"><g transform="translate(167.427697, 203.213804)"><g><path d="M 18.078125 0.578125 C 14.878906 0.578125 11.753906 0.1875 8.703125 -0.59375 C 5.660156 -1.382812 3.234375 -2.378906 1.421875 -3.578125 L 5.140625 -11.578125 C 6.859375 -10.484375 8.929688 -9.585938 11.359375 -8.890625 C 13.785156 -8.203125 16.164062 -7.859375 18.5 -7.859375 C 23.21875 -7.859375 25.578125 -9.023438 25.578125 -11.359375 C 25.578125 -12.453125 24.929688 -13.238281 23.640625 -13.71875 C 22.359375 -14.195312 20.382812 -14.601562 17.71875 -14.9375 C 14.570312 -15.40625 11.972656 -15.945312 9.921875 -16.5625 C 7.878906 -17.1875 6.109375 -18.285156 4.609375 -19.859375 C 3.109375 -21.429688 2.359375 -23.671875 2.359375 -26.578125 C 2.359375 -29.003906 3.0625 -31.15625 4.46875 -33.03125 C 5.875 -34.914062 7.921875 -36.378906 10.609375 -37.421875 C 13.296875 -38.472656 16.472656 -39 20.140625 -39 C 22.859375 -39 25.5625 -38.703125 28.25 -38.109375 C 30.945312 -37.515625 33.175781 -36.691406 34.9375 -35.640625 L 31.21875 -27.71875 C 27.832031 -29.625 24.140625 -30.578125 20.140625 -30.578125 C 17.765625 -30.578125 15.976562 -30.242188 14.78125 -29.578125 C 13.59375 -28.910156 13 -28.050781 13 -27 C 13 -25.8125 13.640625 -24.976562 14.921875 -24.5 C 16.210938 -24.019531 18.265625 -23.566406 21.078125 -23.140625 C 24.210938 -22.617188 26.78125 -22.0625 28.78125 -21.46875 C 30.789062 -20.875 32.53125 -19.789062 34 -18.21875 C 35.476562 -16.644531 36.21875 -14.453125 36.21875 -11.640625 C 36.21875 -9.265625 35.503906 -7.144531 34.078125 -5.28125 C 32.648438 -3.425781 30.566406 -1.984375 27.828125 -0.953125 C 25.085938 0.0664062 21.835938 0.578125 18.078125 0.578125 Z M 18.078125 0.578125 "/></g></g></g><g fill="#000000" fill-opacity="1"><g transform="translate(205.360968, 203.213804)"><g><path d="M 18.078125 0.578125 C 14.878906 0.578125 11.753906 0.1875 8.703125 -0.59375 C 5.660156 -1.382812 3.234375 -2.378906 1.421875 -3.578125 L 5.140625 -11.578125 C 6.859375 -10.484375 8.929688 -9.585938 11.359375 -8.890625 C 13.785156 -8.203125 16.164062 -7.859375 18.5 -7.859375 C 23.21875 -7.859375 25.578125 -9.023438 25.578125 -11.359375 C 25.578125 -12.453125 24.929688 -13.238281 23.640625 -13.71875 C 22.359375 -14.195312 20.382812 -14.601562 17.71875 -14.9375 C 14.570312 -15.40625 11.972656 -15.945312 9.921875 -16.5625 C 7.878906 -17.1875 6.109375 -18.285156 4.609375 -19.859375 C 3.109375 -21.429688 2.359375 -23.671875 2.359375 -26.578125 C 2.359375 -29.003906 3.0625 -31.15625 4.46875 -33.03125 C 5.875 -34.914062 7.921875 -36.378906 10.609375 -37.421875 C 13.296875 -38.472656 16.472656 -39 20.140625 -39 C 22.859375 -39 25.5625 -38.703125 28.25 -38.109375 C 30.945312 -37.515625 33.175781 -36.691406 34.9375 -35.640625 L 31.21875 -27.71875 C 27.832031 -29.625 24.140625 -30.578125 20.140625 -30.578125 C 17.765625 -30.578125 15.976562 -30.242188 14.78125 -29.578125 C 13.59375 -28.910156 13 -28.050781 13 -27 C 13 -25.8125 13.640625 -24.976562 14.921875 -24.5 C 16.210938 -24.019531 18.265625 -23.566406 21.078125 -23.140625 C 24.210938 -22.617188 26.78125 -22.0625 28.78125 -21.46875 C 30.789062 -20.875 32.53125 -19.789062 34 -18.21875 C 35.476562 -16.644531 36.21875 -14.453125 36.21875 -11.640625 C 36.21875 -9.265625 35.503906 -7.144531 34.078125 -5.28125 C 32.648438 -3.425781 30.566406 -1.984375 27.828125 -0.953125 C 25.085938 0.0664062 21.835938 0.578125 18.078125 0.578125 Z M 18.078125 0.578125 "/></g></g></g></svg>