<svg xmlns="http://www.w3.org/2000/svg" xmlns:xlink="http://www.w3.org/1999/xlink" width="1366" zoomAndPan="magnify" viewBox="0 0 1024.5 225" height="300" preserveAspectRatio="xMidYMid meet" version="1.0"><defs><g/><clipPath id="ef254ff655"><path d="M 784.183594 2.683594 L 973.476562 2.683594 L 973.476562 192.339844 L 784.183594 192.339844 Z M 784.183594 2.683594 " clip-rule="nonzero"/></clipPath></defs><path fill="#302f2f" d="M 894.632812 119.097656 L 902.832031 119.097656 C 906.632812 119.097656 909.832031 115.894531 909.832031 112.09375 L 909.832031 97.492188 C 909.832031 93.695312 906.632812 90.492188 902.832031 90.492188 L 894.632812 90.492188 C 890.832031 90.492188 887.632812 93.695312 887.632812 97.492188 L 887.632812 112.09375 C 887.632812 115.894531 890.632812 119.097656 894.632812 119.097656 Z M 894.632812 119.097656 " fill-opacity="1" fill-rule="nonzero"/><path fill="#302f2f" d="M 859.628906 119.097656 L 867.828125 119.097656 C 871.628906 119.097656 874.828125 115.894531 874.828125 112.09375 L 874.828125 97.492188 C 874.828125 93.695312 871.628906 90.492188 867.828125 90.492188 L 859.628906 90.492188 C 855.828125 90.492188 852.628906 93.695312 852.628906 97.492188 L 852.628906 112.09375 C 852.628906 115.894531 855.828125 119.097656 859.628906 119.097656 Z M 859.628906 119.097656 " fill-opacity="1" fill-rule="nonzero"/><g clip-path="url(#ef254ff655)"><path fill="#302f2f" d="M 878.828125 2.683594 C 931.234375 2.683594 973.839844 45.289062 973.839844 97.695312 C 973.839844 150.097656 931.234375 192.703125 878.828125 192.703125 L 798.820312 192.703125 C 790.421875 192.703125 783.820312 185.902344 783.820312 177.703125 L 783.820312 97.695312 C 783.820312 45.289062 826.425781 2.683594 878.828125 2.683594 Z M 812.222656 111.09375 C 812.222656 117.296875 817.222656 122.097656 823.222656 122.097656 L 828.222656 122.097656 C 828.625 122.097656 829.226562 122.097656 829.625 121.894531 C 837.625 138.898438 856.628906 150.699219 878.828125 150.699219 C 901.03125 150.699219 920.035156 138.898438 927.835938 122.097656 L 932.835938 122.097656 C 939.035156 122.097656 943.835938 117.097656 943.835938 111.09375 L 943.835938 98.492188 C 943.835938 92.292969 938.835938 87.492188 932.835938 87.492188 L 928.035156 87.492188 C 921.234375 73.089844 906.03125 62.289062 887.632812 59.691406 L 887.632812 47.6875 C 891.429688 45.488281 894.03125 41.488281 894.03125 36.6875 C 894.03125 29.6875 888.429688 24.085938 881.429688 24.085938 C 874.429688 24.085938 868.828125 29.6875 868.828125 36.6875 C 868.828125 41.289062 871.429688 45.488281 875.230469 47.6875 L 875.230469 59.089844 C 854.628906 60.488281 837.425781 71.691406 830.023438 87.492188 C 829.625 87.492188 829.023438 87.292969 828.625 87.292969 L 823.625 87.292969 C 817.421875 87.292969 812.621094 92.292969 812.621094 98.292969 L 812.621094 111.09375 Z M 812.222656 111.09375 " fill-opacity="1" fill-rule="nonzero"/></g><g fill="#302f2f" fill-opacity="1"><g transform="translate(59.796153, 186.406416)"><g><path d="M 11.28125 0 L 11.28125 -124.9375 L 33.484375 -124.9375 L 33.484375 -72.890625 C 36.378906 -77.628906 40.285156 -81.359375 45.203125 -84.078125 C 50.117188 -86.796875 55.757812 -88.15625 62.125 -88.15625 C 72.769531 -88.15625 81.007812 -84.800781 86.84375 -78.09375 C 92.6875 -71.382812 95.609375 -61.550781 95.609375 -48.59375 L 95.609375 0 L 73.578125 0 L 73.578125 -46.5 C 73.578125 -53.90625 72.101562 -59.570312 69.15625 -63.5 C 66.207031 -67.4375 61.550781 -69.40625 55.1875 -69.40625 C 48.9375 -69.40625 43.753906 -67.207031 39.640625 -62.8125 C 35.535156 -58.414062 33.484375 -52.285156 33.484375 -44.421875 L 33.484375 0 Z M 11.28125 0 "/></g></g></g><g fill="#302f2f" fill-opacity="1"><g transform="translate(158.006399, 186.406416)"><g><path d="M 53.09375 2.078125 C 44.414062 2.078125 36.722656 0.226562 30.015625 -3.46875 C 23.304688 -7.175781 18.039062 -12.382812 14.21875 -19.09375 C 10.40625 -25.800781 8.5 -33.550781 8.5 -42.34375 C 8.5 -51.25 10.378906 -59.171875 14.140625 -66.109375 C 17.898438 -73.054688 23.101562 -78.46875 29.75 -82.34375 C 36.40625 -86.21875 44.25 -88.15625 53.28125 -88.15625 C 61.71875 -88.15625 69.175781 -86.300781 75.65625 -82.59375 C 82.132812 -78.894531 87.195312 -73.832031 90.84375 -67.40625 C 94.488281 -60.988281 96.3125 -53.847656 96.3125 -45.984375 C 96.3125 -44.710938 96.28125 -43.378906 96.21875 -41.984375 C 96.164062 -40.597656 96.082031 -39.15625 95.96875 -37.65625 L 30.546875 -37.65625 C 31.003906 -30.945312 33.34375 -25.679688 37.5625 -21.859375 C 41.789062 -18.046875 46.910156 -16.140625 52.921875 -16.140625 C 57.429688 -16.140625 61.21875 -17.148438 64.28125 -19.171875 C 67.351562 -21.203125 69.640625 -23.835938 71.140625 -27.078125 L 93.703125 -27.078125 C 92.085938 -21.640625 89.398438 -16.691406 85.640625 -12.234375 C 81.878906 -7.773438 77.25 -4.273438 71.75 -1.734375 C 66.257812 0.804688 60.039062 2.078125 53.09375 2.078125 Z M 53.28125 -70.109375 C 47.84375 -70.109375 43.039062 -68.570312 38.875 -65.5 C 34.707031 -62.4375 32.046875 -57.78125 30.890625 -51.53125 L 73.75 -51.53125 C 73.40625 -57.207031 71.320312 -61.722656 67.5 -65.078125 C 63.6875 -68.429688 58.945312 -70.109375 53.28125 -70.109375 Z M 53.28125 -70.109375 "/></g></g></g><g fill="#302f2f" fill-opacity="1"><g transform="translate(254.481466, 186.406416)"><g><path d="M 11.28125 0 L 11.28125 -124.9375 L 33.484375 -124.9375 L 33.484375 0 Z M 11.28125 0 "/></g></g></g><g fill="#302f2f" fill-opacity="1"><g transform="translate(292.133615, 186.406416)"><g><path d="M 11.28125 0 L 11.28125 -124.9375 L 33.484375 -124.9375 L 33.484375 0 Z M 11.28125 0 "/></g></g></g><g fill="#302f2f" fill-opacity="1"><g transform="translate(329.785764, 186.406416)"><g><path d="M 52.578125 2.078125 C 44.242188 2.078125 36.75 0.171875 30.09375 -3.640625 C 23.445312 -7.460938 18.1875 -12.753906 14.3125 -19.515625 C 10.4375 -26.285156 8.5 -34.125 8.5 -43.03125 C 8.5 -51.9375 10.460938 -59.773438 14.390625 -66.546875 C 18.328125 -73.316406 23.625 -78.609375 30.28125 -82.421875 C 36.9375 -86.242188 44.425781 -88.15625 52.75 -88.15625 C 60.96875 -88.15625 68.398438 -86.242188 75.046875 -82.421875 C 81.703125 -78.609375 86.96875 -73.316406 90.84375 -66.546875 C 94.71875 -59.773438 96.65625 -51.9375 96.65625 -43.03125 C 96.65625 -34.125 94.71875 -26.285156 90.84375 -19.515625 C 86.96875 -12.753906 81.675781 -7.460938 74.96875 -3.640625 C 68.257812 0.171875 60.796875 2.078125 52.578125 2.078125 Z M 52.578125 -17.171875 C 58.359375 -17.171875 63.390625 -19.335938 67.671875 -23.671875 C 71.953125 -28.015625 74.09375 -34.46875 74.09375 -43.03125 C 74.09375 -51.59375 71.953125 -58.039062 67.671875 -62.375 C 63.390625 -66.71875 58.414062 -68.890625 52.75 -68.890625 C 46.851562 -68.890625 41.789062 -66.71875 37.5625 -62.375 C 33.34375 -58.039062 31.234375 -51.59375 31.234375 -43.03125 C 31.234375 -34.46875 33.34375 -28.015625 37.5625 -23.671875 C 41.789062 -19.335938 46.796875 -17.171875 52.578125 -17.171875 Z M 52.578125 -17.171875 "/></g></g></g><g fill="#302f2f" fill-opacity="1"><g transform="translate(427.648974, 186.406416)"><g><path d="M 62.296875 2.078125 C 55.816406 2.078125 50.144531 0.863281 45.28125 -1.5625 C 40.425781 -3.988281 36.492188 -7.398438 33.484375 -11.796875 L 31.0625 0 L 11.28125 0 L 11.28125 -124.9375 L 33.484375 -124.9375 L 33.484375 -73.75 C 36.265625 -77.570312 39.9375 -80.925781 44.5 -83.8125 C 49.070312 -86.707031 55.003906 -88.15625 62.296875 -88.15625 C 70.390625 -88.15625 77.617188 -86.1875 83.984375 -82.25 C 90.347656 -78.320312 95.378906 -72.941406 99.078125 -66.109375 C 102.785156 -59.285156 104.640625 -51.535156 104.640625 -42.859375 C 104.640625 -34.179688 102.785156 -26.457031 99.078125 -19.6875 C 95.378906 -12.925781 90.347656 -7.609375 83.984375 -3.734375 C 77.617188 0.140625 70.390625 2.078125 62.296875 2.078125 Z M 57.609375 -17.359375 C 64.671875 -17.359375 70.515625 -19.726562 75.140625 -24.46875 C 79.765625 -29.207031 82.078125 -35.335938 82.078125 -42.859375 C 82.078125 -50.378906 79.765625 -56.566406 75.140625 -61.421875 C 70.515625 -66.285156 64.671875 -68.71875 57.609375 -68.71875 C 50.441406 -68.71875 44.570312 -66.316406 40 -61.515625 C 35.425781 -56.710938 33.140625 -50.550781 33.140625 -43.03125 C 33.140625 -35.507812 35.425781 -29.347656 40 -24.546875 C 44.570312 -19.753906 50.441406 -17.359375 57.609375 -17.359375 Z M 57.609375 -17.359375 "/></g></g></g><g fill="#302f2f" fill-opacity="1"><g transform="translate(533.49408, 186.406416)"><g><path d="M 11.28125 0 L 11.28125 -124.9375 L 33.484375 -124.9375 L 33.484375 0 Z M 11.28125 0 "/></g></g></g><g fill="#302f2f" fill-opacity="1"><g transform="translate(571.146248, 186.406416)"><g><path d="M 43.5625 2.078125 C 32.800781 2.078125 24.5 -1.273438 18.65625 -7.984375 C 12.8125 -14.691406 9.890625 -24.523438 9.890625 -37.484375 L 9.890625 -86.078125 L 31.9375 -86.078125 L 31.9375 -39.5625 C 31.9375 -32.15625 33.4375 -26.484375 36.4375 -22.546875 C 39.445312 -18.617188 44.191406 -16.65625 50.671875 -16.65625 C 56.804688 -16.65625 61.867188 -18.851562 65.859375 -23.25 C 69.847656 -27.644531 71.84375 -33.773438 71.84375 -41.640625 L 71.84375 -86.078125 L 94.046875 -86.078125 L 94.046875 0 L 74.4375 0 L 72.703125 -14.578125 C 70.046875 -9.484375 66.203125 -5.429688 61.171875 -2.421875 C 56.140625 0.578125 50.269531 2.078125 43.5625 2.078125 Z M 43.5625 2.078125 "/></g></g></g><g fill="#302f2f" fill-opacity="1"><g transform="translate(669.356504, 186.406416)"><g><path d="M 53.09375 2.078125 C 44.414062 2.078125 36.722656 0.226562 30.015625 -3.46875 C 23.304688 -7.175781 18.039062 -12.382812 14.21875 -19.09375 C 10.40625 -25.800781 8.5 -33.550781 8.5 -42.34375 C 8.5 -51.25 10.378906 -59.171875 14.140625 -66.109375 C 17.898438 -73.054688 23.101562 -78.46875 29.75 -82.34375 C 36.40625 -86.21875 44.25 -88.15625 53.28125 -88.15625 C 61.71875 -88.15625 69.175781 -86.300781 75.65625 -82.59375 C 82.132812 -78.894531 87.195312 -73.832031 90.84375 -67.40625 C 94.488281 -60.988281 96.3125 -53.847656 96.3125 -45.984375 C 96.3125 -44.710938 96.28125 -43.378906 96.21875 -41.984375 C 96.164062 -40.597656 96.082031 -39.15625 95.96875 -37.65625 L 30.546875 -37.65625 C 31.003906 -30.945312 33.34375 -25.679688 37.5625 -21.859375 C 41.789062 -18.046875 46.910156 -16.140625 52.921875 -16.140625 C 57.429688 -16.140625 61.21875 -17.148438 64.28125 -19.171875 C 67.351562 -21.203125 69.640625 -23.835938 71.140625 -27.078125 L 93.703125 -27.078125 C 92.085938 -21.640625 89.398438 -16.691406 85.640625 -12.234375 C 81.878906 -7.773438 77.25 -4.273438 71.75 -1.734375 C 66.257812 0.804688 60.039062 2.078125 53.09375 2.078125 Z M 53.28125 -70.109375 C 47.84375 -70.109375 43.039062 -68.570312 38.875 -65.5 C 34.707031 -62.4375 32.046875 -57.78125 30.890625 -51.53125 L 73.75 -51.53125 C 73.40625 -57.207031 71.320312 -61.722656 67.5 -65.078125 C 63.6875 -68.429688 58.945312 -70.109375 53.28125 -70.109375 Z M 53.28125 -70.109375 "/></g></g></g><g fill="#302f2f" fill-opacity="1"><g transform="translate(765.838298, 186.406416)"><g/></g></g></svg>